<svg width="648" height="424" viewBox="0 0 648 424" fill="none" xmlns="http://www.w3.org/2000/svg">
<g clip-path="url(#clip0_40_544)">
<path d="M320.668 72.0804C331.525 72.0804 340.326 63.2849 340.326 52.435C340.326 41.5851 331.525 32.7896 320.668 32.7896C309.812 32.7896 301.011 41.5851 301.011 52.435C301.011 63.2849 309.812 72.0804 320.668 72.0804Z" fill="#FF8C32"/>
<path d="M364.664 43.1325C364.11 41.3159 363.036 39.7009 361.575 38.4864C360.114 37.2719 358.329 36.511 356.44 36.2973C356.396 36.2936 356.352 36.2936 356.308 36.2973C356.255 36.2807 356.201 36.2684 356.146 36.2605C349.564 35.407 342.246 37.4819 337.321 41.9994C335.492 43.65 334.03 45.6652 333.028 47.915C332.115 46.6686 330.912 45.6635 329.523 44.9866C328.133 44.3097 326.6 43.9814 325.055 44.0301C323.063 44.1618 321.159 44.9043 319.605 46.1565C318.05 47.4087 316.92 49.1095 316.368 51.0272C316.307 51.2615 316.324 51.5092 316.415 51.7332C316.507 51.9573 316.668 52.1458 316.876 52.2707C317.468 52.7768 318.172 53.1349 318.93 53.3155C320.557 53.6613 322.198 53.9777 323.84 54.2646C327.05 54.8238 330.277 55.2775 333.522 55.6258C335.664 55.8539 337.811 56.0353 339.964 56.1702C344.41 56.4498 348.879 56.516 353.334 56.3763C355.542 56.3027 357.663 56.2291 359.68 55.2579C361.15 54.5354 362.406 53.4424 363.324 52.0867C364.189 50.7827 364.757 49.3052 364.988 47.7582C365.22 46.2112 365.109 44.6322 364.664 43.1325Z" fill="#E6E6E6"/>
<path d="M324.223 71.7538C324.186 70.9306 324.047 70.1152 323.811 69.3258C323.254 67.5093 322.178 65.8948 320.716 64.6806C319.254 63.4664 317.469 62.7052 315.58 62.4906C315.538 62.4869 315.496 62.4869 315.455 62.4906C315.399 62.4748 315.342 62.4625 315.285 62.4538C311.642 62.0078 307.946 62.3876 304.47 63.5648C299.125 65.3527 294.435 68.9579 292.175 74.1083C291.261 72.8611 290.057 71.8555 288.666 71.1786C287.275 70.5017 285.74 70.1738 284.194 70.2234C282.202 70.3551 280.299 71.0976 278.744 72.3498C277.189 73.6019 276.059 75.3029 275.507 77.2206C275.45 77.4549 275.468 77.7013 275.559 77.9246C275.65 78.1479 275.81 78.3367 276.015 78.464C276.608 78.9687 277.312 79.3266 278.069 79.5088C279.703 79.8546 281.338 80.171 282.987 80.4579C286.197 81.0171 289.422 81.4708 292.661 81.8191C299.242 82.5251 305.864 82.7759 312.48 82.5695C314.682 82.4959 316.809 82.4224 318.827 81.4512C320.294 80.7285 321.548 79.6354 322.464 78.28C323.754 76.3581 324.373 74.0636 324.223 71.7538V71.7538Z" fill="#E6E6E6"/>
<path d="M580.246 310.133C580.529 323.528 578.679 336.882 574.767 349.697C574.63 350.162 574.465 350.628 574.301 351.093H493.643C494.796 345.419 496.627 339.903 499.096 334.665C505.808 320.428 516.767 308.244 527.589 296.142C542.493 279.467 557.041 262.93 559.342 241.245C565.25 250.245 569.965 259.973 573.37 270.185C569.201 271.729 565.376 274.073 562.109 277.085C561.205 277.934 560.246 279.166 560.712 280.343C561.15 281.329 562.356 281.658 563.424 281.877C566 282.369 568.575 282.862 571.15 283.328C573.178 283.738 575.233 284.122 577.287 284.505C579.093 292.933 580.084 301.515 580.246 310.133V310.133Z" fill="#F2F2F2"/>
<path d="M648 301.262C635.068 309.12 626.849 321.276 620.137 334.884C614.296 336.215 608.903 339.046 604.493 343.098C603.561 343.947 602.603 345.179 603.096 346.356C603.507 347.342 604.74 347.671 605.808 347.89C608.356 348.383 610.959 348.875 613.507 349.341C613.26 349.916 613.014 350.518 612.767 351.093H527.287C531.168 345.863 535.465 340.955 540.137 336.418C541.15 335.404 542.192 334.446 543.26 333.46C554.157 323.619 566.668 315.728 580.246 310.133C601.637 301.196 625.028 298.134 648 301.262Z" fill="#F2F2F2"/>
<path d="M541.534 351.093H465.424C465.009 345.002 465.045 338.889 465.534 332.803C468.575 295.211 489.041 259.398 519.918 237.713C515.972 251.759 518 265.723 522.109 279.741C521.534 279.933 520.959 280.097 520.438 280.316C516.27 281.859 512.445 284.203 509.178 287.216C508.274 288.065 507.315 289.297 507.781 290.474C508.191 291.46 509.424 291.788 510.493 292.007C513.068 292.5 515.644 292.993 518.192 293.458C520.246 293.869 522.301 294.252 524.356 294.663C525.315 294.827 526.274 295.019 527.233 295.211C527.37 295.539 527.452 295.841 527.589 296.142C532.411 309.421 537.671 322.81 540.137 336.418C540.747 339.832 541.168 343.278 541.397 346.74C541.479 348.191 541.534 349.642 541.534 351.093Z" fill="#F2F2F2"/>
<path d="M126.729 310.133C127.011 323.528 125.162 336.882 121.25 349.697C121.112 350.162 120.948 350.628 120.784 351.093H40.126C41.279 345.419 43.1095 339.903 45.5782 334.665C52.2904 320.428 63.2494 308.244 74.0713 296.142C88.9755 279.467 103.523 262.93 105.825 241.245C111.733 250.245 116.448 259.973 119.852 270.185C115.684 271.729 111.859 274.073 108.592 277.085C107.688 277.934 106.729 279.166 107.195 280.343C107.633 281.329 108.839 281.658 109.907 281.877C112.482 282.369 115.058 282.862 117.633 283.328C119.66 283.738 121.715 284.122 123.77 284.505C125.576 292.933 126.567 301.515 126.729 310.133V310.133Z" fill="#F2F2F2"/>
<path d="M194.483 301.262C181.551 309.12 173.332 321.276 166.62 334.884C160.778 336.215 155.386 339.046 150.976 343.098C150.044 343.947 149.085 345.179 149.578 346.356C149.989 347.342 151.222 347.671 152.291 347.89C154.839 348.383 157.441 348.875 159.989 349.341C159.743 349.916 159.496 350.518 159.25 351.093H73.77C77.6504 345.863 81.9475 340.955 86.6194 336.418C87.6331 335.404 88.6742 334.446 89.7427 333.46C100.639 323.619 113.151 315.728 126.729 310.133C148.119 301.196 171.511 298.134 194.483 301.262V301.262Z" fill="#F2F2F2"/>
<path d="M88.0166 351.093H11.9068C11.4912 345.002 11.5279 338.889 12.0165 332.803C15.0576 295.211 35.5233 259.398 66.4001 237.713C62.4549 251.759 64.4822 265.723 68.5919 279.741C68.0166 279.933 67.4412 280.097 66.9207 280.316C62.7525 281.859 58.9271 284.203 55.6604 287.216C54.7563 288.065 53.7974 289.297 54.2631 290.474C54.674 291.46 55.9069 291.788 56.9754 292.007C59.5507 292.5 62.1261 292.993 64.674 293.458C66.7289 293.869 68.7837 294.252 70.8384 294.663C71.7973 294.827 72.7563 295.019 73.7151 295.211C73.8521 295.539 73.9344 295.841 74.0713 296.142C78.8933 309.421 84.1535 322.81 86.6193 336.418C87.2297 339.832 87.6504 343.278 87.8797 346.74C87.9618 348.191 88.0166 349.642 88.0166 351.093Z" fill="#F2F2F2"/>
<path d="M371.362 319.16L439.367 325.193L440.096 325.259V35.2652C439.853 35.096 439.61 34.9268 439.367 34.7575C425.194 24.8503 409.863 16.7112 393.713 10.5215L390.239 58.4197L389.922 62.8048L386.484 110.306L385.424 124.918L371.487 317.467L371.362 319.16Z" fill="#E6E6E6"/>
<path d="M203.185 29.8647C202.699 30.1737 202.213 30.4827 201.727 30.8064V325.259L203.185 325.127L270.454 319.159L270.329 317.467L256.392 124.918L255.332 110.306L251.894 62.8048L251.577 58.4196L247.933 8.18909C232.217 13.6333 217.197 20.9086 203.185 29.8647V29.8647Z" fill="#E6E6E6"/>
<path d="M201.727 30.8064C200.748 31.4392 199.769 32.0866 198.804 32.7415V329.276C198.804 336.685 203.199 342.895 209.074 344.477C210.035 344.737 211.025 344.868 212.019 344.867H430.532C431.525 344.868 432.512 344.737 433.47 344.477C435.654 343.872 437.633 342.687 439.198 341.048C442.182 337.861 443.813 333.641 443.748 329.276V37.8992C442.54 37.0089 441.325 36.126 440.096 35.2651C439.853 35.0959 439.61 34.9267 439.367 34.7575V329.276C439.369 330.231 439.255 331.182 439.028 332.109C437.99 336.487 434.567 339.695 430.532 339.695H212.019C207.146 339.695 203.185 335.022 203.185 329.276V29.8646C202.699 30.1737 202.213 30.4827 201.727 30.8064Z" fill="#E6E6E6"/>
<path d="M441.557 58.4226H200.993V62.807H441.557V58.4226Z" fill="#E6E6E6"/>
<path d="M367.879 2.49424C366.422 2.13371 364.964 1.79526 363.491 1.47888V120.533H367.879V2.49424Z" fill="#E6E6E6"/>
<path d="M279.061 0C277.595 0.272232 276.13 0.551825 274.673 0.853488V120.533H279.061V0Z" fill="#E6E6E6"/>
<path d="M153.828 337.193C153.827 339.709 154.309 342.202 155.249 344.536C155.61 345.441 156.04 346.317 156.537 347.155C157.179 348.249 157.923 349.278 158.761 350.231C160.61 352.337 162.888 354.025 165.443 355.181C167.997 356.336 170.769 356.934 173.574 356.934H461.668C466.904 356.934 471.927 354.854 475.63 351.154C479.333 347.453 481.413 342.434 481.413 337.2C481.413 331.967 479.333 326.948 475.63 323.247C471.927 319.546 466.904 317.467 461.668 317.467H173.574C168.339 317.472 163.321 319.552 159.619 323.25C155.918 326.948 153.835 331.962 153.828 337.193V337.193Z" fill="#E6E6E6"/>
<path d="M200.993 124.92L440.095 124.92V110.305L200.993 110.305V124.92Z" fill="#E6E6E6"/>
<path d="M330.781 113.958H310.307C310.307 111.827 311.154 109.782 312.663 108.275C314.171 106.767 316.217 105.92 318.35 105.92H322.737C323.794 105.92 324.839 106.128 325.815 106.532C326.791 106.936 327.678 107.528 328.425 108.275C329.172 109.021 329.764 109.907 330.168 110.882C330.572 111.858 330.78 112.903 330.78 113.958V113.958H330.781Z" fill="#E6E6E6"/>
<path d="M0 348.465C6.39581 356.038 13.3136 363.156 20.7028 369.765H614.531C621.92 363.156 628.838 356.038 635.234 348.465H0Z" fill="#4E5E64"/>
<path d="M292.055 277.236V352.695H344.953V277.236C344.954 276.693 344.781 276.164 344.459 275.727C344.137 275.29 343.683 274.968 343.164 274.808C342.919 274.727 342.663 274.687 342.406 274.69H294.61C294.275 274.689 293.943 274.755 293.633 274.882C293.323 275.01 293.042 275.197 292.804 275.434C292.567 275.67 292.379 275.951 292.25 276.26C292.122 276.569 292.055 276.901 292.055 277.236V277.236ZM312.699 303.164C312.713 301.676 313.314 300.255 314.371 299.208C315.429 298.161 316.857 297.573 318.346 297.573C319.834 297.573 321.263 298.161 322.32 299.208C323.377 300.255 323.979 301.676 323.993 303.164V311.919C323.985 313.411 323.387 314.839 322.328 315.891C321.27 316.943 319.838 317.534 318.346 317.534C316.853 317.534 315.421 316.943 314.363 315.891C313.305 314.839 312.706 313.411 312.699 311.919V303.164Z" fill="#2F383C"/>
<path d="M291.893 350.282V357.559C291.894 357.936 292.044 358.297 292.31 358.564C292.576 358.832 292.937 358.983 293.314 358.986H343.694C344.072 358.984 344.433 358.833 344.699 358.566C344.966 358.298 345.115 357.936 345.115 357.559V350.282H291.893Z" fill="#4E5E64"/>
<path d="M208.839 163.546V301.325C208.84 303.08 209.539 304.764 210.781 306.005C212.023 307.247 213.708 307.945 215.465 307.946H419.769C421.526 307.945 423.21 307.247 424.452 306.005C425.695 304.764 426.393 303.08 426.395 301.325V163.546C426.391 161.791 425.691 160.11 424.449 158.87C423.207 157.631 421.524 156.933 419.769 156.931H215.465C213.71 156.933 212.027 157.631 210.785 158.87C209.543 160.11 208.843 161.791 208.839 163.546V163.546Z" fill="#4E5E64"/>
<path d="M213.632 165.26V299.625C213.633 300.563 214.007 301.462 214.671 302.126C215.334 302.789 216.234 303.162 217.173 303.164H418.068C419.007 303.162 419.906 302.789 420.57 302.126C421.234 301.462 421.608 300.563 421.609 299.625V165.26C421.609 164.321 421.236 163.42 420.572 162.755C419.908 162.09 419.008 161.715 418.068 161.713H217.173C216.233 161.715 215.332 162.09 214.669 162.755C214.005 163.42 213.632 164.321 213.632 165.26V165.26Z" fill="#4E5E64"/>
<path d="M254.596 360.701C254.8 360.957 255.06 361.163 255.356 361.305C255.652 361.446 255.976 361.519 256.304 361.517H375.823C376.15 361.517 376.473 361.444 376.768 361.303C377.063 361.162 377.323 360.958 377.528 360.704C377.734 360.45 377.881 360.154 377.958 359.836C378.035 359.519 378.04 359.188 377.973 358.869L376.118 350.062C376.041 349.702 375.875 349.368 375.636 349.089C375.397 348.81 375.092 348.596 374.748 348.465C374.5 348.367 374.235 348.317 373.968 348.318H258.152C257.885 348.317 257.62 348.367 257.371 348.465C257.028 348.596 256.723 348.81 256.483 349.089C256.244 349.368 256.079 349.702 256.002 350.062L254.146 358.869C254.08 359.188 254.087 359.518 254.164 359.835C254.242 360.152 254.389 360.448 254.596 360.701Z" fill="#2F383C"/>
<path d="M369.797 352.111H372.759C372.958 352.111 373.119 351.95 373.119 351.752V350.263C373.119 350.065 372.958 349.904 372.759 349.904H369.797C369.599 349.904 369.438 350.065 369.438 350.263V351.752C369.438 351.95 369.599 352.111 369.797 352.111Z" fill="#4E5E64"/>
<path d="M362.435 352.111H365.397C365.596 352.111 365.757 351.95 365.757 351.752V350.263C365.757 350.065 365.596 349.904 365.397 349.904H362.435C362.236 349.904 362.075 350.065 362.075 350.263V351.752C362.075 351.95 362.236 352.111 362.435 352.111Z" fill="#4E5E64"/>
<path d="M355.073 352.111H358.035C358.233 352.111 358.394 351.95 358.394 351.752V350.263C358.394 350.065 358.233 349.904 358.035 349.904H355.073C354.874 349.904 354.713 350.065 354.713 350.263V351.752C354.713 351.95 354.874 352.111 355.073 352.111Z" fill="#4E5E64"/>
<path d="M347.71 352.111H350.673C350.871 352.111 351.032 351.95 351.032 351.752V350.263C351.032 350.065 350.871 349.904 350.673 349.904H347.71C347.512 349.904 347.351 350.065 347.351 350.263V351.752C347.351 351.95 347.512 352.111 347.71 352.111Z" fill="#4E5E64"/>
<path d="M340.348 352.111H343.31C343.509 352.111 343.67 351.95 343.67 351.752V350.263C343.67 350.065 343.509 349.904 343.31 349.904H340.348C340.15 349.904 339.989 350.065 339.989 350.263V351.752C339.989 351.95 340.15 352.111 340.348 352.111Z" fill="#4E5E64"/>
<path d="M332.986 352.111H335.948C336.147 352.111 336.307 351.95 336.307 351.752V350.263C336.307 350.065 336.147 349.904 335.948 349.904H332.986C332.787 349.904 332.626 350.065 332.626 350.263V351.752C332.626 351.95 332.787 352.111 332.986 352.111Z" fill="#4E5E64"/>
<path d="M325.623 352.111H328.586C328.784 352.111 328.945 351.95 328.945 351.752V350.263C328.945 350.065 328.784 349.904 328.586 349.904H325.623C325.425 349.904 325.264 350.065 325.264 350.263V351.752C325.264 351.95 325.425 352.111 325.623 352.111Z" fill="#4E5E64"/>
<path d="M318.261 352.111H321.223C321.422 352.111 321.583 351.95 321.583 351.752V350.263C321.583 350.065 321.422 349.904 321.223 349.904H318.261C318.063 349.904 317.902 350.065 317.902 350.263V351.752C317.902 351.95 318.063 352.111 318.261 352.111Z" fill="#4E5E64"/>
<path d="M310.899 352.111H313.861C314.06 352.111 314.221 351.95 314.221 351.752V350.263C314.221 350.065 314.06 349.904 313.861 349.904H310.899C310.7 349.904 310.539 350.065 310.539 350.263V351.752C310.539 351.95 310.7 352.111 310.899 352.111Z" fill="#4E5E64"/>
<path d="M303.537 352.111H306.499C306.697 352.111 306.858 351.95 306.858 351.752V350.263C306.858 350.065 306.697 349.904 306.499 349.904H303.537C303.338 349.904 303.177 350.065 303.177 350.263V351.752C303.177 351.95 303.338 352.111 303.537 352.111Z" fill="#4E5E64"/>
<path d="M296.174 352.111H299.137C299.335 352.111 299.496 351.95 299.496 351.752V350.263C299.496 350.065 299.335 349.904 299.137 349.904H296.174C295.976 349.904 295.815 350.065 295.815 350.263V351.752C295.815 351.95 295.976 352.111 296.174 352.111Z" fill="#4E5E64"/>
<path d="M288.812 352.111H291.774C291.973 352.111 292.134 351.95 292.134 351.752V350.263C292.134 350.065 291.973 349.904 291.774 349.904H288.812C288.613 349.904 288.453 350.065 288.453 350.263V351.752C288.453 351.95 288.613 352.111 288.812 352.111Z" fill="#4E5E64"/>
<path d="M281.45 352.111H284.412C284.61 352.111 284.771 351.95 284.771 351.752V350.263C284.771 350.065 284.61 349.904 284.412 349.904H281.45C281.251 349.904 281.09 350.065 281.09 350.263V351.752C281.09 351.95 281.251 352.111 281.45 352.111Z" fill="#4E5E64"/>
<path d="M274.087 352.111H277.05C277.248 352.111 277.409 351.95 277.409 351.752V350.263C277.409 350.065 277.248 349.904 277.05 349.904H274.087C273.889 349.904 273.728 350.065 273.728 350.263V351.752C273.728 351.95 273.889 352.111 274.087 352.111Z" fill="#4E5E64"/>
<path d="M266.725 352.111H269.687C269.886 352.111 270.047 351.95 270.047 351.752V350.263C270.047 350.065 269.886 349.904 269.687 349.904H266.725C266.527 349.904 266.366 350.065 266.366 350.263V351.752C266.366 351.95 266.527 352.111 266.725 352.111Z" fill="#4E5E64"/>
<path d="M259.363 352.111H262.325C262.524 352.111 262.685 351.95 262.685 351.752V350.263C262.685 350.065 262.524 349.904 262.325 349.904H259.363C259.164 349.904 259.003 350.065 259.003 350.263V351.752C259.003 351.95 259.164 352.111 259.363 352.111Z" fill="#4E5E64"/>
<path d="M369.884 355.79H372.847C373.045 355.79 373.206 355.629 373.206 355.431V353.942C373.206 353.744 373.045 353.583 372.847 353.583H369.884C369.686 353.583 369.525 353.744 369.525 353.942V355.431C369.525 355.629 369.686 355.79 369.884 355.79Z" fill="#4E5E64"/>
<path d="M362.522 355.79H365.484C365.683 355.79 365.844 355.629 365.844 355.431V353.942C365.844 353.744 365.683 353.583 365.484 353.583H362.522C362.323 353.583 362.163 353.744 362.163 353.942V355.431C362.163 355.629 362.323 355.79 362.522 355.79Z" fill="#4E5E64"/>
<path d="M355.16 355.79H358.122C358.321 355.79 358.481 355.629 358.481 355.431V353.942C358.481 353.744 358.321 353.583 358.122 353.583H355.16C354.961 353.583 354.8 353.744 354.8 353.942V355.431C354.8 355.629 354.961 355.79 355.16 355.79Z" fill="#4E5E64"/>
<path d="M347.797 355.79H350.76C350.958 355.79 351.119 355.629 351.119 355.431V353.942C351.119 353.744 350.958 353.583 350.76 353.583H347.797C347.599 353.583 347.438 353.744 347.438 353.942V355.431C347.438 355.629 347.599 355.79 347.797 355.79Z" fill="#4E5E64"/>
<path d="M340.435 355.79H343.397C343.596 355.79 343.757 355.629 343.757 355.431V353.942C343.757 353.744 343.596 353.583 343.397 353.583H340.435C340.237 353.583 340.076 353.744 340.076 353.942V355.431C340.076 355.629 340.237 355.79 340.435 355.79Z" fill="#4E5E64"/>
<path d="M333.073 355.79H336.035C336.234 355.79 336.395 355.629 336.395 355.431V353.942C336.395 353.744 336.234 353.583 336.035 353.583H333.073C332.874 353.583 332.713 353.744 332.713 353.942V355.431C332.713 355.629 332.874 355.79 333.073 355.79Z" fill="#4E5E64"/>
<path d="M325.71 355.79H328.673C328.871 355.79 329.032 355.629 329.032 355.431V353.942C329.032 353.744 328.871 353.583 328.673 353.583H325.71C325.512 353.583 325.351 353.744 325.351 353.942V355.431C325.351 355.629 325.512 355.79 325.71 355.79Z" fill="#4E5E64"/>
<path d="M318.348 355.79H321.31C321.509 355.79 321.67 355.629 321.67 355.431V353.942C321.67 353.744 321.509 353.583 321.31 353.583H318.348C318.15 353.583 317.989 353.744 317.989 353.942V355.431C317.989 355.629 318.15 355.79 318.348 355.79Z" fill="#4E5E64"/>
<path d="M310.986 355.79H313.948C314.147 355.79 314.308 355.629 314.308 355.431V353.942C314.308 353.744 314.147 353.583 313.948 353.583H310.986C310.787 353.583 310.626 353.744 310.626 353.942V355.431C310.626 355.629 310.787 355.79 310.986 355.79Z" fill="#4E5E64"/>
<path d="M303.624 355.79H306.586C306.784 355.79 306.945 355.629 306.945 355.431V353.942C306.945 353.744 306.784 353.583 306.586 353.583H303.624C303.425 353.583 303.264 353.744 303.264 353.942V355.431C303.264 355.629 303.425 355.79 303.624 355.79Z" fill="#4E5E64"/>
<path d="M296.261 355.79H299.224C299.422 355.79 299.583 355.629 299.583 355.431V353.942C299.583 353.744 299.422 353.583 299.224 353.583H296.261C296.063 353.583 295.902 353.744 295.902 353.942V355.431C295.902 355.629 296.063 355.79 296.261 355.79Z" fill="#4E5E64"/>
<path d="M288.899 355.79H291.861C292.06 355.79 292.221 355.629 292.221 355.431V353.942C292.221 353.744 292.06 353.583 291.861 353.583H288.899C288.7 353.583 288.54 353.744 288.54 353.942V355.431C288.54 355.629 288.7 355.79 288.899 355.79Z" fill="#4E5E64"/>
<path d="M281.537 355.79H284.499C284.697 355.79 284.858 355.629 284.858 355.431V353.942C284.858 353.744 284.697 353.583 284.499 353.583H281.537C281.338 353.583 281.177 353.744 281.177 353.942V355.431C281.177 355.629 281.338 355.79 281.537 355.79Z" fill="#4E5E64"/>
<path d="M274.174 355.79H277.137C277.335 355.79 277.496 355.629 277.496 355.431V353.942C277.496 353.744 277.335 353.583 277.137 353.583H274.174C273.976 353.583 273.815 353.744 273.815 353.942V355.431C273.815 355.629 273.976 355.79 274.174 355.79Z" fill="#4E5E64"/>
<path d="M266.812 355.79H269.774C269.973 355.79 270.134 355.629 270.134 355.431V353.942C270.134 353.744 269.973 353.583 269.774 353.583H266.812C266.614 353.583 266.453 353.744 266.453 353.942V355.431C266.453 355.629 266.614 355.79 266.812 355.79Z" fill="#4E5E64"/>
<path d="M259.45 355.79H262.412C262.611 355.79 262.771 355.629 262.771 355.431V353.942C262.771 353.744 262.611 353.583 262.412 353.583H259.45C259.251 353.583 259.09 353.744 259.09 353.942V355.431C259.09 355.629 259.251 355.79 259.45 355.79Z" fill="#4E5E64"/>
<path d="M308.777 360.205H337.508C337.706 360.205 337.867 360.044 337.867 359.845V358.357C337.867 358.158 337.706 357.997 337.508 357.997H308.777C308.579 357.997 308.418 358.158 308.418 358.357V359.845C308.418 360.044 308.579 360.205 308.777 360.205Z" fill="#4E5E64"/>
<path d="M227.268 180.223H415.245C415.44 180.219 415.626 180.138 415.763 179.998C415.9 179.859 415.976 179.671 415.976 179.476C415.976 179.28 415.9 179.093 415.763 178.953C415.626 178.814 415.44 178.733 415.245 178.729H227.268C227.073 178.733 226.887 178.814 226.75 178.953C226.613 179.093 226.537 179.28 226.537 179.476C226.537 179.671 226.613 179.859 226.75 179.998C226.887 180.138 227.073 180.219 227.268 180.223V180.223Z" fill="#4E5E64"/>
<path d="M402.449 174.914C404.868 174.914 406.83 172.911 406.83 170.439C406.83 167.967 404.868 165.963 402.449 165.963C400.029 165.963 398.068 167.967 398.068 170.439C398.068 172.911 400.029 174.914 402.449 174.914Z" fill="#4E5E64"/>
<path d="M387.315 174.914C389.734 174.914 391.696 172.911 391.696 170.439C391.696 167.967 389.734 165.963 387.315 165.963C384.895 165.963 382.934 167.967 382.934 170.439C382.934 172.911 384.895 174.914 387.315 174.914Z" fill="#4E5E64"/>
<path d="M372.181 174.914C374.601 174.914 376.562 172.911 376.562 170.439C376.562 167.967 374.601 165.963 372.181 165.963C369.762 165.963 367.8 167.967 367.8 170.439C367.8 172.911 369.762 174.914 372.181 174.914Z" fill="#4E5E64"/>
<path d="M235.579 167.887C235.578 167.992 235.599 168.097 235.639 168.195C235.679 168.293 235.738 168.382 235.812 168.457C235.887 168.533 235.975 168.592 236.073 168.633C236.171 168.674 236.275 168.695 236.381 168.696H247.13C247.343 168.691 247.545 168.603 247.693 168.451C247.842 168.299 247.925 168.095 247.925 167.883C247.925 167.67 247.842 167.466 247.693 167.315C247.545 167.163 247.343 167.075 247.13 167.07H236.381C236.167 167.072 235.962 167.16 235.811 167.313C235.661 167.466 235.577 167.672 235.579 167.887V167.887Z" fill="#4E5E64"/>
<path d="M235.579 170.94C235.578 171.046 235.599 171.151 235.639 171.249C235.679 171.347 235.738 171.436 235.812 171.511C235.887 171.586 235.975 171.646 236.073 171.687C236.171 171.728 236.275 171.749 236.381 171.749H247.13C247.343 171.745 247.545 171.657 247.694 171.505C247.843 171.353 247.926 171.149 247.926 170.936C247.926 170.724 247.843 170.52 247.694 170.368C247.545 170.216 247.343 170.128 247.13 170.123H236.381C236.167 170.126 235.962 170.213 235.811 170.366C235.661 170.519 235.577 170.726 235.579 170.94V170.94Z" fill="#4E5E64"/>
<path d="M235.579 173.986C235.577 174.2 235.661 174.407 235.811 174.56C235.962 174.713 236.167 174.8 236.381 174.803H247.13C247.343 174.798 247.545 174.71 247.693 174.558C247.842 174.406 247.925 174.202 247.925 173.99C247.925 173.777 247.842 173.573 247.693 173.421C247.545 173.269 247.343 173.182 247.13 173.177H236.381C236.275 173.177 236.171 173.198 236.073 173.239C235.975 173.28 235.887 173.34 235.812 173.415C235.738 173.49 235.679 173.579 235.639 173.677C235.599 173.775 235.578 173.88 235.579 173.986V173.986Z" fill="#4E5E64"/>
<path d="M238.901 197.584H235.038C233.867 197.584 232.918 198.533 232.918 199.703C232.918 200.874 233.867 201.822 235.038 201.822H238.901C240.072 201.822 241.021 200.874 241.021 199.703C241.021 198.533 240.072 197.584 238.901 197.584Z" fill="#E6E6E6"/>
<path d="M283.074 197.584H279.212C278.041 197.584 277.092 198.533 277.092 199.703C277.092 200.874 278.041 201.822 279.212 201.822H283.074C284.246 201.822 285.195 200.874 285.195 199.703C285.195 198.533 284.246 197.584 283.074 197.584Z" fill="#E6E6E6"/>
<path d="M295.59 197.584H291.728C290.557 197.584 289.608 198.533 289.608 199.703C289.608 200.874 290.557 201.822 291.728 201.822H295.59C296.761 201.822 297.711 200.874 297.711 199.703C297.711 198.533 296.761 197.584 295.59 197.584Z" fill="#E6E6E6"/>
<path d="M271.059 197.231H247.054C245.883 197.231 244.933 198.18 244.933 199.35C244.933 200.52 245.883 201.469 247.054 201.469H271.059C272.23 201.469 273.179 200.52 273.179 199.35C273.179 198.18 272.23 197.231 271.059 197.231Z" fill="#E6E6E6"/>
<path d="M329.957 197.231H305.952C304.781 197.231 303.832 198.18 303.832 199.35C303.832 200.52 304.781 201.469 305.952 201.469H329.957C331.128 201.469 332.078 200.52 332.078 199.35C332.078 198.18 331.128 197.231 329.957 197.231Z" fill="#E6E6E6"/>
<path d="M250.68 207.149H246.818C245.647 207.149 244.698 208.098 244.698 209.268C244.698 210.439 245.647 211.387 246.818 211.387H250.68C251.851 211.387 252.801 210.439 252.801 209.268C252.801 208.098 251.851 207.149 250.68 207.149Z" fill="#E6E6E6"/>
<path d="M294.854 207.149H290.992C289.821 207.149 288.871 208.098 288.871 209.268C288.871 210.439 289.821 211.387 290.992 211.387H294.854C296.025 211.387 296.974 210.439 296.974 209.268C296.974 208.098 296.025 207.149 294.854 207.149Z" fill="#E6E6E6"/>
<path d="M307.37 207.149H303.508C302.337 207.149 301.387 208.098 301.387 209.268C301.387 210.439 302.337 211.387 303.508 211.387H307.37C308.541 211.387 309.49 210.439 309.49 209.268C309.49 208.098 308.541 207.149 307.37 207.149Z" fill="#E6E6E6"/>
<path d="M282.839 206.796H258.833C257.662 206.796 256.713 207.745 256.713 208.915C256.713 210.085 257.662 211.034 258.833 211.034H282.839C284.01 211.034 284.959 210.085 284.959 208.915C284.959 207.745 284.01 206.796 282.839 206.796Z" fill="#E6E6E6"/>
<path d="M341.737 206.796H317.732C316.561 206.796 315.611 207.745 315.611 208.915C315.611 210.085 316.561 211.034 317.732 211.034H341.737C342.908 211.034 343.857 210.085 343.857 208.915C343.857 207.745 342.908 206.796 341.737 206.796Z" fill="#E6E6E6"/>
<path d="M262.46 216.714H258.598C257.427 216.714 256.477 217.663 256.477 218.833C256.477 220.003 257.427 220.952 258.598 220.952H262.46C263.631 220.952 264.58 220.003 264.58 218.833C264.58 217.663 263.631 216.714 262.46 216.714Z" fill="#E6E6E6"/>
<path d="M306.634 216.714H302.771C301.6 216.714 300.651 217.663 300.651 218.833C300.651 220.003 301.6 220.952 302.771 220.952H306.634C307.805 220.952 308.754 220.003 308.754 218.833C308.754 217.663 307.805 216.714 306.634 216.714Z" fill="#E6E6E6"/>
<path d="M319.15 216.714H315.287C314.116 216.714 313.167 217.663 313.167 218.833C313.167 220.003 314.116 220.952 315.287 220.952H319.15C320.321 220.952 321.27 220.003 321.27 218.833C321.27 217.663 320.321 216.714 319.15 216.714Z" fill="#E6E6E6"/>
<path d="M294.618 216.361H270.613C269.442 216.361 268.493 217.31 268.493 218.48C268.493 219.65 269.442 220.599 270.613 220.599H294.618C295.789 220.599 296.739 219.65 296.739 218.48C296.739 217.31 295.789 216.361 294.618 216.361Z" fill="#E6E6E6"/>
<path d="M353.517 216.361H329.511C328.34 216.361 327.391 217.31 327.391 218.48C327.391 219.65 328.34 220.599 329.511 220.599H353.517C354.688 220.599 355.637 219.65 355.637 218.48C355.637 217.31 354.688 216.361 353.517 216.361Z" fill="#E6E6E6"/>
<path d="M274.24 226.279H270.377C269.206 226.279 268.257 227.228 268.257 228.398C268.257 229.568 269.206 230.517 270.377 230.517H274.24C275.411 230.517 276.36 229.568 276.36 228.398C276.36 227.228 275.411 226.279 274.24 226.279Z" fill="#E6E6E6"/>
<path d="M318.413 226.279H314.551C313.38 226.279 312.431 227.228 312.431 228.398C312.431 229.568 313.38 230.517 314.551 230.517H318.413C319.584 230.517 320.534 229.568 320.534 228.398C320.534 227.228 319.584 226.279 318.413 226.279Z" fill="#E6E6E6"/>
<path d="M330.929 226.279H327.067C325.896 226.279 324.947 227.228 324.947 228.398C324.947 229.568 325.896 230.517 327.067 230.517H330.929C332.1 230.517 333.05 229.568 333.05 228.398C333.05 227.228 332.1 226.279 330.929 226.279Z" fill="#E6E6E6"/>
<path d="M306.398 225.926H282.393C281.222 225.926 280.272 226.874 280.272 228.045C280.272 229.215 281.222 230.164 282.393 230.164H306.398C307.569 230.164 308.518 229.215 308.518 228.045C308.518 226.874 307.569 225.926 306.398 225.926Z" fill="#E6E6E6"/>
<path d="M283.074 264.313H279.212C278.041 264.313 277.092 265.262 277.092 266.432C277.092 267.602 278.041 268.551 279.212 268.551H283.074C284.246 268.551 285.195 267.602 285.195 266.432C285.195 265.262 284.246 264.313 283.074 264.313Z" fill="#E6E6E6"/>
<path d="M295.59 264.313H291.728C290.557 264.313 289.608 265.262 289.608 266.432C289.608 267.602 290.557 268.551 291.728 268.551H295.59C296.761 268.551 297.711 267.602 297.711 266.432C297.711 265.262 296.761 264.313 295.59 264.313Z" fill="#E6E6E6"/>
<path d="M329.957 264.667H305.952C304.781 264.667 303.832 265.615 303.832 266.785C303.832 267.956 304.781 268.904 305.952 268.904H329.957C331.128 268.904 332.078 267.956 332.078 266.785C332.078 265.615 331.128 264.667 329.957 264.667Z" fill="#E6E6E6"/>
<path d="M238.901 264.313H235.038C233.867 264.313 232.918 265.262 232.918 266.432C232.918 267.602 233.867 268.551 235.038 268.551H238.901C240.072 268.551 241.021 267.602 241.021 266.432C241.021 265.262 240.072 264.313 238.901 264.313Z" fill="#E6E6E6"/>
<path d="M271.059 264.667H247.054C245.883 264.667 244.933 265.615 244.933 266.785C244.933 267.956 245.883 268.904 247.054 268.904H271.059C272.23 268.904 273.179 267.956 273.179 266.785C273.179 265.615 272.23 264.667 271.059 264.667Z" fill="#E6E6E6"/>
<path d="M250.68 254.748H246.818C245.647 254.748 244.698 255.697 244.698 256.867C244.698 258.038 245.647 258.986 246.818 258.986H250.68C251.851 258.986 252.801 258.038 252.801 256.867C252.801 255.697 251.851 254.748 250.68 254.748Z" fill="#E6E6E6"/>
<path d="M294.854 254.748H290.992C289.821 254.748 288.871 255.697 288.871 256.867C288.871 258.038 289.821 258.986 290.992 258.986H294.854C296.025 258.986 296.974 258.038 296.974 256.867C296.974 255.697 296.025 254.748 294.854 254.748Z" fill="#E6E6E6"/>
<path d="M307.37 254.748H303.508C302.337 254.748 301.387 255.697 301.387 256.867C301.387 258.038 302.337 258.986 303.508 258.986H307.37C308.541 258.986 309.49 258.038 309.49 256.867C309.49 255.697 308.541 254.748 307.37 254.748Z" fill="#E6E6E6"/>
<path d="M282.839 255.102H258.833C257.662 255.102 256.713 256.05 256.713 257.221C256.713 258.391 257.662 259.34 258.833 259.34H282.839C284.01 259.34 284.959 258.391 284.959 257.221C284.959 256.05 284.01 255.102 282.839 255.102Z" fill="#E6E6E6"/>
<path d="M262.46 245.183H258.598C257.427 245.183 256.477 246.132 256.477 247.302C256.477 248.473 257.427 249.421 258.598 249.421H262.46C263.631 249.421 264.58 248.473 264.58 247.302C264.58 246.132 263.631 245.183 262.46 245.183Z" fill="#E6E6E6"/>
<path d="M306.634 245.183H302.771C301.6 245.183 300.651 246.132 300.651 247.302C300.651 248.473 301.6 249.421 302.771 249.421H306.634C307.805 249.421 308.754 248.473 308.754 247.302C308.754 246.132 307.805 245.183 306.634 245.183Z" fill="#E6E6E6"/>
<path d="M319.15 245.183H315.287C314.116 245.183 313.167 246.132 313.167 247.302C313.167 248.473 314.116 249.421 315.287 249.421H319.15C320.321 249.421 321.27 248.473 321.27 247.302C321.27 246.132 320.321 245.183 319.15 245.183Z" fill="#E6E6E6"/>
<path d="M294.618 245.537H270.613C269.442 245.537 268.493 246.485 268.493 247.656C268.493 248.826 269.442 249.775 270.613 249.775H294.618C295.789 249.775 296.739 248.826 296.739 247.656C296.739 246.485 295.789 245.537 294.618 245.537Z" fill="#E6E6E6"/>
<path d="M274.24 235.619H270.377C269.206 235.619 268.257 236.567 268.257 237.738C268.257 238.908 269.206 239.856 270.377 239.856H274.24C275.411 239.856 276.36 238.908 276.36 237.738C276.36 236.567 275.411 235.619 274.24 235.619Z" fill="#E6E6E6"/>
<path d="M318.413 235.619H314.551C313.38 235.619 312.431 236.567 312.431 237.738C312.431 238.908 313.38 239.856 314.551 239.856H318.413C319.584 239.856 320.534 238.908 320.534 237.738C320.534 236.567 319.584 235.619 318.413 235.619Z" fill="#E6E6E6"/>
<path d="M330.929 235.619H327.067C325.896 235.619 324.947 236.567 324.947 237.738C324.947 238.908 325.896 239.856 327.067 239.856H330.929C332.1 239.856 333.05 238.908 333.05 237.738C333.05 236.567 332.1 235.619 330.929 235.619Z" fill="#E6E6E6"/>
<path d="M306.398 235.972H282.393C281.222 235.972 280.272 236.921 280.272 238.091C280.272 239.261 281.222 240.21 282.393 240.21H306.398C307.569 240.21 308.518 239.261 308.518 238.091C308.518 236.921 307.569 235.972 306.398 235.972Z" fill="#E6E6E6"/>
<path d="M257.616 401.692C257.454 401.773 257.292 401.854 257.13 401.927C256.106 402.435 255.076 402.935 254.037 403.428C250.931 404.907 247.784 406.312 244.599 407.644C236.217 411.147 227.617 414.104 218.853 416.495C217.381 407.32 215.952 385.681 214.583 369.767C214.325 366.772 214.068 363.984 213.81 361.519C213.565 358.283 213.1 355.068 212.418 351.895C212.352 351.647 212.255 351.407 212.131 351.181C212.271 352.454 212.418 356.251 212.558 361.519C212.632 363.984 212.698 366.772 212.772 369.767C213.118 385.085 213.479 405.93 213.839 417.798C212.816 418.048 211.785 418.298 210.755 418.533C210.107 418.688 209.451 418.835 208.796 418.975C208.001 419.151 207.206 419.328 206.411 419.49C205.579 419.666 204.747 419.836 203.915 419.997C190.32 422.666 176.497 424.007 162.642 424C161.722 424 160.809 423.993 159.888 423.985C159.609 423.985 159.329 423.978 159.042 423.971C158.232 423.956 157.393 423.941 156.539 423.919C140.166 423.467 123.9 421.124 108.065 416.937L108.706 369.767L108.816 361.519L108.86 358.392C108.496 359.398 108.277 360.451 108.212 361.519C107.955 363.528 107.69 366.375 107.425 369.767C106.416 382.834 105.378 403.914 104.303 415.907C91.5737 412.287 82.2677 408.983 70.6353 403.171C70.1862 402.95 69.7297 402.722 69.2806 402.494C69.3616 401.927 69.45 401.361 69.531 400.779C70.8488 391.626 69.2954 379.714 70.7531 369.767C71.8648 362.093 73.0133 354.721 74.1692 348.467C75.568 340.94 76.9889 335.024 78.3952 332.147C80.0149 328.829 81.6346 325.562 83.2028 322.435C83.8801 321.089 84.5452 319.767 85.1979 318.469C85.5513 317.77 85.9047 317.079 86.2507 316.402C87.8263 313.319 89.3135 310.472 90.6755 307.948C91.6326 306.175 92.5161 304.571 93.3259 303.166C94.2757 301.51 95.1149 300.142 95.807 299.104C100.919 291.361 108.524 285.595 117.364 282.763L117.585 282.704L117.798 282.792L118.041 282.903L132.074 277.774L138.339 262.699L170.52 260.719L175.717 264.67L178.375 266.694L181.21 268.85L186.422 272.815L187.902 273.271L190.103 273.948L205.159 278.569L205.314 278.503L205.535 278.562C213.578 281.135 220.619 286.15 225.678 292.909C226.179 293.556 226.642 294.226 227.091 294.903C228.314 296.713 229.963 299.575 231.906 303.166C232.709 304.644 233.556 306.248 234.446 307.948C234.984 308.971 239.622 323.436 244.135 338.21C248.354 352.042 252.462 366.147 252.999 369.767C253.095 370.436 253.198 371.113 253.294 371.783C253.905 375.969 254.509 380.185 255.09 384.298C255.952 390.398 256.791 396.284 257.593 401.544C257.601 401.596 257.608 401.64 257.616 401.692Z" fill="#4E5E64"/>
<path opacity="0.2" d="M223.512 348.433L217.256 324.305L211.732 345.125L223.512 348.433Z" fill="black"/>
<path d="M11.654 348.153C11.9784 349.097 12.5937 349.913 13.4115 350.486C14.2294 351.058 15.2078 351.357 16.2062 351.339L35.7103 350.838C36.716 350.818 37.6883 350.474 38.482 349.856C39.2757 349.239 39.8481 348.381 40.1135 347.411L42.8736 317.917C43.8528 318.36 44.9188 318.579 45.9937 318.557C47.8795 318.51 49.6694 317.716 50.9694 316.35C52.2695 314.984 52.9732 313.157 52.9259 311.273C52.8785 309.388 52.084 307.599 50.717 306.3C49.35 305.001 47.5226 304.298 45.6367 304.345C45.2071 304.343 44.7786 304.388 44.3584 304.478C43.9016 303.984 43.3462 303.591 42.7282 303.324C42.1101 303.058 41.4431 302.924 40.77 302.93L10.7683 303.705C10.5194 303.714 10.2718 303.745 10.0282 303.796C9.3703 303.919 8.74628 304.181 8.19815 304.565C7.65003 304.949 7.19053 305.445 6.8506 306.021C6.51066 306.598 6.29817 307.24 6.22742 307.905C6.15668 308.57 6.22932 309.243 6.44047 309.877L11.654 348.153ZM43.4396 315.914L45.4036 308.885C45.627 308.074 45.6322 307.217 45.4186 306.403C45.5139 306.402 45.5979 306.357 45.6932 306.357C47.0399 306.329 48.3426 306.836 49.3158 307.767C50.289 308.697 50.8532 309.976 50.8848 311.321C50.9163 312.667 50.4126 313.97 49.484 314.945C48.5555 315.921 47.2779 316.488 45.9315 316.523C45.0609 316.55 44.1993 316.34 43.4396 315.914V315.914Z" fill="#2F383C"/>
<path d="M10.0283 303.796C10.6674 307.449 17.8537 310.016 26.4947 309.57C34.4406 309.204 40.9376 306.416 42.1279 303.111C41.6874 302.981 41.2293 302.92 40.77 302.93L10.7683 303.705C10.5194 303.714 10.2718 303.744 10.0283 303.796V303.796Z" fill="#4E5E64"/>
<path d="M28.0783 331.945C28.1178 331.935 28.1554 331.919 28.1894 331.896L32.425 329.126C32.4762 329.092 32.5183 329.047 32.5474 328.993C32.5766 328.939 32.5918 328.879 32.5919 328.818C32.5919 328.757 32.5767 328.697 32.5476 328.643C32.5185 328.589 32.4765 328.544 32.4253 328.51L28.0228 325.629C27.9824 325.602 27.9371 325.583 27.8895 325.574C27.8419 325.565 27.793 325.565 27.7456 325.575C27.6981 325.585 27.6531 325.604 27.613 325.631C27.5729 325.658 27.5386 325.693 27.5121 325.734C27.4855 325.774 27.4672 325.82 27.4582 325.867C27.4492 325.915 27.4497 325.964 27.4597 326.011C27.4697 326.058 27.4889 326.103 27.5163 326.143C27.5437 326.183 27.5788 326.217 27.6194 326.244L31.5515 328.818L27.7864 331.281C27.7135 331.328 27.6599 331.4 27.6351 331.484C27.6103 331.567 27.6158 331.657 27.6509 331.736C27.6859 331.816 27.748 331.881 27.8263 331.919C27.9045 331.957 27.9938 331.967 28.0783 331.945H28.0783Z" fill="#4E5E64"/>
<path d="M21.3883 332.254C21.4594 332.236 21.5235 332.197 21.5724 332.142C21.6213 332.088 21.6527 332.02 21.6627 331.947C21.6726 331.874 21.6607 331.8 21.6283 331.735C21.596 331.669 21.5447 331.614 21.4811 331.578L17.5769 329.341L21.3505 326.54C21.3893 326.511 21.422 326.475 21.4468 326.433C21.4716 326.392 21.488 326.346 21.495 326.298C21.5021 326.25 21.4996 326.202 21.4878 326.155C21.476 326.108 21.4552 326.064 21.4263 326.025C21.3975 325.987 21.3614 325.954 21.3199 325.929C21.2785 325.904 21.2325 325.888 21.1847 325.881C21.1369 325.874 21.0882 325.876 21.0414 325.888C20.9945 325.9 20.9505 325.921 20.9117 325.949L16.6867 329.086C16.6377 329.122 16.5984 329.17 16.5725 329.225C16.5467 329.281 16.535 329.342 16.5386 329.403C16.5422 329.464 16.5609 329.523 16.5931 329.575C16.6253 329.627 16.6699 329.67 16.7229 329.7L21.1147 332.216C21.1976 332.264 21.2957 332.277 21.3883 332.254V332.254Z" fill="#4E5E64"/>
<path d="M27.657 334.373C27.6926 334.364 27.7266 334.35 27.7578 334.331C27.7992 334.306 27.8352 334.273 27.8637 334.234C27.8923 334.195 27.9129 334.15 27.9244 334.103C27.9358 334.056 27.9379 334.008 27.9305 333.96C27.9231 333.912 27.9063 333.866 27.8812 333.825L21.8769 323.96C21.8258 323.877 21.744 323.818 21.6493 323.795C21.5546 323.772 21.4547 323.788 21.3716 323.838C21.2884 323.889 21.2287 323.97 21.2055 324.065C21.1823 324.159 21.1975 324.259 21.2478 324.343L27.2521 334.208C27.2931 334.275 27.3545 334.327 27.4274 334.357C27.5002 334.387 27.5807 334.392 27.657 334.373V334.373Z" fill="#4E5E64"/>
<path d="M578.05 402.492C577.601 402.72 577.144 402.948 576.695 403.169C565.063 408.981 555.757 412.285 543.028 415.905C541.953 403.912 540.915 382.832 539.906 369.765C539.641 366.373 539.376 363.526 539.118 361.517C539.053 360.449 538.835 359.396 538.47 358.39L538.514 361.517L538.625 369.765L539.265 416.935C523.431 421.122 507.165 423.465 490.792 423.917C489.938 423.94 489.099 423.954 488.289 423.969C488.002 423.976 487.722 423.984 487.442 423.984C486.522 423.991 485.609 423.998 484.689 423.998C467.435 424.011 450.243 421.928 433.491 417.796C433.852 405.928 434.213 385.084 434.559 369.765C434.632 366.771 434.699 363.982 434.772 361.517C434.912 356.249 435.059 352.453 435.199 351.18C435.075 351.405 434.979 351.645 434.912 351.894C434.23 355.066 433.765 358.282 433.521 361.517C433.263 363.982 433.005 366.771 432.748 369.765C431.378 385.68 429.95 407.319 428.478 416.494C419.713 414.102 411.113 411.146 402.732 407.642C398.314 405.803 393.975 403.819 389.715 401.69C390.525 396.393 391.372 390.455 392.24 384.297C392.918 379.522 393.617 374.614 394.331 369.765C395.436 362.275 432.954 281.393 441.796 278.56L442.017 278.501L442.171 278.567L457.227 273.947L459.429 273.27L460.908 272.814L466.121 268.848L468.955 266.692L471.613 264.669L476.811 260.718L508.992 262.697L515.257 277.773L529.289 282.901L529.532 282.791L529.746 282.702L529.967 282.761C538.806 285.593 546.412 291.359 551.524 299.103C552.216 300.14 553.055 301.508 554.005 303.164C554.815 304.569 555.698 306.173 556.655 307.946C558.017 310.47 559.504 313.318 561.08 316.4C561.426 317.077 561.779 317.769 562.133 318.468C562.788 319.763 563.453 321.085 564.128 322.434C565.696 325.561 567.316 328.827 568.935 332.146C570.342 335.022 571.763 340.938 573.161 348.465C574.317 354.719 575.466 362.091 576.578 369.765C578.035 379.713 576.482 391.625 577.8 400.778C577.881 401.359 577.969 401.926 578.05 402.492Z" fill="#4E5E64"/>
<path d="M483.669 255.306C504.34 255.306 521.096 238.56 521.096 217.902C521.096 197.245 504.34 180.499 483.669 180.499C462.999 180.499 446.242 197.245 446.242 217.902C446.242 238.56 462.999 255.306 483.669 255.306Z" fill="#FFC699"/>
<path opacity="0.2" d="M423.817 348.433L430.073 324.305L435.597 345.125L423.817 348.433Z" fill="black"/>
<path d="M590.286 332.712C588.048 363.526 590.367 377.093 578.013 402.499C566.773 407.997 555.065 412.484 543.028 415.905C541.776 416.258 540.522 416.601 539.265 416.935C523.431 421.122 507.165 423.465 490.792 423.917C489.938 423.939 489.099 423.954 488.289 423.969C488.002 423.976 487.722 423.984 487.442 423.984C486.522 423.991 485.609 423.998 484.689 423.998C467.435 424.011 450.243 421.928 433.491 417.796C431.813 417.384 430.142 416.95 428.478 416.494C419.713 414.102 411.113 411.146 402.732 407.642C398.314 405.803 393.975 403.819 389.715 401.69C388.751 401.204 387.786 400.719 386.837 400.218C381.955 391.639 379.18 381.206 379.121 368.669C382.5 347.067 582.821 314.083 590.286 332.712Z" fill="#2F383C"/>
<path opacity="0.2" d="M590.28 337.989C590.395 336.082 590.522 334.111 590.671 332.059C583.206 313.43 382.885 346.414 379.506 368.016C379.515 369.996 379.6 371.918 379.743 373.795C387.926 352.474 578.234 321.124 590.28 337.989Z" fill="black"/>
<path d="M374.139 334.166L390.582 325.949L376.879 288.977L373.268 270.331C372.799 267.909 371.702 265.652 370.087 263.786C368.471 261.92 366.394 260.51 364.063 259.698C361.731 258.886 359.228 258.699 356.802 259.157C354.375 259.614 352.112 260.7 350.237 262.306V262.306C347.459 264.685 345.715 268.05 345.373 271.691C345.031 275.331 346.117 278.962 348.402 281.817L361.807 298.562L374.139 334.166Z" fill="#FFC699"/>
<path d="M390.582 319.103L368.658 330.057L385.296 382.156C386.491 385.897 388.632 389.267 391.513 391.937C394.395 394.608 397.917 396.489 401.74 397.399C406.454 398.52 411.402 398.112 415.868 396.234C420.334 394.356 424.086 391.105 426.579 386.953L470.697 311.38C473.824 306.172 474.789 299.949 473.386 294.04C471.983 288.131 468.324 283.005 463.191 279.755V279.755C460.429 278.008 457.331 276.861 454.097 276.389C450.863 275.917 447.566 276.131 444.42 277.017C441.274 277.903 438.35 279.441 435.839 281.531C433.327 283.621 431.284 286.216 429.842 289.147L402.914 346.49L390.582 319.103Z" fill="#4E5E64"/>
<path d="M154.246 252.725C176.989 252.725 195.427 234.299 195.427 211.57C195.427 188.841 176.989 170.415 154.246 170.415C131.502 170.415 113.065 188.841 113.065 211.57C113.065 234.299 131.502 252.725 154.246 252.725Z" fill="#FFDDC2"/>
<path d="M113.559 183.21C116.908 178.699 121.72 175.493 125.401 171.25C127.421 168.922 129.098 166.284 131.369 164.2C135.588 160.327 141.488 158.74 147.213 158.543C153.487 158.382 159.711 159.699 165.381 162.388C171.051 165.078 176.008 169.063 179.851 174.022C182.843 172.269 185.836 170.515 188.828 168.762C190.01 171.872 191.192 174.982 192.375 178.091C193.345 177.248 194.582 176.776 195.868 176.758C197.153 176.74 198.404 177.177 199.397 177.993C200.391 178.808 201.063 179.948 201.296 181.212C201.528 182.475 201.306 183.78 200.667 184.896C201.379 182.696 204.642 182.23 206.441 183.683C208.24 185.136 208.722 187.721 208.428 190.013C208.06 192.529 206.947 194.876 205.233 196.755C203.519 198.633 201.282 199.956 198.81 200.554C194.905 201.423 190.36 200.51 187.234 203.006C184.728 205.007 183.972 208.65 181.415 210.585C178.264 212.969 173.81 211.867 169.893 212.393C163.04 213.315 157.614 220.32 158.438 227.181C157.818 225.016 157.166 222.788 155.759 221.03C154.351 219.271 151.981 218.082 149.823 218.728C146.255 219.797 145.672 224.657 146.536 228.277C148.829 237.879 157.52 253.399 157.52 253.399C146.236 257.848 132.791 253.641 124.084 245.2C115.378 236.758 110.843 224.805 108.867 212.844C107.192 202.701 107.43 191.466 113.559 183.21Z" fill="#2F383C"/>
<path d="M530.573 238.521C538.407 220.57 533.969 204.051 524.418 195.288V195.281C520.663 186.871 515.671 180.381 509.958 178.858C507.197 177.085 504.518 175.003 501.543 173.943C500.158 173.425 498.682 173.192 497.204 173.26C495.726 173.327 494.277 173.692 492.944 174.333L491.427 173.929C490.139 170.64 488.63 170.574 486.951 172.737C480.487 169.728 474.663 168.381 469.48 168.381C452.577 168.381 442.579 182.684 439.928 199.975L454.056 203.735L458.967 195.913L456.699 204.441L464.496 206.508C476.364 221.952 462.162 257.578 444.161 277.399C448.446 276.215 452.714 275.214 456.964 274.397L472.411 251.765L462.84 272.367C467.809 271.638 474.148 272.337 481.076 273.742C483.41 270.696 484.639 266.635 483.432 263.015C485.406 266.833 486.767 270.937 487.466 275.177C502.088 278.746 522.032 280.578 532.781 281.931C541.466 279.098 541.49 247.101 530.573 238.521Z" fill="#2F383C"/>
<path d="M535.67 177.459C541.409 190.301 529.829 195.824 519.222 195.668C509.637 195.527 501.49 188.798 501.001 179.23C500.766 174.636 502.367 170.136 505.452 166.721C508.536 163.306 512.852 161.256 517.449 161.021C527.023 160.532 531.761 168.712 535.67 177.459Z" fill="#2F383C"/>
<path d="M269.447 386.503L259.994 370.746L291.424 346.916L304.492 333.127C306.19 331.336 308.329 330.021 310.694 329.315C313.06 328.608 315.569 328.534 317.973 329.1C320.376 329.667 322.588 330.853 324.388 332.542C326.189 334.23 327.514 336.361 328.232 338.722V338.722C329.296 342.22 328.959 345.995 327.291 349.249C325.623 352.503 322.755 354.983 319.293 356.164L298.985 363.093L269.447 386.503Z" fill="#FFDDC2"/>
<path d="M276.279 385.983L261.562 398.241L257.593 401.544L257.13 401.927C256.106 402.435 255.076 402.935 254.038 403.428C250.931 404.907 247.784 406.312 244.599 407.644C236.217 411.147 227.617 414.104 218.853 416.495C217.189 416.951 215.518 417.385 213.839 417.797C212.816 418.048 211.785 418.298 210.755 418.533C210.107 418.688 209.451 418.835 208.796 418.975C208.001 419.151 207.206 419.328 206.411 419.49C205.579 419.666 204.747 419.836 203.915 419.997C201.676 417.869 199.894 415.307 198.677 412.469C197.459 409.631 196.832 406.575 196.832 403.487C196.832 403.288 196.832 403.082 196.84 402.876L199.203 342.301L200.249 315.453C200.41 309.381 202.94 303.613 207.3 299.382C211.659 295.15 217.502 292.79 223.58 292.806C224.286 292.806 224.986 292.843 225.678 292.909C226.179 293.556 226.642 294.226 227.092 294.903C228.314 296.713 229.963 299.575 231.906 303.166C232.709 304.644 233.556 306.248 234.446 307.948C234.984 308.971 239.622 323.436 244.135 338.21L242.147 353.639L238.555 381.451L253.294 371.783L263.675 364.97L264.904 367.022L268.107 372.364L274.291 382.665L276.279 385.983Z" fill="#4E5E64"/>
<path d="M268.21 368.671C268.202 369.921 268.173 371.15 268.107 372.364C267.953 375.713 267.565 379.047 266.944 382.341C265.927 387.873 264.115 393.229 261.562 398.241C261.223 398.911 260.862 399.573 260.494 400.22C259.544 400.721 258.58 401.206 257.616 401.692C257.454 401.773 257.292 401.854 257.13 401.927C253.029 403.965 248.852 405.871 244.599 407.644C236.217 411.147 227.617 414.104 218.853 416.495C217.189 416.951 215.518 417.386 213.839 417.798C210.563 418.607 207.255 419.34 203.915 419.998C190.32 422.667 176.497 424.007 162.642 424C161.722 424 160.809 423.993 159.888 423.985C159.609 423.985 159.329 423.978 159.042 423.971C158.232 423.956 157.393 423.941 156.539 423.919C140.165 423.467 123.9 421.124 108.065 416.937C106.806 416.606 105.552 416.262 104.303 415.907C92.2659 412.485 80.5578 407.999 69.3174 402.501C56.9635 377.095 59.2826 363.528 57.0445 332.714C61.6386 321.243 139.362 329.344 199.203 342.301C215.444 345.818 230.36 349.695 242.147 353.639C254.325 357.708 263.152 361.843 266.612 365.728C267.421 366.532 267.976 367.555 268.21 368.671V368.671Z" fill="#2F383C"/>
<path opacity="0.2" d="M57.0488 337.989C56.9345 336.082 56.8067 334.111 56.6577 332.059C64.123 313.43 264.444 346.414 267.823 368.016C267.814 369.996 267.729 371.918 267.586 373.795C259.403 352.474 69.0955 321.124 57.0488 337.989Z" fill="black"/>
</g>
<defs>
<clipPath id="clip0_40_544">
<rect width="648" height="424" fill="white"/>
</clipPath>
</defs>
</svg>
