<svg width="630" height="466" viewBox="0 0 630 466" fill="none" xmlns="http://www.w3.org/2000/svg">
<g clip-path="url(#clip0_40_722)">
<path d="M447.179 341.784H107.915C104.892 341.781 101.994 340.577 99.8568 338.439C97.7193 336.3 96.5169 333.4 96.5134 330.375V53.9592C96.5169 50.9345 97.7193 48.0347 99.8568 45.8958C101.994 43.757 104.892 42.5539 107.915 42.5504H447.179C450.202 42.5539 453.1 43.757 455.237 45.8958C457.375 48.0347 458.577 50.9345 458.581 53.9592V330.375C458.577 333.4 457.375 336.3 455.237 338.439C453.1 340.577 450.202 341.781 447.179 341.784Z" fill="#E6E6E6"/>
<path d="M115.608 50.6709C112.696 50.6743 109.904 51.8333 107.845 53.8936C105.786 55.9539 104.628 58.7472 104.625 61.6609V322.68C104.628 325.594 105.787 328.387 107.846 330.447C109.905 332.507 112.696 333.666 115.608 333.669H347.821C375.036 333.638 401.127 322.807 420.371 303.551C439.616 284.296 450.44 258.188 450.471 230.956V61.6609C450.468 58.7472 449.31 55.9539 447.251 53.8936C445.192 51.8333 442.4 50.6743 439.488 50.6709L115.608 50.6709Z" fill="white"/>
<path d="M385.314 168.063H323.797C322.514 168.061 321.284 167.551 320.377 166.643C319.47 165.735 318.96 164.504 318.958 163.221V132.584C318.96 131.3 319.47 130.07 320.377 129.162C321.284 128.254 322.514 127.743 323.797 127.742H385.314C386.597 127.743 387.827 128.254 388.734 129.162C389.641 130.07 390.152 131.3 390.153 132.584C393.96 143.426 394.5 153.727 390.153 163.221C390.152 164.504 389.641 165.735 388.734 166.643C387.827 167.551 386.597 168.061 385.314 168.063V168.063Z" fill="#E6E6E6"/>
<path d="M378.026 165.102H325.762C324.672 165.101 323.626 164.667 322.856 163.896C322.085 163.124 321.651 162.079 321.65 160.988V134.959C321.651 133.868 322.085 132.823 322.856 132.051C323.626 131.28 324.672 130.846 325.762 130.845H378.026C379.116 130.846 380.161 131.28 380.932 132.051C381.703 132.823 382.136 133.868 382.138 134.959C385.665 144.229 386.232 153.001 382.138 160.988C382.136 162.079 381.703 163.124 380.932 163.896C380.161 164.667 379.116 165.101 378.026 165.102V165.102Z" fill="white"/>
<path d="M375.208 184.111H333.767C332.548 184.113 331.379 183.63 330.515 182.769C329.652 181.908 329.165 180.739 329.163 179.519C329.161 178.3 329.643 177.129 330.503 176.265C331.363 175.4 332.531 174.913 333.75 174.91H375.208C376.425 174.913 377.593 175.398 378.453 176.261C379.313 177.123 379.796 178.292 379.796 179.511C379.796 180.729 379.313 181.898 378.453 182.761C377.593 183.623 376.425 184.109 375.208 184.111V184.111Z" fill="#E6E6E6"/>
<path d="M347.345 137.874C346.868 137.875 346.412 138.066 346.075 138.403C345.738 138.741 345.548 139.198 345.547 139.675V159.175C345.547 159.49 345.63 159.799 345.787 160.072C345.944 160.345 346.169 160.572 346.441 160.73C346.714 160.888 347.022 160.972 347.337 160.974C347.652 160.975 347.961 160.893 348.235 160.737L365.436 150.924C365.712 150.766 365.942 150.538 366.102 150.263C366.261 149.987 366.345 149.674 366.344 149.356C366.343 149.038 366.258 148.726 366.097 148.451C365.936 148.177 365.705 147.95 365.427 147.794L348.227 138.107C347.958 137.954 347.654 137.874 347.345 137.874V137.874Z" fill="#E6E6E6"/>
<path d="M598.3 428.691C597.351 427.484 596.063 426.589 594.601 426.121C593.139 425.654 591.571 425.635 590.098 426.068L589.776 426.164L586.888 437.447C586.455 435.765 585.53 431.969 584.946 428.253L584.896 427.946L584.609 428.072C581.589 429.407 578.751 431.119 576.161 433.167C571.572 436.85 567.839 441.489 565.223 446.762C562.606 452.034 561.169 457.813 561.01 463.698L561.005 463.914L561 464.05L561.382 463.914L569.589 460.979C573.223 461.3 576.882 460.804 580.299 459.529C583.717 458.254 586.807 456.231 589.344 453.608C592.66 450.109 594.934 445.608 597.133 441.253C597.777 439.984 598.436 438.675 599.11 437.416C599.862 436.048 600.187 434.485 600.043 432.929C599.898 431.374 599.291 429.898 598.3 428.691V428.691Z" fill="#F2F2F2"/>
<path d="M388.724 140.962C388.889 141.816 389.239 142.623 389.749 143.328C390.259 144.032 390.918 144.615 391.678 145.037C392.438 145.459 393.281 145.71 394.149 145.77C395.016 145.831 395.886 145.7 396.697 145.388L421.224 173.938L424.33 163.399L400.013 137.278C399.399 135.949 398.318 134.892 396.977 134.306C395.635 133.721 394.125 133.648 392.734 134.102C391.342 134.556 390.165 135.505 389.426 136.77C388.687 138.034 388.437 139.525 388.724 140.962L388.724 140.962Z" fill="#FFC699"/>
<path d="M487.574 457.089H479.457L475.596 425.762H487.576L487.574 457.089Z" fill="#FFC699"/>
<path d="M487.357 454.436L478.691 450.909L478.443 450.807L473.658 454.436C470.956 454.437 468.365 455.511 466.455 457.423C464.545 459.334 463.471 461.927 463.471 464.63V464.961H489.642V454.436H487.357Z" fill="#2F383C"/>
<path d="M545.478 457.089H537.361L533.499 425.762H545.479L545.478 457.089Z" fill="#FFC699"/>
<path d="M545.261 454.436L536.595 450.909L536.346 450.807L531.561 454.436C528.86 454.437 526.269 455.511 524.358 457.423C522.448 459.334 521.375 461.927 521.374 464.63V464.961H547.545V454.436H545.261Z" fill="#2F383C"/>
<path d="M526.321 270.017C526.321 270.017 536.502 280.615 536.502 289.323C536.502 298.031 533.956 309.988 536.502 312.604C539.047 315.221 542.228 318.405 538.411 322.225C534.593 326.045 532.684 327.955 535.229 330.502C537.774 333.049 536.502 377.617 536.502 377.617L549.864 437.465H533.029L511.686 377.617L505.959 327.955L487.439 375.707L489.483 437.979L471.884 437.465L464.599 371.25C464.599 371.25 475.416 308.263 473.508 306.649C471.599 305.034 473.508 301.776 473.508 301.776L478.598 277.657L526.321 270.017Z" fill="#2F383C"/>
<path d="M506.388 194.875C506.388 194.875 509.849 181.226 493.901 177.312C477.952 173.399 432.364 168.371 432.364 168.371L409.324 143.909L401.517 155.253L427.345 187.368L488.542 199.945L506.388 194.875Z" fill="#4E5E64"/>
<path d="M405.312 154.417C406.027 153.489 406.587 152.451 406.97 151.344L410.274 143.22L409.416 143.185C408.229 142.961 407.008 142.991 405.834 143.273C404.66 143.554 403.558 144.081 402.601 144.818C401.644 145.556 400.854 146.487 400.282 147.551C399.71 148.616 399.369 149.789 399.282 150.994C399.174 152.037 399.361 153.089 399.822 154.03C400.057 154.496 400.399 154.901 400.82 155.209C401.241 155.518 401.729 155.723 402.244 155.807C402.83 155.838 403.414 155.728 403.948 155.486C404.481 155.244 404.949 154.878 405.312 154.417V154.417Z" fill="#E6E6E6"/>
<path d="M475.349 280.91L473.44 294.756C473.44 294.756 477.258 298.858 479.167 298.346C481.076 297.833 488.075 294.848 488.075 294.848C488.075 294.848 496.347 299.371 500.801 299.884C505.255 300.397 528.798 297.32 529.435 295.781C530.071 294.243 537.467 288.221 537.467 288.221L534.525 270.653L475.349 280.91Z" fill="#E6E6E6"/>
<path d="M537.344 232.471C537.344 232.471 535.728 245.822 537 247.051C538.273 248.274 535.728 256.009 533.182 261.103C530.637 266.196 535.091 266.833 535.091 270.653C535.091 274.473 537 288.481 537 288.481C537 288.481 517.275 289.754 514.093 286.57C510.912 283.387 505.821 285.934 498.822 292.937C491.823 299.941 476.622 294.211 473.44 291.027C470.258 287.844 475.915 276.383 477.824 274.161C479.733 271.939 475.985 274.512 474.076 267.47C472.167 260.428 475.915 261.103 479.097 257.92C482.278 254.736 479.097 249.006 476.551 243.276C474.006 237.546 475.915 194.887 475.915 184.7C475.915 174.513 489.914 173.24 489.914 173.24L495.456 166.268L499.528 161.143L507.508 160.825L507.718 160.818L515.436 160.506L519.184 164.874L527.456 174.513L537 176.424C544.636 178.97 542.727 194.887 542.727 194.887L537.344 232.471Z" fill="#4E5E64"/>
<path d="M507.114 158.063C516.147 158.063 523.47 150.735 523.47 141.697C523.47 132.658 516.147 125.33 507.114 125.33C498.08 125.33 490.758 132.658 490.758 141.697C490.758 150.735 498.08 158.063 507.114 158.063Z" fill="#FFC699"/>
<path d="M526.079 136.191C521.58 133.43 522.156 126.212 517.822 123.691C515.667 122.449 513.245 121.745 510.76 121.641C508.276 121.536 505.803 122.034 503.552 123.092C500.499 121.785 496.841 122.828 494.398 125.188C491.956 127.548 490.634 131.03 490.244 134.531C489.963 138.049 490.215 141.589 490.993 145.032C491.235 143.649 491.478 142.266 491.721 140.883L504.615 138.063C503.473 139.089 502.332 140.115 501.19 141.141C507.03 142.472 513.158 141.513 518.313 138.462C523.926 140.98 522.909 146.635 517.981 154.14C519.89 157.323 531.205 139.337 526.079 136.191Z" fill="#2F383C"/>
<path d="M519.184 164.874C519.147 164.904 519.109 164.931 519.069 164.957C517.721 165.761 516.178 166.18 514.609 166.167C512.555 166.338 510.515 165.698 508.927 164.384C508.093 163.594 504.778 165.262 502.602 166.186C500.319 167.132 497.76 167.162 495.456 166.268L499.528 161.143L506.24 159.654H507.916L515.436 160.506L519.184 164.874Z" fill="#E6E6E6"/>
<path d="M629.008 465.742L401.33 466C401.199 466.001 401.069 465.976 400.948 465.926C400.826 465.877 400.716 465.804 400.623 465.711C400.53 465.619 400.456 465.51 400.405 465.389C400.354 465.268 400.328 465.138 400.327 465.007C400.326 464.876 400.351 464.746 400.401 464.625C400.45 464.503 400.523 464.393 400.615 464.3C400.708 464.207 400.817 464.132 400.938 464.082C401.059 464.031 401.188 464.004 401.319 464.004H401.33L629.008 463.746C629.271 463.747 629.524 463.853 629.71 464.04C629.896 464.227 630 464.48 630 464.744C630 465.008 629.896 465.261 629.71 465.448C629.524 465.635 629.271 465.741 629.008 465.742V465.742Z" fill="#CACACA"/>
<path d="M356.395 130.523H354.719V10.6057H420.62V12.2824H356.395V130.523Z" fill="#4E5E64"/>
<path d="M471.871 0H427.467C424.578 0 421.808 1.14821 419.765 3.19203C417.723 5.23585 416.575 8.00787 416.575 10.8983C416.575 13.7887 417.723 16.5607 419.765 18.6045C421.808 20.6483 424.578 21.7965 427.467 21.7965H471.871C474.76 21.7965 477.53 20.6483 479.573 18.6045C481.616 16.5607 482.763 13.7887 482.763 10.8983C482.763 8.00787 481.616 5.23585 479.573 3.19203C477.53 1.14821 474.76 0 471.871 0V0Z" fill="#4E5E64"/>
<path d="M354.585 141.493C360.112 141.493 364.593 137.01 364.593 131.479C364.593 125.948 360.112 121.464 354.585 121.464C349.057 121.464 344.576 125.948 344.576 131.479C344.576 137.01 349.057 141.493 354.585 141.493Z" fill="#4E5E64"/>
<path d="M233.98 169.109L277.887 158.943L290.49 156.025C292.066 155.66 291.411 153.231 289.834 153.596L245.927 163.763L233.324 166.681C231.748 167.046 232.403 169.475 233.98 169.109H233.98Z" fill="#F2F2F2"/>
<path d="M279.319 142.633L302.824 153.452C303.627 153.73 304.378 154.137 305.049 154.657C305.697 155.293 305.225 155.904 304.696 156.458C303.114 157.937 301.443 159.316 299.693 160.59L289.679 168.737C288.422 169.759 290.195 171.544 291.441 170.531L300.163 163.435L304.524 159.888C305.759 158.883 307.263 157.857 307.759 156.256C308.803 152.892 304.686 151.555 302.398 150.502L292.162 145.79L280.599 140.468C279.142 139.797 277.851 141.957 279.319 142.633V142.633Z" fill="#F2F2F2"/>
<path d="M603.684 224.994C599.497 222.153 594.41 221.097 589.437 220.739C583.786 220.431 578.121 220.438 572.47 220.759C566.6 220.992 560.742 221.417 554.895 222.034C549.057 222.652 543.244 223.462 537.455 224.464C532.272 225.272 527.143 226.395 522.096 227.828C517.32 229.151 512.821 231.325 508.815 234.245C505.299 236.891 502.595 240.471 501.011 244.578C499.456 248.429 499.191 252.682 500.257 256.696C500.826 258.647 501.798 260.455 503.112 262.004C504.631 263.702 506.43 265.128 508.431 266.217C512.585 268.591 517.292 270.018 521.049 273.056C522.039 273.851 522.942 274.75 523.743 275.736C524.286 276.5 525.037 277.091 525.906 277.44C526.73 277.728 527.621 277.765 528.466 277.547C529.311 277.33 530.073 276.866 530.656 276.216C531.408 275.186 532.036 274.07 532.525 272.891L534.507 269.065C534.639 268.73 534.805 268.41 535.002 268.108C535.151 267.931 534.885 268.112 534.936 268.065C534.964 268.04 535.021 268.04 535.053 268.02C535.217 267.938 535.388 267.873 535.565 267.824C537.398 267.124 539.24 266.447 541.089 265.791C547.917 263.356 554.827 261.112 561.846 259.294C565.458 258.325 569.121 257.558 572.818 256.997C577.607 256.315 582.468 256.394 587.279 255.928C592.458 255.425 597.802 254.376 602.244 251.523C605.916 249.29 608.745 245.901 610.288 241.888C610.957 239.975 611.187 237.936 610.959 235.923C610.382 231.367 607.408 227.519 603.684 224.994Z" fill="#E6E6E6"/>
<path d="M595.114 227.553C591.33 224.986 586.733 224.033 582.24 223.709C577.132 223.431 572.013 223.437 566.907 223.727C561.602 223.937 556.308 224.321 551.025 224.879C545.749 225.438 540.496 226.17 535.264 227.075C530.581 227.805 525.946 228.82 521.386 230.115C517.069 231.31 513.003 233.275 509.384 235.914C506.207 238.305 503.763 241.54 502.331 245.251C500.926 248.731 500.687 252.574 501.65 256.202C502.164 257.965 503.043 259.599 504.23 260.998C505.603 262.534 507.228 263.822 509.037 264.806C512.79 266.951 517.044 268.24 520.439 270.986C521.334 271.705 522.15 272.516 522.873 273.408C523.364 274.098 524.043 274.632 524.829 274.947C525.573 275.208 526.378 275.242 527.142 275.045C527.906 274.848 528.594 274.429 529.12 273.842C529.8 272.911 530.367 271.902 530.809 270.837L532.6 267.379C532.72 267.077 532.87 266.787 533.048 266.515C533.182 266.355 532.942 266.518 532.988 266.476C533.013 266.453 533.065 266.454 533.094 266.435C533.242 266.361 533.397 266.302 533.557 266.258C535.213 265.626 536.877 265.013 538.549 264.421C544.719 262.221 550.963 260.193 557.306 258.55C560.57 257.674 563.88 256.981 567.221 256.474C571.549 255.858 575.942 255.929 580.289 255.508C584.969 255.054 589.799 254.106 593.812 251.527C597.131 249.509 599.688 246.447 601.082 242.82C601.687 241.092 601.894 239.249 601.689 237.43C601.167 233.313 598.479 229.836 595.114 227.553Z" fill="white"/>
<path d="M587.189 232.189L525.524 243.569C525.348 243.603 525.166 243.601 524.991 243.565C524.815 243.528 524.648 243.457 524.5 243.356C524.351 243.255 524.225 243.125 524.126 242.975C524.028 242.825 523.961 242.656 523.927 242.48C523.894 242.303 523.896 242.122 523.933 241.946C523.971 241.77 524.042 241.604 524.144 241.456C524.245 241.308 524.375 241.181 524.526 241.083C524.676 240.985 524.845 240.918 525.021 240.886L525.029 240.884L586.694 229.504C586.87 229.472 587.051 229.474 587.226 229.512C587.401 229.549 587.567 229.621 587.715 229.722C587.862 229.824 587.989 229.954 588.086 230.104C588.183 230.255 588.25 230.423 588.283 230.599C588.315 230.775 588.313 230.956 588.275 231.132C588.238 231.307 588.166 231.473 588.065 231.621C587.963 231.768 587.833 231.895 587.683 231.992C587.533 232.09 587.365 232.157 587.189 232.189V232.189Z" fill="#E6E6E6"/>
<path d="M588.708 240.43L527.043 251.81C526.867 251.843 526.685 251.842 526.51 251.805C526.334 251.769 526.167 251.698 526.019 251.596C525.871 251.495 525.744 251.366 525.646 251.215C525.547 251.065 525.48 250.897 525.447 250.72C525.414 250.544 525.416 250.362 525.453 250.187C525.49 250.011 525.561 249.844 525.663 249.696C525.764 249.548 525.894 249.422 526.045 249.324C526.195 249.226 526.364 249.159 526.54 249.126L526.548 249.125L588.213 237.745C588.389 237.712 588.57 237.715 588.745 237.752C588.92 237.789 589.086 237.861 589.234 237.963C589.381 238.064 589.508 238.194 589.605 238.345C589.702 238.495 589.769 238.663 589.802 238.839C589.834 239.016 589.832 239.197 589.794 239.372C589.757 239.547 589.685 239.714 589.584 239.861C589.482 240.009 589.353 240.135 589.202 240.233C589.052 240.33 588.884 240.397 588.708 240.43V240.43Z" fill="#E6E6E6"/>
<path d="M535.748 258.724L528.562 260.05C528.207 260.114 527.841 260.035 527.544 259.829C527.247 259.624 527.043 259.309 526.978 258.954C526.912 258.599 526.99 258.232 527.194 257.934C527.399 257.636 527.712 257.432 528.067 257.365L535.253 256.039C535.609 255.974 535.975 256.053 536.272 256.258C536.57 256.464 536.773 256.779 536.839 257.134C536.904 257.49 536.826 257.857 536.622 258.154C536.417 258.452 536.103 258.657 535.748 258.724V258.724Z" fill="#E6E6E6"/>
<path d="M530.542 292.981C533.691 292.4 535.774 289.374 535.193 286.223C534.612 283.071 531.588 280.988 528.438 281.569C525.289 282.15 523.207 285.176 523.788 288.328C524.368 291.479 527.393 293.563 530.542 292.981Z" fill="#D1D3D4"/>
<path d="M211.417 166.511H158.746C156.301 166.508 153.957 165.535 152.228 163.805C150.499 162.075 149.526 159.729 149.523 157.283V122.549C149.526 120.102 150.499 117.757 152.228 116.027C153.957 114.297 156.301 113.323 158.746 113.321H211.417C213.862 113.323 216.206 114.297 217.935 116.027C219.664 117.757 220.636 120.102 220.639 122.549V157.283C220.636 159.729 219.664 162.075 217.935 163.805C216.206 165.535 213.862 166.508 211.417 166.511V166.511Z" fill="#E6E6E6"/>
<path d="M205.629 164.64H159.789C157.661 164.637 155.62 163.79 154.116 162.285C152.611 160.779 151.764 158.738 151.762 156.608V126.379C151.764 124.249 152.611 122.208 154.116 120.702C155.62 119.197 157.661 118.35 159.789 118.347H205.629C207.757 118.35 209.797 119.197 211.301 120.702C212.806 122.208 213.653 124.249 213.655 126.379V156.608C213.653 158.738 212.806 160.779 211.301 162.285C209.797 163.79 207.757 164.637 205.629 164.64V164.64Z" fill="white"/>
<path d="M218.835 197.804H151.252C150.834 197.803 150.434 197.637 150.139 197.341C149.844 197.045 149.679 196.644 149.679 196.226C149.679 195.808 149.844 195.408 150.139 195.112C150.434 194.816 150.834 194.649 151.252 194.648H218.835C219.253 194.649 219.653 194.816 219.948 195.112C220.243 195.408 220.409 195.808 220.409 196.226C220.409 196.644 220.243 197.045 219.948 197.341C219.653 197.637 219.253 197.803 218.835 197.804V197.804Z" fill="#E6E6E6"/>
<path d="M218.835 188.788H151.252C150.834 188.787 150.434 188.62 150.139 188.324C149.844 188.028 149.679 187.628 149.679 187.21C149.679 186.792 149.844 186.391 150.139 186.095C150.434 185.799 150.834 185.633 151.252 185.632H218.835C219.253 185.633 219.653 185.799 219.948 186.095C220.243 186.391 220.409 186.792 220.409 187.21C220.409 187.628 220.243 188.028 219.948 188.324C219.653 188.62 219.253 188.787 218.835 188.788V188.788Z" fill="#E6E6E6"/>
<path d="M218.835 206.821H151.252C150.834 206.821 150.433 206.655 150.137 206.359C149.841 206.063 149.675 205.661 149.675 205.243C149.675 204.824 149.841 204.423 150.137 204.127C150.433 203.831 150.834 203.665 151.252 203.665H218.835C219.254 203.665 219.655 203.831 219.95 204.127C220.246 204.423 220.412 204.824 220.412 205.243C220.412 205.661 220.246 206.063 219.95 206.359C219.655 206.655 219.254 206.821 218.835 206.821Z" fill="#E6E6E6"/>
<path d="M218.835 215.837H151.252C150.834 215.837 150.433 215.671 150.137 215.375C149.841 215.079 149.675 214.678 149.675 214.259C149.675 213.841 149.841 213.439 150.137 213.144C150.433 212.848 150.834 212.681 151.252 212.681H218.835C219.254 212.681 219.655 212.848 219.95 213.144C220.246 213.439 220.412 213.841 220.412 214.259C220.412 214.678 220.246 215.079 219.95 215.375C219.655 215.671 219.254 215.837 218.835 215.837V215.837Z" fill="#E6E6E6"/>
<path d="M218.835 224.854H151.252C150.834 224.854 150.433 224.688 150.137 224.392C149.841 224.096 149.675 223.694 149.675 223.276C149.675 222.857 149.841 222.456 150.137 222.16C150.433 221.864 150.834 221.698 151.252 221.698H218.835C219.254 221.698 219.655 221.864 219.95 222.16C220.246 222.456 220.412 222.857 220.412 223.276C220.412 223.694 220.246 224.096 219.95 224.392C219.655 224.688 219.254 224.854 218.835 224.854Z" fill="#E6E6E6"/>
<path d="M218.835 233.87H151.252C150.834 233.869 150.434 233.703 150.139 233.407C149.844 233.111 149.679 232.71 149.679 232.293C149.679 231.875 149.844 231.474 150.139 231.178C150.434 230.882 150.834 230.716 151.252 230.715H218.835C219.253 230.716 219.653 230.882 219.948 231.178C220.243 231.474 220.409 231.875 220.409 232.293C220.409 232.71 220.243 233.111 219.948 233.407C219.653 233.703 219.253 233.869 218.835 233.87V233.87Z" fill="#E6E6E6"/>
<path d="M181.665 213.192H183.34V277.779H62.1437V276.103H181.665V213.192Z" fill="#4E5E64"/>
<path d="M10.8917 288.385H55.2962C58.1849 288.385 60.9552 287.237 62.9978 285.193C65.0404 283.149 66.1879 280.377 66.1879 277.487C66.1879 274.596 65.0404 271.824 62.9978 269.78C60.9552 267.737 58.1849 266.588 55.2962 266.588H10.8917C8.00302 266.588 5.23269 267.737 3.1901 269.78C1.14752 271.824 0 274.596 0 277.487C0 280.377 1.14752 283.149 3.1901 285.193C5.23269 287.237 8.00302 288.385 10.8917 288.385Z" fill="#4E5E64"/>
<path d="M183.669 218.059C189.197 218.059 193.678 213.575 193.678 208.044C193.678 202.513 189.197 198.03 183.669 198.03C178.142 198.03 173.661 202.513 173.661 208.044C173.661 213.575 178.142 218.059 183.669 218.059Z" fill="#4E5E64"/>
<path d="M235.401 210.827C250.095 213.952 246.357 214.562 261.051 217.687L273.705 220.378C275.287 220.714 275.721 218.237 274.137 217.9C259.443 214.775 263.181 214.165 248.487 211.04L235.833 208.349C234.251 208.013 233.817 210.49 235.401 210.827H235.401Z" fill="#F2F2F2"/>
<path d="M269.245 203.515L285.969 223.268C286.578 223.859 287.087 224.546 287.475 225.301C287.794 226.152 287.107 226.506 286.393 226.784C284.335 227.454 282.238 227.997 280.113 228.41L267.595 231.552C266.024 231.947 266.877 234.315 268.433 233.924L279.336 231.187L284.787 229.819C286.332 229.431 288.128 229.138 289.255 227.898C291.622 225.291 288.458 222.337 286.83 220.414L279.547 211.812L271.321 202.095C270.284 200.87 268.2 202.281 269.245 203.515V203.515Z" fill="#F2F2F2"/>
<path d="M322.27 289.621C335.124 289.621 345.545 279.194 345.545 266.332C345.545 253.47 335.124 243.044 322.27 243.044C309.416 243.044 298.995 253.47 298.995 266.332C298.995 279.194 309.416 289.621 322.27 289.621Z" fill="#E6E6E6"/>
<path d="M320.001 286.652C329.774 286.652 337.696 278.725 337.696 268.947C337.696 259.169 329.774 251.242 320.001 251.242C310.229 251.242 302.307 259.169 302.307 268.947C302.307 278.725 310.229 286.652 320.001 286.652Z" fill="white"/>
<path d="M316.827 281.068C316.425 281.068 316.028 280.975 315.669 280.795C315.309 280.615 314.997 280.354 314.756 280.032L308.406 271.56C308.202 271.288 308.053 270.979 307.969 270.649C307.884 270.32 307.865 269.977 307.913 269.64C307.961 269.303 308.075 268.979 308.248 268.686C308.421 268.394 308.65 268.138 308.922 267.934C309.194 267.729 309.503 267.581 309.833 267.496C310.162 267.411 310.505 267.393 310.841 267.441C311.178 267.488 311.502 267.602 311.794 267.775C312.087 267.949 312.343 268.178 312.547 268.45L312.548 268.452L316.702 273.994L327.372 257.98C327.56 257.697 327.803 257.453 328.085 257.263C328.368 257.074 328.685 256.941 329.019 256.874C329.352 256.807 329.696 256.807 330.03 256.873C330.363 256.939 330.681 257.07 330.964 257.259C331.247 257.448 331.49 257.691 331.68 257.974C331.869 258.257 332.001 258.574 332.067 258.908C332.134 259.242 332.134 259.586 332.067 259.92C332.001 260.254 331.869 260.571 331.68 260.854L318.981 279.915C318.751 280.259 318.442 280.544 318.08 280.745C317.718 280.945 317.313 281.056 316.899 281.068C316.875 281.068 316.851 281.068 316.827 281.068Z" fill="#E6E6E6"/>
<path d="M539.599 290.324C540.349 289.883 540.992 289.283 541.485 288.566C541.978 287.849 542.307 287.033 542.45 286.175C542.594 285.317 542.547 284.438 542.314 283.6C542.081 282.762 541.668 281.986 541.102 281.325L559.79 248.648L548.825 249.245L532.355 280.91C531.309 281.934 530.674 283.306 530.572 284.767C530.469 286.228 530.905 287.676 531.798 288.836C532.691 289.997 533.979 290.789 535.416 291.063C536.854 291.337 538.342 291.074 539.599 290.324H539.599Z" fill="#FFC699"/>
<path d="M518.55 175.787C518.55 175.787 538.343 169.42 543.433 184.701C548.524 199.981 565.636 241.366 565.636 241.366L547.251 278.93L538.979 270.017L547.82 243.912L522.368 205.711L518.55 175.787Z" fill="#4E5E64"/>
<path d="M547.882 275.094C547.286 274.085 546.53 273.18 545.644 272.415L539.328 266.333L538.977 267.116C538.33 268.136 537.905 269.282 537.731 270.478C537.557 271.674 537.638 272.893 537.967 274.055C538.297 275.218 538.869 276.297 539.645 277.223C540.42 278.149 541.383 278.901 542.469 279.429C543.397 279.916 544.443 280.132 545.487 280.052C546.007 280.007 546.509 279.839 546.952 279.562C547.395 279.286 547.766 278.908 548.035 278.46C548.281 277.928 548.395 277.344 548.369 276.758C548.342 276.173 548.175 275.602 547.882 275.094V275.094Z" fill="#E6E6E6"/>
<path d="M322.068 297.664H320.393V362.251H377.077V360.574H322.068V297.664Z" fill="#4E5E64"/>
<path d="M439.221 361.958C439.218 359.069 438.07 356.298 436.028 354.255C433.986 352.212 431.217 351.063 428.329 351.06H383.925C381.036 351.06 378.266 352.208 376.223 354.252C374.18 356.296 373.033 359.068 373.033 361.958C373.033 364.849 374.18 367.621 376.223 369.665C378.266 371.708 381.036 372.857 383.925 372.857H428.329C431.217 372.854 433.986 371.705 436.028 369.661C438.07 367.618 439.218 364.848 439.221 361.958Z" fill="#4E5E64"/>
<path d="M320.064 302.531C325.591 302.531 330.072 298.047 330.072 292.516C330.072 286.985 325.591 282.501 320.064 282.501C314.536 282.501 310.055 286.985 310.055 292.516C310.055 298.047 314.536 302.531 320.064 302.531Z" fill="#4E5E64"/>
</g>
<defs>
<clipPath id="clip0_40_722">
<rect width="630" height="466" fill="white"/>
</clipPath>
</defs>
</svg>
