<svg width="600" height="436" viewBox="0 0 600 436" fill="none" xmlns="http://www.w3.org/2000/svg">
<g clip-path="url(#clip0_38_215)">
<path d="M349.499 76.8593C360.744 76.8593 369.86 67.7516 369.86 56.5168C369.86 45.2819 360.744 36.1743 349.499 36.1743C338.254 36.1743 329.138 45.2819 329.138 56.5168C329.138 67.7516 338.254 76.8593 349.499 76.8593Z" fill="#F2F2F2"/>
<path d="M507.446 378.765C537.71 355.735 552.165 317.034 543.116 280.116C542.891 279.199 542.654 278.284 542.404 277.371C536.404 255.457 521.562 234.629 499.929 227.627C481.765 221.748 461.938 226.269 442.989 223.931C405.79 219.342 376.95 189.271 356.658 157.786C336.366 126.301 320.771 91.059 293.807 65.0481C249.361 22.1736 176.858 12.9427 121.752 40.8508C66.6455 68.759 31.5433 130.676 33.0403 192.383C34.5374 254.091 71.2038 313.088 124.453 344.389C144.014 355.888 166.639 364.034 189.155 361.184C208.692 358.71 226.443 348.222 245.888 345.109C276.46 340.213 306.838 354.023 333.28 370.116C359.723 386.209 385.264 405.284 415.312 412.744C444.489 419.989 480.636 399.167 507.446 378.765Z" fill="#F2F2F2"/>
<path d="M463.963 42.1466C463.3 41.7047 462.629 41.2857 461.965 40.859C442.788 28.6049 422.232 18.6498 400.724 11.1994L395.737 79.9354H364.121V1.1656C362.131 0.75419 360.125 0.365637 358.119 -6.10352e-05V79.9354H320.548C299.864 79.9354 280.028 71.7263 265.403 57.1142C250.777 42.502 242.561 22.6837 242.561 2.01898V2.01891C240.547 2.45318 238.55 2.91792 236.552 3.41314V79.9354H205.95L201.199 14.3917C179.096 22.8609 158.112 33.9982 138.715 47.5559C138.379 47.7845 138.044 48.0206 137.716 48.2492C136.031 49.4301 134.368 50.6339 132.713 51.8528V314.081H222.902L221.308 292.025L212.539 170.926H389.141L380.371 292.025L378.777 314.081H467.967V44.7979C466.64 43.8989 465.305 43.0152 463.963 42.1466ZM236.552 150.926H211.09L206.385 85.9389H236.552V150.926ZM358.12 150.926H315.355V149.639C315.355 149.02 315.233 148.407 314.996 147.835C314.758 147.264 314.41 146.744 313.972 146.307C313.534 145.869 313.013 145.523 312.441 145.287C311.868 145.051 311.254 144.929 310.635 144.931H292.043C291.424 144.93 290.812 145.052 290.24 145.288C289.668 145.525 289.148 145.872 288.711 146.309C288.273 146.746 287.926 147.265 287.689 147.837C287.452 148.408 287.331 149.02 287.331 149.639V150.926H242.561V85.9389H358.12V150.926ZM364.121 150.926V85.9389H395.302L390.597 150.926H364.121Z" fill="#4E5E64"/>
<path d="M0 330.873C6.62458 338.715 13.7898 346.086 21.4433 352.929L578.557 353.691C586.21 346.847 593.375 339.477 600 331.635L0 330.873Z" fill="#4E5E64"/>
<path d="M377.797 260.248V325.544C377.797 326.376 378.128 327.174 378.717 327.762C379.306 328.35 380.105 328.681 380.938 328.682H477.787C478.619 328.681 479.418 328.35 480.007 327.762C480.596 327.174 480.927 326.376 480.928 325.544V260.248C480.926 259.417 480.594 258.62 480.005 258.033C479.417 257.445 478.619 257.115 477.787 257.114H380.938C380.106 257.115 379.308 257.445 378.719 258.033C378.13 258.62 377.799 259.417 377.797 260.248V260.248Z" fill="#4E5E64"/>
<path d="M380.069 261.061V324.738C380.069 325.183 380.247 325.609 380.561 325.923C380.876 326.238 381.302 326.415 381.747 326.415H476.98C477.425 326.415 477.852 326.238 478.167 325.923C478.481 325.609 478.658 325.183 478.659 324.738V261.061C478.659 260.616 478.482 260.189 478.168 259.874C477.853 259.558 477.426 259.381 476.98 259.38H381.747C381.302 259.381 380.875 259.558 380.56 259.874C380.246 260.189 380.069 260.616 380.069 261.061V261.061Z" fill="#D4DBDD"/>
<path d="M375.771 338.278C375.949 338.5 376.174 338.679 376.431 338.802C376.687 338.925 376.969 338.988 377.253 338.986H480.956C481.239 338.986 481.519 338.922 481.775 338.8C482.031 338.678 482.257 338.501 482.435 338.281C482.614 338.061 482.741 337.804 482.808 337.528C482.875 337.253 482.879 336.966 482.821 336.689L481.211 329.049C481.144 328.738 481.001 328.448 480.793 328.206C480.586 327.964 480.321 327.778 480.023 327.664C479.807 327.58 479.577 327.537 479.346 327.537H378.857C378.625 327.537 378.395 327.58 378.179 327.664C377.881 327.778 377.617 327.964 377.409 328.206C377.202 328.448 377.058 328.738 376.991 329.049L375.381 336.689C375.324 336.966 375.329 337.252 375.397 337.527C375.464 337.802 375.592 338.059 375.771 338.278V338.278Z" fill="#2F383C"/>
<path d="M475.788 330.827H478.237C478.443 330.827 478.609 330.661 478.609 330.455V329.284C478.609 329.079 478.443 328.913 478.237 328.913H475.788C475.582 328.913 475.415 329.079 475.415 329.284V330.455C475.415 330.661 475.582 330.827 475.788 330.827Z" fill="#4E5E64"/>
<path d="M469.4 330.827H471.849C472.055 330.827 472.221 330.661 472.221 330.455V329.284C472.221 329.079 472.055 328.913 471.849 328.913H469.4C469.194 328.913 469.027 329.079 469.027 329.284V330.455C469.027 330.661 469.194 330.827 469.4 330.827Z" fill="#4E5E64"/>
<path d="M463.012 330.827H465.461C465.667 330.827 465.833 330.661 465.833 330.455V329.284C465.833 329.079 465.667 328.913 465.461 328.913H463.012C462.806 328.913 462.639 329.079 462.639 329.284V330.455C462.639 330.661 462.806 330.827 463.012 330.827Z" fill="#4E5E64"/>
<path d="M456.624 330.827H459.073C459.279 330.827 459.445 330.661 459.445 330.455V329.284C459.445 329.079 459.279 328.913 459.073 328.913H456.624C456.418 328.913 456.251 329.079 456.251 329.284V330.455C456.251 330.661 456.418 330.827 456.624 330.827Z" fill="#4E5E64"/>
<path d="M450.236 330.827H452.685C452.891 330.827 453.057 330.661 453.057 330.455V329.284C453.057 329.079 452.891 328.913 452.685 328.913H450.236C450.03 328.913 449.863 329.079 449.863 329.284V330.455C449.863 330.661 450.03 330.827 450.236 330.827Z" fill="#4E5E64"/>
<path d="M443.848 330.827H446.297C446.503 330.827 446.669 330.661 446.669 330.455V329.284C446.669 329.079 446.503 328.913 446.297 328.913H443.848C443.642 328.913 443.475 329.079 443.475 329.284V330.455C443.475 330.661 443.642 330.827 443.848 330.827Z" fill="#4E5E64"/>
<path d="M437.46 330.827H439.909C440.115 330.827 440.281 330.661 440.281 330.455V329.284C440.281 329.079 440.115 328.913 439.909 328.913H437.46C437.254 328.913 437.088 329.079 437.088 329.284V330.455C437.088 330.661 437.254 330.827 437.46 330.827Z" fill="#4E5E64"/>
<path d="M431.072 330.827H433.521C433.727 330.827 433.894 330.661 433.894 330.455V329.284C433.894 329.079 433.727 328.913 433.521 328.913H431.072C430.866 328.913 430.7 329.079 430.7 329.284V330.455C430.7 330.661 430.866 330.827 431.072 330.827Z" fill="#4E5E64"/>
<path d="M424.684 330.827H427.133C427.339 330.827 427.505 330.661 427.505 330.455V329.284C427.505 329.079 427.339 328.913 427.133 328.913H424.684C424.478 328.913 424.311 329.079 424.311 329.284V330.455C424.311 330.661 424.478 330.827 424.684 330.827Z" fill="#4E5E64"/>
<path d="M418.296 330.827H420.745C420.951 330.827 421.118 330.661 421.118 330.455V329.284C421.118 329.079 420.951 328.913 420.745 328.913H418.296C418.09 328.913 417.924 329.079 417.924 329.284V330.455C417.924 330.661 418.09 330.827 418.296 330.827Z" fill="#4E5E64"/>
<path d="M411.908 330.827H414.357C414.563 330.827 414.729 330.661 414.729 330.455V329.284C414.729 329.079 414.563 328.913 414.357 328.913H411.908C411.702 328.913 411.536 329.079 411.536 329.284V330.455C411.536 330.661 411.702 330.827 411.908 330.827Z" fill="#4E5E64"/>
<path d="M405.52 330.827H407.969C408.175 330.827 408.342 330.661 408.342 330.455V329.284C408.342 329.079 408.175 328.913 407.969 328.913H405.52C405.314 328.913 405.148 329.079 405.148 329.284V330.455C405.148 330.661 405.314 330.827 405.52 330.827Z" fill="#4E5E64"/>
<path d="M399.132 330.827H401.581C401.787 330.827 401.953 330.661 401.953 330.455V329.284C401.953 329.079 401.787 328.913 401.581 328.913H399.132C398.926 328.913 398.76 329.079 398.76 329.284V330.455C398.76 330.661 398.926 330.827 399.132 330.827Z" fill="#4E5E64"/>
<path d="M392.744 330.827H395.193C395.399 330.827 395.566 330.661 395.566 330.455V329.284C395.566 329.079 395.399 328.913 395.193 328.913H392.744C392.538 328.913 392.372 329.079 392.372 329.284V330.455C392.372 330.661 392.538 330.827 392.744 330.827Z" fill="#4E5E64"/>
<path d="M386.356 330.827H388.805C389.011 330.827 389.178 330.661 389.178 330.455V329.284C389.178 329.079 389.011 328.913 388.805 328.913H386.356C386.15 328.913 385.984 329.079 385.984 329.284V330.455C385.984 330.661 386.15 330.827 386.356 330.827Z" fill="#4E5E64"/>
<path d="M379.968 330.827H382.417C382.623 330.827 382.79 330.661 382.79 330.455V329.284C382.79 329.079 382.623 328.913 382.417 328.913H379.968C379.762 328.913 379.596 329.079 379.596 329.284V330.455C379.596 330.661 379.762 330.827 379.968 330.827Z" fill="#4E5E64"/>
<path d="M475.863 334.018H478.313C478.518 334.018 478.685 333.852 478.685 333.646V332.476C478.685 332.27 478.518 332.104 478.313 332.104H475.863C475.657 332.104 475.491 332.27 475.491 332.476V333.646C475.491 333.852 475.657 334.018 475.863 334.018Z" fill="#4E5E64"/>
<path d="M469.475 334.018H471.925C472.13 334.018 472.297 333.852 472.297 333.646V332.476C472.297 332.27 472.13 332.104 471.925 332.104H469.475C469.27 332.104 469.103 332.27 469.103 332.476V333.646C469.103 333.852 469.27 334.018 469.475 334.018Z" fill="#4E5E64"/>
<path d="M463.087 334.018H465.537C465.742 334.018 465.909 333.852 465.909 333.646V332.476C465.909 332.27 465.742 332.104 465.537 332.104H463.087C462.882 332.104 462.715 332.27 462.715 332.476V333.646C462.715 333.852 462.882 334.018 463.087 334.018Z" fill="#4E5E64"/>
<path d="M456.699 334.018H459.148C459.354 334.018 459.521 333.852 459.521 333.646V332.476C459.521 332.27 459.354 332.104 459.148 332.104H456.699C456.493 332.104 456.327 332.27 456.327 332.476V333.646C456.327 333.852 456.493 334.018 456.699 334.018Z" fill="#4E5E64"/>
<path d="M450.311 334.018H452.761C452.966 334.018 453.133 333.852 453.133 333.646V332.476C453.133 332.27 452.966 332.104 452.761 332.104H450.311C450.106 332.104 449.939 332.27 449.939 332.476V333.646C449.939 333.852 450.106 334.018 450.311 334.018Z" fill="#4E5E64"/>
<path d="M443.923 334.018H446.373C446.578 334.018 446.745 333.852 446.745 333.646V332.476C446.745 332.27 446.578 332.104 446.373 332.104H443.923C443.718 332.104 443.551 332.27 443.551 332.476V333.646C443.551 333.852 443.718 334.018 443.923 334.018Z" fill="#4E5E64"/>
<path d="M437.535 334.018H439.985C440.19 334.018 440.357 333.852 440.357 333.646V332.476C440.357 332.27 440.19 332.104 439.985 332.104H437.535C437.33 332.104 437.163 332.27 437.163 332.476V333.646C437.163 333.852 437.33 334.018 437.535 334.018Z" fill="#4E5E64"/>
<path d="M431.147 334.018H433.597C433.802 334.018 433.969 333.852 433.969 333.646V332.476C433.969 332.27 433.802 332.104 433.597 332.104H431.147C430.942 332.104 430.775 332.27 430.775 332.476V333.646C430.775 333.852 430.942 334.018 431.147 334.018Z" fill="#4E5E64"/>
<path d="M424.759 334.018H427.209C427.414 334.018 427.581 333.852 427.581 333.646V332.476C427.581 332.27 427.414 332.104 427.209 332.104H424.759C424.554 332.104 424.387 332.27 424.387 332.476V333.646C424.387 333.852 424.554 334.018 424.759 334.018Z" fill="#4E5E64"/>
<path d="M418.371 334.018H420.821C421.026 334.018 421.193 333.852 421.193 333.646V332.476C421.193 332.27 421.026 332.104 420.821 332.104H418.371C418.166 332.104 417.999 332.27 417.999 332.476V333.646C417.999 333.852 418.166 334.018 418.371 334.018Z" fill="#4E5E64"/>
<path d="M411.983 334.018H414.433C414.638 334.018 414.805 333.852 414.805 333.646V332.476C414.805 332.27 414.638 332.104 414.433 332.104H411.983C411.778 332.104 411.611 332.27 411.611 332.476V333.646C411.611 333.852 411.778 334.018 411.983 334.018Z" fill="#4E5E64"/>
<path d="M405.595 334.018H408.045C408.25 334.018 408.417 333.852 408.417 333.646V332.476C408.417 332.27 408.25 332.104 408.045 332.104H405.595C405.39 332.104 405.223 332.27 405.223 332.476V333.646C405.223 333.852 405.39 334.018 405.595 334.018Z" fill="#4E5E64"/>
<path d="M399.207 334.018H401.657C401.862 334.018 402.029 333.852 402.029 333.646V332.476C402.029 332.27 401.862 332.104 401.657 332.104H399.207C399.002 332.104 398.835 332.27 398.835 332.476V333.646C398.835 333.852 399.002 334.018 399.207 334.018Z" fill="#4E5E64"/>
<path d="M392.819 334.018H395.269C395.474 334.018 395.641 333.852 395.641 333.646V332.476C395.641 332.27 395.474 332.104 395.269 332.104H392.819C392.614 332.104 392.447 332.27 392.447 332.476V333.646C392.447 333.852 392.614 334.018 392.819 334.018Z" fill="#4E5E64"/>
<path d="M386.431 334.018H388.881C389.086 334.018 389.253 333.852 389.253 333.646V332.476C389.253 332.27 389.086 332.104 388.881 332.104H386.431C386.226 332.104 386.059 332.27 386.059 332.476V333.646C386.059 333.852 386.226 334.018 386.431 334.018Z" fill="#4E5E64"/>
<path d="M380.043 334.018H382.493C382.698 334.018 382.865 333.852 382.865 333.646V332.476C382.865 332.27 382.698 332.104 382.493 332.104H380.043C379.838 332.104 379.671 332.27 379.671 332.476V333.646C379.671 333.852 379.838 334.018 380.043 334.018Z" fill="#4E5E64"/>
<path d="M422.843 337.848H447.65C447.856 337.848 448.022 337.681 448.022 337.476V336.305C448.022 336.1 447.856 335.933 447.65 335.933H422.843C422.637 335.933 422.471 336.1 422.471 336.305V337.476C422.471 337.681 422.637 337.848 422.843 337.848Z" fill="#4E5E64"/>
<path d="M396.56 273.311H394.392C393.734 273.311 393.201 273.844 393.201 274.5C393.201 275.157 393.734 275.69 394.392 275.69H396.56C397.218 275.69 397.751 275.157 397.751 274.5C397.751 273.844 397.218 273.311 396.56 273.311Z" fill="#E6E6E6"/>
<path d="M421.361 273.311H419.193C418.535 273.311 418.002 273.844 418.002 274.5C418.002 275.157 418.535 275.69 419.193 275.69H421.361C422.019 275.69 422.552 275.157 422.552 274.5C422.552 273.844 422.019 273.311 421.361 273.311Z" fill="#E6E6E6"/>
<path d="M428.388 273.311H426.219C425.562 273.311 425.029 273.844 425.029 274.5C425.029 275.157 425.562 275.69 426.219 275.69H428.388C429.045 275.69 429.578 275.157 429.578 274.5C429.578 273.844 429.045 273.311 428.388 273.311Z" fill="#E6E6E6"/>
<path d="M414.615 273.113H401.138C400.48 273.113 399.947 273.645 399.947 274.302C399.947 274.959 400.48 275.491 401.138 275.491H414.615C415.273 275.491 415.806 274.959 415.806 274.302C415.806 273.645 415.273 273.113 414.615 273.113Z" fill="#E6E6E6"/>
<path d="M447.683 273.113H434.206C433.548 273.113 433.015 273.645 433.015 274.302C433.015 274.959 433.548 275.491 434.206 275.491H447.683C448.341 275.491 448.874 274.959 448.874 274.302C448.874 273.645 448.341 273.113 447.683 273.113Z" fill="#E6E6E6"/>
<path d="M403.174 278.68H401.005C400.348 278.68 399.815 279.212 399.815 279.869C399.815 280.526 400.348 281.058 401.005 281.058H403.174C403.831 281.058 404.364 280.526 404.364 279.869C404.364 279.212 403.831 278.68 403.174 278.68Z" fill="#E6E6E6"/>
<path d="M427.975 278.68H425.806C425.149 278.68 424.616 279.212 424.616 279.869C424.616 280.526 425.149 281.058 425.806 281.058H427.975C428.632 281.058 429.165 280.526 429.165 279.869C429.165 279.212 428.632 278.68 427.975 278.68Z" fill="#E6E6E6"/>
<path d="M435.001 278.68H432.833C432.176 278.68 431.643 279.212 431.643 279.869C431.643 280.526 432.176 281.058 432.833 281.058H435.001C435.659 281.058 436.192 280.526 436.192 279.869C436.192 279.212 435.659 278.68 435.001 278.68Z" fill="#E6E6E6"/>
<path d="M421.229 278.481H407.751C407.094 278.481 406.561 279.014 406.561 279.671C406.561 280.328 407.094 280.86 407.751 280.86H421.229C421.886 280.86 422.419 280.328 422.419 279.671C422.419 279.014 421.886 278.481 421.229 278.481Z" fill="#E6E6E6"/>
<path d="M454.296 278.481H440.819C440.161 278.481 439.628 279.014 439.628 279.671C439.628 280.328 440.161 280.86 440.819 280.86H454.296C454.954 280.86 455.487 280.328 455.487 279.671C455.487 279.014 454.954 278.481 454.296 278.481Z" fill="#E6E6E6"/>
<path d="M409.787 284.048H407.619C406.961 284.048 406.428 284.581 406.428 285.238C406.428 285.895 406.961 286.427 407.619 286.427H409.787C410.445 286.427 410.978 285.895 410.978 285.238C410.978 284.581 410.445 284.048 409.787 284.048Z" fill="#E6E6E6"/>
<path d="M434.588 284.048H432.42C431.762 284.048 431.229 284.581 431.229 285.238C431.229 285.895 431.762 286.427 432.42 286.427H434.588C435.246 286.427 435.779 285.895 435.779 285.238C435.779 284.581 435.246 284.048 434.588 284.048Z" fill="#E6E6E6"/>
<path d="M441.615 284.048H439.447C438.789 284.048 438.256 284.581 438.256 285.238C438.256 285.895 438.789 286.427 439.447 286.427H441.615C442.273 286.427 442.806 285.895 442.806 285.238C442.806 284.581 442.273 284.048 441.615 284.048Z" fill="#E6E6E6"/>
<path d="M427.842 283.85H414.365C413.707 283.85 413.174 284.383 413.174 285.039C413.174 285.696 413.707 286.229 414.365 286.229H427.842C428.5 286.229 429.033 285.696 429.033 285.039C429.033 284.383 428.5 283.85 427.842 283.85Z" fill="#E6E6E6"/>
<path d="M460.91 283.85H447.433C446.775 283.85 446.242 284.383 446.242 285.039C446.242 285.696 446.775 286.229 447.433 286.229H460.91C461.568 286.229 462.101 285.696 462.101 285.039C462.101 284.383 461.568 283.85 460.91 283.85Z" fill="#E6E6E6"/>
<path d="M416.401 289.417H414.232C413.575 289.417 413.042 289.949 413.042 290.606C413.042 291.263 413.575 291.796 414.232 291.796H416.401C417.058 291.796 417.591 291.263 417.591 290.606C417.591 289.949 417.058 289.417 416.401 289.417Z" fill="#E6E6E6"/>
<path d="M441.202 289.417H439.033C438.376 289.417 437.843 289.949 437.843 290.606C437.843 291.263 438.376 291.796 439.033 291.796H441.202C441.859 291.796 442.392 291.263 442.392 290.606C442.392 289.949 441.859 289.417 441.202 289.417Z" fill="#E6E6E6"/>
<path d="M448.229 289.417H446.06C445.403 289.417 444.87 289.949 444.87 290.606C444.87 291.263 445.403 291.796 446.06 291.796H448.229C448.886 291.796 449.419 291.263 449.419 290.606C449.419 289.949 448.886 289.417 448.229 289.417Z" fill="#E6E6E6"/>
<path d="M434.456 289.219H420.978C420.321 289.219 419.788 289.751 419.788 290.408C419.788 291.065 420.321 291.597 420.978 291.597H434.456C435.113 291.597 435.646 291.065 435.646 290.408C435.646 289.751 435.113 289.219 434.456 289.219Z" fill="#E6E6E6"/>
<path d="M421.361 310.765H419.193C418.535 310.765 418.002 311.297 418.002 311.954C418.002 312.611 418.535 313.144 419.193 313.144H421.361C422.019 313.144 422.552 312.611 422.552 311.954C422.552 311.297 422.019 310.765 421.361 310.765Z" fill="#E6E6E6"/>
<path d="M428.388 310.765H426.219C425.562 310.765 425.029 311.297 425.029 311.954C425.029 312.611 425.562 313.144 426.219 313.144H428.388C429.045 313.144 429.578 312.611 429.578 311.954C429.578 311.297 429.045 310.765 428.388 310.765Z" fill="#E6E6E6"/>
<path d="M447.683 310.963H434.206C433.548 310.963 433.015 311.496 433.015 312.153C433.015 312.809 433.548 313.342 434.206 313.342H447.683C448.341 313.342 448.874 312.809 448.874 312.153C448.874 311.496 448.341 310.963 447.683 310.963Z" fill="#E6E6E6"/>
<path d="M396.56 310.765H394.392C393.734 310.765 393.201 311.297 393.201 311.954C393.201 312.611 393.734 313.144 394.392 313.144H396.56C397.218 313.144 397.751 312.611 397.751 311.954C397.751 311.297 397.218 310.765 396.56 310.765Z" fill="#E6E6E6"/>
<path d="M414.615 310.963H401.138C400.48 310.963 399.947 311.496 399.947 312.153C399.947 312.809 400.48 313.342 401.138 313.342H414.615C415.273 313.342 415.806 312.809 415.806 312.153C415.806 311.496 415.273 310.963 414.615 310.963Z" fill="#E6E6E6"/>
<path d="M403.174 305.396H401.005C400.348 305.396 399.815 305.929 399.815 306.586C399.815 307.243 400.348 307.775 401.005 307.775H403.174C403.831 307.775 404.364 307.243 404.364 306.586C404.364 305.929 403.831 305.396 403.174 305.396Z" fill="#E6E6E6"/>
<path d="M427.975 305.396H425.806C425.149 305.396 424.616 305.929 424.616 306.586C424.616 307.243 425.149 307.775 425.806 307.775H427.975C428.632 307.775 429.165 307.243 429.165 306.586C429.165 305.929 428.632 305.396 427.975 305.396Z" fill="#E6E6E6"/>
<path d="M435.001 305.396H432.833C432.176 305.396 431.643 305.929 431.643 306.586C431.643 307.243 432.176 307.775 432.833 307.775H435.001C435.659 307.775 436.192 307.243 436.192 306.586C436.192 305.929 435.659 305.396 435.001 305.396Z" fill="#E6E6E6"/>
<path d="M421.229 305.595H407.751C407.094 305.595 406.561 306.127 406.561 306.784C406.561 307.441 407.094 307.973 407.751 307.973H421.229C421.886 307.973 422.419 307.441 422.419 306.784C422.419 306.127 421.886 305.595 421.229 305.595Z" fill="#E6E6E6"/>
<path d="M409.787 300.028H407.619C406.961 300.028 406.428 300.56 406.428 301.217C406.428 301.874 406.961 302.406 407.619 302.406H409.787C410.445 302.406 410.978 301.874 410.978 301.217C410.978 300.56 410.445 300.028 409.787 300.028Z" fill="#E6E6E6"/>
<path d="M434.588 300.028H432.42C431.762 300.028 431.229 300.56 431.229 301.217C431.229 301.874 431.762 302.406 432.42 302.406H434.588C435.246 302.406 435.779 301.874 435.779 301.217C435.779 300.56 435.246 300.028 434.588 300.028Z" fill="#E6E6E6"/>
<path d="M441.615 300.028H439.447C438.789 300.028 438.256 300.56 438.256 301.217C438.256 301.874 438.789 302.406 439.447 302.406H441.615C442.273 302.406 442.806 301.874 442.806 301.217C442.806 300.56 442.273 300.028 441.615 300.028Z" fill="#E6E6E6"/>
<path d="M427.842 300.226H414.365C413.707 300.226 413.174 300.758 413.174 301.415C413.174 302.072 413.707 302.605 414.365 302.605H427.842C428.5 302.605 429.033 302.072 429.033 301.415C429.033 300.758 428.5 300.226 427.842 300.226Z" fill="#E6E6E6"/>
<path d="M416.401 294.659H414.232C413.575 294.659 413.042 295.192 413.042 295.848C413.042 296.505 413.575 297.038 414.232 297.038H416.401C417.058 297.038 417.591 296.505 417.591 295.848C417.591 295.192 417.058 294.659 416.401 294.659Z" fill="#E6E6E6"/>
<path d="M441.202 294.659H439.033C438.376 294.659 437.843 295.192 437.843 295.848C437.843 296.505 438.376 297.038 439.033 297.038H441.202C441.859 297.038 442.392 296.505 442.392 295.848C442.392 295.192 441.859 294.659 441.202 294.659Z" fill="#E6E6E6"/>
<path d="M448.229 294.659H446.06C445.403 294.659 444.87 295.192 444.87 295.848C444.87 296.505 445.403 297.038 446.06 297.038H448.229C448.886 297.038 449.419 296.505 449.419 295.848C449.419 295.192 448.886 294.659 448.229 294.659Z" fill="#E6E6E6"/>
<path d="M434.456 294.857H420.978C420.321 294.857 419.788 295.39 419.788 296.047C419.788 296.704 420.321 297.236 420.978 297.236H434.456C435.113 297.236 435.646 296.704 435.646 296.047C435.646 295.39 435.113 294.857 434.456 294.857Z" fill="#E6E6E6"/>
<path d="M385.031 373.683L374.852 357.607L406.805 332.158L419.993 317.56C421.707 315.663 423.888 314.249 426.32 313.459C428.752 312.669 431.349 312.53 433.851 313.056C436.354 313.583 438.674 314.756 440.58 316.459C442.486 318.163 443.912 320.336 444.714 322.762C445.903 326.357 445.647 330.273 444.001 333.683C442.355 337.093 439.447 339.731 435.891 341.04L415.036 348.716L385.031 373.683Z" fill="#FFC699"/>
<path d="M146.176 257.117V335.254H200.966V257.117C200.967 256.555 200.787 256.007 200.454 255.555C200.12 255.102 199.65 254.768 199.113 254.602C198.86 254.519 198.594 254.478 198.327 254.48H148.822C148.475 254.48 148.131 254.547 147.81 254.68C147.489 254.812 147.198 255.006 146.952 255.251C146.706 255.495 146.511 255.786 146.378 256.106C146.245 256.427 146.176 256.77 146.176 257.117V257.117ZM167.558 283.965C167.572 282.424 168.195 280.952 169.29 279.868C170.386 278.784 171.865 278.175 173.407 278.175C174.949 278.175 176.428 278.784 177.524 279.868C178.619 280.952 179.241 282.424 179.256 283.965V293.031C179.248 294.576 178.628 296.054 177.532 297.144C176.436 298.233 174.953 298.845 173.407 298.845C171.861 298.845 170.378 298.233 169.282 297.144C168.186 296.054 167.566 294.576 167.558 293.031V283.965Z" fill="#2F383C"/>
<path d="M146.008 332.755V340.29C146.009 340.68 146.165 341.054 146.44 341.331C146.716 341.608 147.089 341.765 147.48 341.768H199.662C200.053 341.766 200.427 341.609 200.703 341.332C200.979 341.056 201.134 340.681 201.134 340.29V332.755H146.008Z" fill="#4E5E64"/>
<path d="M59.9832 139.392V282.06C59.9846 283.878 60.7081 285.621 61.9949 286.907C63.2817 288.193 65.0265 288.916 66.8462 288.917H278.458C280.277 288.916 282.022 288.193 283.309 286.907C284.596 285.621 285.319 283.878 285.321 282.06V139.392C285.316 137.576 284.592 135.835 283.305 134.551C282.019 133.268 280.276 132.546 278.458 132.543H66.8462C65.0281 132.546 63.2849 133.268 61.9985 134.551C60.7122 135.835 59.9875 137.576 59.9832 139.392Z" fill="#4E5E64"/>
<path d="M64.9475 141.168V280.3C64.9492 281.272 65.3362 282.203 66.0237 282.89C66.7112 283.577 67.6432 283.963 68.6154 283.965H276.696C277.668 283.963 278.6 283.577 279.288 282.89C279.975 282.203 280.362 281.272 280.364 280.3V141.168C280.364 140.195 279.978 139.262 279.29 138.574C278.602 137.885 277.67 137.497 276.696 137.495H68.6154C67.642 137.497 66.7091 137.885 66.0215 138.574C65.3338 139.262 64.9476 140.195 64.9475 141.168Z" fill="#E6E6E6"/>
<path d="M103.564 341.258C103.775 341.523 104.045 341.737 104.351 341.883C104.658 342.03 104.993 342.105 105.333 342.103H229.127C229.466 342.103 229.8 342.027 230.106 341.881C230.411 341.736 230.68 341.524 230.894 341.261C231.107 340.998 231.259 340.691 231.339 340.363C231.418 340.034 231.423 339.692 231.354 339.36L229.432 330.241C229.353 329.869 229.181 329.523 228.933 329.234C228.686 328.945 228.37 328.723 228.014 328.588C227.757 328.487 227.482 328.435 227.206 328.435H107.247C106.97 328.435 106.696 328.487 106.439 328.588C106.083 328.723 105.767 328.945 105.519 329.234C105.271 329.523 105.1 329.869 105.02 330.241L103.099 339.36C103.03 339.691 103.036 340.033 103.117 340.361C103.197 340.69 103.35 340.996 103.564 341.258Z" fill="#2F383C"/>
<path d="M269.943 156.662H75.243C75.0406 156.657 74.848 156.574 74.7065 156.429C74.565 156.284 74.4857 156.09 74.4857 155.888C74.4857 155.686 74.565 155.492 74.7065 155.347C74.848 155.202 75.0406 155.119 75.243 155.114H269.943C270.146 155.119 270.338 155.202 270.48 155.347C270.621 155.492 270.7 155.686 270.7 155.888C270.7 156.09 270.621 156.284 270.48 156.429C270.338 156.574 270.146 156.657 269.943 156.662V156.662Z" fill="#4E5E64"/>
<path d="M88.4964 151.165C91.0025 151.165 93.034 149.09 93.034 146.53C93.034 143.971 91.0025 141.896 88.4964 141.896C85.9904 141.896 83.9589 143.971 83.9589 146.53C83.9589 149.09 85.9904 151.165 88.4964 151.165Z" fill="#4E5E64"/>
<path d="M104.172 151.165C106.678 151.165 108.709 149.09 108.709 146.53C108.709 143.971 106.678 141.896 104.172 141.896C101.666 141.896 99.6342 143.971 99.6342 146.53C99.6342 149.09 101.666 151.165 104.172 151.165Z" fill="#4E5E64"/>
<path d="M119.847 151.165C122.353 151.165 124.385 149.09 124.385 146.53C124.385 143.971 122.353 141.896 119.847 141.896C117.341 141.896 115.309 143.971 115.309 146.53C115.309 149.09 117.341 151.165 119.847 151.165Z" fill="#4E5E64"/>
<path d="M260.504 143.042H249.371C249.151 143.047 248.941 143.138 248.787 143.295C248.634 143.453 248.547 143.664 248.547 143.884C248.547 144.104 248.634 144.315 248.787 144.472C248.941 144.629 249.151 144.72 249.371 144.726H260.504C260.726 144.722 260.937 144.632 261.092 144.475C261.248 144.317 261.335 144.105 261.335 143.884C261.335 143.662 261.248 143.45 261.092 143.293C260.937 143.135 260.726 143.045 260.504 143.042Z" fill="#4E5E64"/>
<path d="M260.504 146.204H249.371C249.15 146.208 248.941 146.299 248.787 146.457C248.633 146.614 248.547 146.825 248.547 147.045C248.547 147.266 248.633 147.477 248.787 147.634C248.941 147.792 249.15 147.882 249.371 147.887H260.504C260.726 147.885 260.938 147.795 261.093 147.637C261.249 147.48 261.337 147.267 261.337 147.045C261.337 146.824 261.249 146.611 261.093 146.454C260.938 146.296 260.726 146.206 260.504 146.204V146.204Z" fill="#4E5E64"/>
<path d="M260.504 149.365H249.371C249.151 149.37 248.941 149.461 248.787 149.619C248.634 149.776 248.547 149.987 248.547 150.207C248.547 150.427 248.634 150.638 248.787 150.796C248.941 150.953 249.151 151.044 249.371 151.049H260.504C260.726 151.046 260.937 150.956 261.092 150.798C261.248 150.641 261.335 150.428 261.335 150.207C261.335 149.986 261.248 149.774 261.092 149.616C260.937 149.458 260.726 149.368 260.504 149.365V149.365Z" fill="#4E5E64"/>
<path d="M528.911 336.062C529.247 337.039 529.884 337.885 530.731 338.478C531.578 339.071 532.591 339.38 533.626 339.362L553.827 338.842C554.869 338.822 555.876 338.465 556.698 337.826C557.52 337.186 558.113 336.298 558.388 335.294L561.247 304.753C562.261 305.212 563.365 305.439 564.479 305.416C565.446 305.392 566.399 305.178 567.283 304.785C568.167 304.393 568.966 303.831 569.632 303.13C570.299 302.43 570.821 301.605 571.169 300.703C571.516 299.801 571.683 298.839 571.659 297.873C571.634 296.907 571.42 295.955 571.027 295.071C570.635 294.188 570.072 293.39 569.371 292.724C568.67 292.058 567.844 291.536 566.941 291.189C566.038 290.842 565.076 290.675 564.109 290.7C563.664 290.698 563.22 290.744 562.785 290.837C562.312 290.326 561.736 289.919 561.096 289.643C560.456 289.367 559.765 289.228 559.068 289.235L527.993 290.037C527.735 290.046 527.479 290.078 527.227 290.132C526.545 290.259 525.899 290.53 525.331 290.927C524.763 291.325 524.287 291.839 523.935 292.436C523.583 293.032 523.363 293.697 523.29 294.386C523.217 295.075 523.292 295.771 523.511 296.428L528.911 336.062ZM561.833 302.679L563.867 295.401C564.099 294.56 564.104 293.674 563.883 292.83C563.982 292.83 564.069 292.783 564.167 292.783C565.562 292.754 566.911 293.279 567.919 294.243C568.927 295.206 569.512 296.53 569.545 297.923C569.577 299.317 569.055 300.666 568.094 301.676C567.132 302.686 565.809 303.273 564.414 303.31C563.512 303.338 562.62 303.12 561.833 302.679Z" fill="#2F383C"/>
<path d="M527.227 290.132C527.889 293.914 535.332 296.572 544.282 296.11C552.512 295.731 559.241 292.844 560.474 289.422C560.018 289.287 559.544 289.224 559.068 289.235L527.993 290.037C527.735 290.046 527.479 290.078 527.227 290.132V290.132Z" fill="#4E5E64"/>
<path d="M545.922 319.279C545.963 319.269 546.002 319.252 546.037 319.229L550.425 316.36C550.478 316.325 550.521 316.278 550.551 316.222C550.581 316.167 550.597 316.104 550.597 316.041C550.597 315.978 550.582 315.916 550.551 315.86C550.521 315.804 550.478 315.757 550.425 315.723L545.865 312.739C545.823 312.711 545.776 312.692 545.727 312.682C545.678 312.673 545.627 312.673 545.578 312.683C545.529 312.693 545.482 312.713 545.44 312.741C545.399 312.769 545.363 312.805 545.336 312.847C545.308 312.889 545.289 312.936 545.28 312.986C545.271 313.035 545.271 313.085 545.282 313.135C545.292 313.184 545.312 313.23 545.34 313.271C545.369 313.313 545.405 313.348 545.447 313.375L549.52 316.041L545.62 318.591C545.544 318.641 545.489 318.715 545.463 318.802C545.438 318.888 545.443 318.981 545.48 319.063C545.516 319.146 545.58 319.213 545.661 319.252C545.742 319.292 545.835 319.301 545.922 319.279H545.922Z" fill="#D4DBDD"/>
<path d="M538.993 319.599C539.067 319.58 539.133 319.54 539.184 319.483C539.234 319.427 539.267 319.356 539.277 319.281C539.288 319.206 539.275 319.129 539.242 319.061C539.208 318.993 539.155 318.937 539.089 318.899L535.045 316.582L538.954 313.682C538.994 313.652 539.028 313.615 539.054 313.572C539.079 313.529 539.096 313.481 539.104 313.432C539.111 313.382 539.108 313.332 539.096 313.283C539.084 313.235 539.062 313.189 539.032 313.149C539.003 313.109 538.965 313.075 538.922 313.05C538.879 313.024 538.832 313.007 538.782 313C538.733 312.992 538.682 312.995 538.634 313.007C538.585 313.019 538.54 313.041 538.499 313.071L534.123 316.318C534.073 316.356 534.032 316.406 534.005 316.463C533.978 316.52 533.966 316.583 533.97 316.646C533.974 316.71 533.993 316.771 534.026 316.825C534.06 316.878 534.106 316.923 534.161 316.954L538.71 319.56C538.796 319.609 538.897 319.623 538.993 319.599V319.599Z" fill="#D4DBDD"/>
<path d="M545.486 321.793C545.523 321.784 545.558 321.769 545.59 321.749C545.633 321.723 545.671 321.689 545.7 321.649C545.73 321.608 545.751 321.563 545.763 321.514C545.775 321.465 545.777 321.415 545.769 321.365C545.762 321.316 545.744 321.269 545.718 321.226L539.499 311.01C539.446 310.924 539.362 310.863 539.263 310.839C539.165 310.815 539.062 310.831 538.975 310.884C538.889 310.936 538.827 311.021 538.803 311.119C538.779 311.217 538.795 311.321 538.848 311.407L545.067 321.622C545.109 321.692 545.173 321.746 545.248 321.777C545.324 321.808 545.407 321.813 545.486 321.793Z" fill="#D4DBDD"/>
<path d="M195.856 198.716H162.158C160.783 198.716 159.669 199.83 159.669 201.203V204.493C159.669 205.866 160.783 206.979 162.158 206.979H195.856C197.231 206.979 198.346 205.866 198.346 204.493V201.203C198.346 199.83 197.231 198.716 195.856 198.716Z" fill="#D4DBDD"/>
<path d="M215.499 215.242H142.516C141.141 215.242 140.026 216.356 140.026 217.729V221.019C140.026 222.392 141.141 223.505 142.516 223.505H215.499C216.874 223.505 217.988 222.392 217.988 221.019V217.729C217.988 216.356 216.874 215.242 215.499 215.242Z" fill="#E6E6E6"/>
<path d="M215.499 231.768H142.516C141.141 231.768 140.026 232.882 140.026 234.255V237.545C140.026 238.918 141.141 240.031 142.516 240.031H215.499C216.874 240.031 217.988 238.918 217.988 237.545V234.255C217.988 232.882 216.874 231.768 215.499 231.768Z" fill="#E6E6E6"/>
<path d="M221.686 287.108L221.851 287.629L221.86 287.646L226.835 302.76L232.56 320.178L243.329 352.908L243.433 357.993V358.01L244.234 398.911L242.015 404.456L244.512 413.547C244.512 413.547 243.364 399.805 237.205 407.696C233.716 412.181 229.637 416.77 226.287 421.072C231.168 423.045 236.126 424.83 241.163 426.426C242.25 426.774 243.346 427.104 244.442 427.434C244.677 427.504 244.912 427.573 245.147 427.643C261.843 432.576 279.104 435.348 296.506 435.891C297.411 435.917 298.298 435.934 299.16 435.951C299.464 435.96 299.76 435.969 300.056 435.969C301.03 435.977 301.995 435.986 302.97 435.986C304.936 435.986 306.893 435.957 308.842 435.899C323.264 435.493 337.603 433.556 351.615 430.12C351.519 424.34 351.258 417.587 350.884 410.373C350.71 406.836 346.804 403.003 346.569 399.301C346.404 396.52 349.91 393.904 349.727 391.079C348.544 373.688 347.065 380.364 345.969 368.048C345.856 366.84 345.752 365.684 345.656 364.581C344.951 356.672 344.464 351.726 344.464 351.726L349.144 322.255L356.495 275.983L355.93 275.053L355.295 274.74L316.523 255.567L314.418 250.179C313.804 248.627 312.74 247.293 311.362 246.35C309.984 245.406 308.355 244.897 306.684 244.886L281.144 244.782C279.818 244.776 278.511 245.086 277.329 245.686C276.147 246.286 275.126 247.159 274.35 248.232L267.434 257.801L221.686 287.108Z" fill="#4E5E64"/>
<path d="M249.218 345.625L243.433 357.993L239.484 366.441L232.69 401.979L229.289 405.586L226.375 392.817L195.874 399.583C194.873 394.03 195.606 399.771 194.988 393.679C195.162 393.505 195.345 393.331 195.528 393.157C196.015 392.705 196.424 392.279 196.415 391.871C196.067 370.856 197.111 335.092 205.827 313.424C207.192 309.887 208.992 306.532 211.186 303.438C211.36 303.204 211.525 302.969 211.691 302.734C215.709 297.111 218.25 291.575 221.851 287.638V287.629C221.873 287.611 221.894 287.591 221.912 287.568C221.925 287.562 221.937 287.553 221.947 287.542L246.687 274.436L247.748 304.229L248.505 325.644L249.218 345.625Z" fill="#4E5E64"/>
<path d="M338.427 349.138L345.653 364.585L348.175 369.964L354.967 405.499L358.357 409.097L361.278 396.332L362.65 396.051L387.402 390.929L394.616 413.821C396.242 411.114 396.883 407.929 396.43 404.805C395.977 401.681 394.458 398.809 392.129 396.674C391.637 396.229 391.226 395.795 391.238 395.385C391.648 370.668 390.135 325.534 376.469 306.958C372.129 301.063 369.525 295.191 365.736 291.089C365.724 291.077 365.724 291.066 365.712 291.066L356.492 275.982L355.929 275.056L355.295 274.74L338.427 349.138Z" fill="#4E5E64"/>
<path d="M294.652 237.52C313.418 237.52 328.63 222.321 328.63 203.572C328.63 184.823 313.418 169.625 294.652 169.625C275.886 169.625 260.673 184.823 260.673 203.572C260.673 222.321 275.886 237.52 294.652 237.52Z" fill="#FFC699"/>
<path d="M340.578 179.86C340.314 179.579 339.997 179.354 339.645 179.198C339.292 179.042 338.912 178.959 338.526 178.953L339.037 177.536C339.204 177.09 339.249 176.607 339.168 176.138C339.086 175.668 338.882 175.229 338.574 174.865C338.267 174.5 337.868 174.224 337.419 174.064C336.97 173.904 336.486 173.867 336.018 173.955L334.157 174.313L334.332 173.072C334.4 172.609 334.345 172.137 334.174 171.702C334.004 171.267 333.723 170.884 333.359 170.59C332.995 170.296 332.561 170.102 332.099 170.027C331.637 169.952 331.164 169.998 330.725 170.161C330.327 170.318 329.898 170.384 329.47 170.353C329.043 170.323 328.627 170.198 328.255 169.986C327.881 169.781 327.556 169.497 327.303 169.153C327.05 168.81 326.875 168.415 326.791 167.998L326.142 164.874L326.074 164.706C322.917 159.449 316.847 155.625 309.419 154.223C302.808 152.966 296.029 153.606 289.494 154.208C286.901 154.451 283.973 154.726 281.532 156.219C279.458 157.499 277.704 160.059 278.063 162.642C271.619 160.668 264.71 164.607 261.286 169.575C257.23 175.487 256.566 182.892 256.459 188.682C256.17 202.381 258.999 213.588 264.848 221.999C265.275 222.608 265.381 223.881 266.228 224.307L266.052 224.025C266.998 224.498 267.959 225.26 267.6 226.075C266.571 228.421 273.411 233.61 278.231 235.324C287.023 238.455 298.713 238.189 306.933 237.061L307.223 235.118C310.19 234.715 312.279 233.945 312.866 232.741C313.903 231.857 314.788 231.065 315.558 230.334L315.566 230.326C315.581 230.311 315.611 230.288 315.627 230.273C319.34 226.715 320.202 224.688 320.591 221.603C320.965 218.578 320.301 215.508 319.623 212.742C333.913 214.952 313.995 197.535 327.309 194.168C327.462 194.121 327.617 194.083 327.774 194.054C328.163 193.962 328.552 193.871 328.926 193.764C330.727 193.276 332.452 192.54 334.05 191.577C337.772 189.315 338.999 186.313 340.921 182.93C341.198 182.449 341.314 181.891 341.253 181.339C341.191 180.787 340.955 180.269 340.578 179.86V179.86Z" fill="#2F383C"/>
<path d="M414.828 351.555C414.821 352.888 414.806 354.755 414.745 357.063C414.737 357.383 414.729 357.711 414.722 358.046C414.623 362.29 414.523 365.848 414.363 369.802C414.356 370.076 414.348 370.343 414.333 370.617C414.119 376.133 413.784 382.555 413.204 392.726C412.129 411.514 410.253 395.309 408.37 401.899C408.278 402.227 408.179 402.615 408.087 403.073C407.802 404.731 407.321 406.35 406.654 407.895C405.655 408.489 404.625 409.061 403.611 409.632C400.721 411.24 397.785 412.786 394.826 414.257C393.164 415.08 391.494 415.887 389.816 416.664C389.55 416.786 389.29 416.908 389.031 417.022C380.44 420.992 371.586 424.368 362.532 427.125C360.763 427.658 359.001 428.176 357.217 428.656C355.356 429.174 353.496 429.662 351.612 430.119C337.6 433.556 323.262 435.494 308.84 435.902C306.895 435.962 304.936 435.985 302.968 435.985C301.992 435.985 301.031 435.978 300.055 435.97C299.758 435.97 299.46 435.963 299.163 435.955C298.301 435.932 297.409 435.917 296.509 435.894C279.107 435.352 261.846 432.579 245.151 427.643L244.441 427.437C243.343 427.102 242.253 426.774 241.162 426.424C236.129 424.832 231.17 423.049 226.285 421.076C222.556 419.575 218.87 417.965 215.228 416.245C215.194 416.236 215.163 416.221 215.136 416.2C214.374 415.849 213.603 415.483 212.841 415.11C212.742 415.057 212.635 415.003 212.528 414.95C209.684 413.564 206.87 412.111 204.087 410.592C201.745 405.221 198.451 404.192 196.408 399.469C195.813 398.066 195.383 396.598 195.126 395.096C195.126 395.081 195.119 395.065 195.119 395.042C195.332 397.877 194.211 390.014 195.111 395.012C195.104 394.921 195.096 394.821 195.088 394.707C195.065 394.433 195.035 394.098 194.989 393.679C192.374 368.164 192.541 338.984 191.405 314.939C191.329 313.385 191.25 311.897 191.169 310.475C191.146 310.002 191.115 309.538 191.085 309.081C191.138 308.944 191.199 308.799 191.268 308.662C191.282 308.622 191.3 308.584 191.321 308.547C191.344 308.5 191.369 308.454 191.397 308.41C191.413 308.387 191.436 308.357 191.451 308.334C191.462 308.308 191.475 308.282 191.489 308.258C191.558 308.151 191.634 308.037 191.718 307.93C191.756 307.885 191.786 307.846 191.825 307.808C191.851 307.769 191.882 307.734 191.916 307.702C191.939 307.665 191.968 307.632 192 307.603C192.03 307.572 192.061 307.534 192.099 307.496C192.115 307.472 192.136 307.451 192.16 307.435C192.22 307.366 192.287 307.302 192.358 307.245C192.63 306.994 192.921 306.765 193.228 306.559C193.334 306.49 193.449 306.422 193.556 306.346C194.324 305.886 195.133 305.499 195.973 305.188C196.263 305.081 196.552 304.982 196.865 304.875C196.979 304.845 197.086 304.807 197.201 304.768C197.368 304.715 197.536 304.662 197.712 304.624C198.581 304.365 199.519 304.144 200.533 303.938C200.655 303.915 200.785 303.892 200.914 303.862C201.097 303.824 201.288 303.793 201.479 303.763C201.738 303.717 202.005 303.671 202.272 303.626C204.536 303.268 207.106 303.001 209.943 302.826C210.21 302.81 210.477 302.795 210.744 302.78C211.056 302.765 211.369 302.75 211.689 302.734C211.956 302.719 212.231 302.711 212.505 302.704C212.772 302.689 213.047 302.681 213.329 302.673C214.099 302.65 214.892 302.628 215.7 302.612C218.003 302.567 220.428 302.582 222.975 302.635C224.157 302.666 225.362 302.696 226.597 302.75C226.681 302.75 226.758 302.757 226.834 302.757C227.909 302.795 228.992 302.841 230.105 302.902C230.883 302.94 231.668 302.978 232.454 303.024C233.194 303.07 233.941 303.115 234.696 303.169C235.283 303.199 235.87 303.245 236.465 303.283C236.968 303.321 237.472 303.359 237.975 303.39L238.661 303.435C239.035 303.466 239.408 303.489 239.79 303.527C240.629 303.595 241.467 303.664 242.321 303.732C243.168 303.809 244.03 303.885 244.891 303.961C245.753 304.037 246.622 304.121 247.492 304.205C247.583 304.212 247.667 304.22 247.751 304.228C248.544 304.311 249.337 304.388 250.138 304.471C250.321 304.487 250.511 304.502 250.694 304.525C251.458 304.601 252.236 304.691 253.006 304.773C253.243 304.798 253.478 304.823 253.715 304.849C254.319 304.915 254.914 304.971 255.521 305.043C256.322 305.134 257.138 305.218 257.931 305.325C258.549 305.393 259.166 305.462 259.784 305.538C260.753 305.652 261.736 305.774 262.72 305.904C263.094 305.949 263.467 305.995 263.841 306.048C266.647 306.399 269.484 306.787 272.366 307.191C276.736 307.808 281.174 308.479 285.643 309.203C290.119 309.926 294.621 310.691 299.148 311.496C300.291 311.702 301.435 311.907 302.587 312.121C303.105 312.22 303.624 312.319 304.142 312.418C305.027 312.578 305.911 312.745 306.796 312.913C307.681 313.08 308.565 313.248 309.45 313.423C310.502 313.629 311.562 313.835 312.614 314.04C319.546 315.412 326.44 316.875 333.166 318.406C334.271 318.657 335.377 318.916 336.475 319.168C338.671 319.678 340.847 320.196 343.003 320.722C343.597 320.859 344.185 321.004 344.772 321.149C346.236 321.514 347.7 321.88 349.141 322.253L349.393 322.322C350.453 322.581 351.49 322.848 352.527 323.122C354.975 323.762 357.382 324.409 359.748 325.065C361.319 325.499 362.872 325.938 364.408 326.383C366.703 327.046 368.953 327.716 371.141 328.394C371.683 328.562 372.224 328.729 372.758 328.889C374.359 329.384 375.938 329.887 377.47 330.39C378.691 330.786 379.88 331.19 381.054 331.594C382.229 331.998 383.38 332.401 384.509 332.805C385.233 333.064 385.95 333.339 386.667 333.598C387.696 333.979 388.711 334.36 389.702 334.74C390.007 334.855 390.304 334.977 390.602 335.091C390.792 335.175 390.975 335.243 391.158 335.319C391.517 335.464 391.883 335.601 392.234 335.746C392.592 335.883 392.943 336.028 393.294 336.18C393.637 336.317 393.988 336.462 394.323 336.607C394.666 336.744 395.002 336.889 395.337 337.041C395.619 337.156 395.894 337.277 396.161 337.399C396.702 337.636 397.244 337.872 397.77 338.116C398.029 338.237 398.288 338.352 398.548 338.474L399.142 338.748C399.226 338.794 399.31 338.832 399.394 338.87C399.585 338.961 399.783 339.06 399.974 339.152C400.416 339.357 400.851 339.578 401.278 339.784C401.85 340.074 402.406 340.363 402.94 340.645C403.481 340.934 404.008 341.224 404.511 341.506C404.595 341.552 404.671 341.597 404.755 341.643C404.869 341.704 404.984 341.772 405.098 341.833C405.487 342.054 405.861 342.283 406.234 342.504C406.966 342.953 407.66 343.395 408.308 343.837C408.453 343.936 408.591 344.035 408.736 344.127C409.216 344.469 409.673 344.805 410.101 345.148C410.101 345.155 410.101 345.155 410.108 345.155C410.253 345.262 410.39 345.376 410.528 345.483C410.642 345.589 410.764 345.681 410.878 345.788C411.275 346.13 411.641 346.458 411.976 346.793C412.089 346.897 412.196 347.006 412.297 347.121C412.341 347.158 412.382 347.198 412.419 347.243C412.571 347.395 412.708 347.547 412.838 347.7C412.858 347.721 412.876 347.744 412.891 347.768C413.075 347.982 413.242 348.195 413.402 348.408C413.479 348.515 413.563 348.622 413.631 348.728C413.723 348.858 413.814 348.995 413.89 349.125C413.959 349.231 414.02 349.345 414.081 349.452C414.243 349.727 414.381 350.015 414.493 350.313C414.579 350.515 414.647 350.724 414.699 350.938C414.757 351.14 414.8 351.346 414.828 351.555V351.555Z" fill="#2F383C"/>
<path opacity="0.2" d="M414.829 351.555C414.821 352.888 414.806 354.755 414.745 357.063C414.737 357.383 414.722 357.711 414.714 358.046C414.638 361.284 414.523 365.284 414.363 369.802C414.356 370.076 414.348 370.343 414.333 370.617C414.119 376.133 413.784 382.555 413.204 392.726C412.129 411.514 410.253 395.309 408.37 401.899C403.138 398.684 397.404 395.317 391.273 391.858C390.167 391.233 389.051 390.606 387.925 389.976C375.663 383.142 361.968 375.98 347.67 368.887C347.105 368.606 346.533 368.324 345.969 368.049C313.217 351.875 277.468 336.142 248.506 325.644C242.916 323.617 237.578 321.789 232.561 320.181C221.991 316.806 212.856 314.444 205.825 313.423C198.505 312.357 193.449 312.738 191.405 314.939C191.329 313.385 191.25 311.897 191.169 310.475C191.138 310.002 191.108 309.538 191.077 309.081C191.124 308.955 191.185 308.836 191.245 308.715C191.253 308.697 191.259 308.679 191.268 308.662C191.282 308.622 191.3 308.584 191.321 308.547C191.344 308.5 191.369 308.454 191.397 308.41C191.422 308.356 191.453 308.305 191.489 308.258C191.558 308.151 191.634 308.037 191.718 307.93C191.779 307.85 191.846 307.774 191.916 307.702C191.939 307.665 191.968 307.632 192 307.603C192.03 307.572 192.061 307.534 192.099 307.496C192.115 307.472 192.136 307.451 192.16 307.435C192.22 307.366 192.287 307.302 192.358 307.245C192.63 306.994 192.921 306.765 193.228 306.559C193.334 306.49 193.449 306.422 193.555 306.345C194.324 305.886 195.133 305.499 195.973 305.187C196.263 305.081 196.552 304.982 196.865 304.875C196.979 304.845 197.086 304.807 197.201 304.768C197.368 304.715 197.536 304.662 197.711 304.624C198.581 304.365 199.519 304.144 200.533 303.938C200.838 303.877 201.158 303.816 201.479 303.763C201.738 303.717 202.005 303.671 202.272 303.626C204.536 303.268 207.106 303.001 209.943 302.826C210.21 302.81 210.477 302.795 210.744 302.78C211.056 302.765 211.369 302.749 211.689 302.734C211.956 302.719 212.231 302.711 212.505 302.704C212.772 302.689 213.047 302.681 213.329 302.673C214.099 302.65 214.892 302.628 215.7 302.612C218.003 302.574 220.428 302.589 222.975 302.643C224.157 302.666 225.362 302.704 226.597 302.757C226.674 302.757 226.758 302.765 226.834 302.765C227.909 302.795 228.999 302.849 230.105 302.902C230.883 302.94 231.668 302.978 232.454 303.024C233.193 303.069 233.941 303.115 234.696 303.169C235.283 303.199 235.87 303.245 236.465 303.283C236.968 303.321 237.471 303.359 237.975 303.389C238.577 303.435 239.18 303.481 239.79 303.527C240.628 303.595 241.467 303.664 242.321 303.732C243.168 303.808 244.03 303.885 244.891 303.961C245.753 304.037 246.622 304.121 247.492 304.205C247.583 304.212 247.667 304.22 247.751 304.228C248.544 304.311 249.337 304.388 250.138 304.471C254.576 304.921 259.144 305.447 263.841 306.048C266.647 306.406 269.489 306.79 272.366 307.199C276.736 307.816 281.174 308.486 285.643 309.203C290.119 309.926 294.621 310.691 299.148 311.496C300.291 311.701 301.435 311.907 302.587 312.12C303.99 312.379 305.393 312.644 306.796 312.913C307.681 313.08 308.565 313.248 309.45 313.423C310.502 313.629 311.562 313.835 312.614 314.04C319.546 315.412 326.44 316.875 333.166 318.406C334.271 318.657 335.377 318.916 336.475 319.168C338.671 319.678 340.847 320.196 343.003 320.722C343.597 320.867 344.185 321.011 344.772 321.156C346.244 321.522 347.7 321.888 349.141 322.253V322.261C349.225 322.276 349.309 322.299 349.393 322.322C350.445 322.589 351.49 322.855 352.527 323.13C354.975 323.769 357.382 324.415 359.749 325.065C361.319 325.506 362.875 325.941 364.408 326.383C366.703 327.053 368.953 327.724 371.141 328.394C371.683 328.562 372.224 328.729 372.758 328.889C374.359 329.392 375.93 329.892 377.47 330.39C378.691 330.786 379.88 331.19 381.055 331.594C382.229 331.998 383.38 332.401 384.509 332.805C385.241 333.064 385.958 333.331 386.667 333.59C387.704 333.971 388.711 334.352 389.702 334.74C390.007 334.855 390.304 334.977 390.602 335.091C391.158 335.304 391.7 335.525 392.234 335.746C392.592 335.883 392.943 336.028 393.294 336.18C393.637 336.317 393.988 336.462 394.323 336.607C394.666 336.744 395.002 336.889 395.337 337.041C395.619 337.156 395.894 337.277 396.161 337.399C396.702 337.636 397.244 337.872 397.77 338.115C398.029 338.237 398.288 338.352 398.548 338.474L399.143 338.748C399.226 338.794 399.31 338.832 399.394 338.87C400.042 339.174 400.668 339.479 401.278 339.784C401.85 340.073 402.406 340.363 402.94 340.645C403.573 340.98 404.175 341.308 404.755 341.643C404.869 341.704 404.984 341.772 405.098 341.833C405.487 342.054 405.861 342.283 406.234 342.504C406.966 342.953 407.66 343.395 408.309 343.837C408.949 344.279 409.544 344.713 410.101 345.148C410.101 345.155 410.101 345.155 410.108 345.155C410.375 345.368 410.634 345.582 410.878 345.787C411.275 346.13 411.641 346.458 411.976 346.793C412.089 346.897 412.196 347.006 412.297 347.121C412.341 347.157 412.382 347.198 412.419 347.243C412.579 347.418 412.739 347.593 412.892 347.768C413.075 347.982 413.242 348.195 413.403 348.408C413.479 348.515 413.563 348.622 413.631 348.728C413.723 348.858 413.814 348.995 413.891 349.124C413.959 349.231 414.02 349.345 414.081 349.452C414.243 349.727 414.381 350.015 414.493 350.313C414.576 350.516 414.645 350.725 414.699 350.938C414.757 351.14 414.8 351.346 414.829 351.555V351.555Z" fill="black"/>
</g>
<defs>
<clipPath id="clip0_38_215">
<rect width="600" height="435.986" fill="white"/>
</clipPath>
</defs>
</svg>
