<svg width="600" height="600" viewBox="0 0 600 600" fill="none" xmlns="http://www.w3.org/2000/svg">
<path d="M212.31 450.3C217.311 448.529 222.435 447.125 227.64 446.1L228.27 448.41C228.34 448.682 228.506 448.92 228.738 449.08C228.969 449.24 229.25 449.311 229.53 449.28L250.14 446.88C255.81 433.95 266.22 414.36 266.37 414.06C266.22 409.17 266.37 405.06 266.37 400.38C254.58 404.76 232.77 413.07 221.37 418.38C221.112 418.546 220.913 418.789 220.8 419.074C220.687 419.359 220.666 419.672 220.74 419.97C220.74 419.97 220.95 420.72 221.22 421.8C215.64 421.8 198.93 420.99 194.91 424.8C194.285 425.671 193.978 426.73 194.04 427.8C193.8 431.94 195.87 464.1 199.17 473.55C200.88 478.5 204.48 477.96 206.94 473.22C209.787 466.082 211.615 458.578 212.37 450.93C212.37 450.54 212.28 450.57 212.31 450.3V450.3ZM208.86 423.45C212.52 423.15 213.66 423.21 221.52 422.97C222.93 428.31 225.84 439.29 227.34 444.9C222.047 445.72 216.823 446.933 211.71 448.53C210.117 440.256 209.164 431.871 208.86 423.45Z" fill="#E2E7E9"/>
<path d="M488.43 160.89C489.18 159.84 488.22 158.49 487.41 157.44C489.704 155.08 492.249 152.978 495 151.17C499.642 148.857 503.885 145.819 507.57 142.17C509.1 140.58 511.98 137.31 510.9 135.39C509.82 133.47 507.9 133.35 505.29 134.46C506.421 133.273 507.344 131.904 508.02 130.41C508.86 128.07 506.88 126.18 502.59 127.92C504.15 125.43 504.51 122.82 501.87 121.56C499.74 120.54 496.62 122.97 494.82 124.56C491.285 127.648 487.968 130.976 484.89 134.52C483 130.56 480 126 476.25 127.44C472.5 128.88 475.41 135.33 477.33 138.84L470.52 143.55C469.491 142.994 468.328 142.735 467.16 142.8C459.42 144.12 423.87 171.18 420.27 171.18C417.51 171.18 378.09 152.28 344.01 146.82C343.944 146.616 343.822 146.434 343.657 146.296C343.493 146.158 343.293 146.069 343.08 146.04C337.136 145.026 331.109 144.574 325.08 144.69C324.897 144.702 324.719 144.754 324.559 144.842C324.398 144.93 324.259 145.053 324.15 145.2H321.63C321.03 142.77 318.81 137.16 318.03 135C320.07 133.23 322.89 132.33 324.36 129.48C327.06 124.2 326.94 115.02 326.19 109.14C329.58 106.56 329.67 102.42 328.89 98.19C328.59 96.48 327.66 92.61 326.22 91.65C325.41 91.11 323.7 91.65 322.23 92.19C320.76 88.77 320.76 90.33 321.36 88.95C321.639 88.314 321.801 87.6333 321.84 86.94C323.43 87.42 326.73 84.24 325.59 80.04C324.993 78.5365 324.26 77.0905 323.4 75.72C323.82 74.7 324.72 73.47 321.9 69.72C320.686 68.4099 319.109 67.4909 317.37 67.08H315.99C314.995 65.6348 313.533 64.5756 311.85 64.08C309.309 63.4321 306.615 63.8093 304.35 65.13C303.75 65.58 303.27 66.18 302.67 66.6C301.314 65.7763 299.757 65.3407 298.17 65.3407C296.583 65.3407 295.026 65.7763 293.67 66.6C292.876 66.9116 292.153 67.3805 291.545 67.9785C290.936 68.5765 290.455 69.2914 290.13 70.08C288.66 69.5728 287.101 69.3776 285.551 69.5067C284.001 69.6359 282.496 70.0865 281.13 70.83C275.947 73.6402 272.071 78.3675 270.33 84C270.282 84.8493 270.282 85.7007 270.33 86.55H270C265.5 85.89 259.77 96.57 264.36 104.88C264.9 105.87 265.59 106.8 266.25 107.88C268.17 110.88 267.42 111.78 271.71 115.44C272.97 116.52 273.18 116.43 273.96 117.09C274.74 117.75 274.44 117.42 274.89 119.1C275.135 120.09 275.575 121.021 276.182 121.84C276.79 122.658 277.554 123.349 278.43 123.87C278.749 126.804 280 129.559 282 131.73C282.633 132.439 283.372 133.046 284.19 133.53C284.411 133.654 284.657 133.726 284.91 133.74C285.81 139.32 286.92 146.58 287.4 149.67L284.73 151.11C281.237 152.516 277.839 154.149 274.56 156C274.303 156.178 274.121 156.445 274.05 156.75C270.87 158.43 267.87 160.02 266.16 161.04C242.34 175.17 174.69 268.32 174 272.58C173.924 272.824 173.924 273.086 174 273.33C174.97 274.877 176.151 276.281 177.51 277.5C177.091 278.264 176.588 278.978 176.01 279.63C170.01 283.56 161.01 289.41 156.18 294.63C155.841 294.932 155.587 295.317 155.443 295.747C155.298 296.178 155.268 296.638 155.356 297.083C155.444 297.529 155.646 297.943 155.944 298.286C156.241 298.63 156.622 298.889 157.05 299.04C157.95 299.34 158.1 299.25 163.95 296.04C162.342 297.45 161.027 299.163 160.08 301.08C159.69 302.73 161.19 303.69 163.08 303.39C164.143 303.111 165.156 302.666 166.08 302.07C165.539 302.906 165.251 303.88 165.251 304.875C165.251 305.87 165.539 306.845 166.08 307.68C169.08 311.46 176.94 299.55 181.08 296.61C182.76 298.74 185.04 303.72 188.67 302.4C191.82 301.23 188.37 294.3 188.67 292.29C189.891 291.118 191.194 290.035 192.57 289.05C194.884 290.766 197.53 291.982 200.34 292.62C205.29 292.62 256.95 240.48 260.88 236.31C259.47 249.57 252.36 306.48 253.86 317.55C254.55 322.56 266.58 323.28 271.65 323.55C270.12 359.55 269.1 414.09 268.83 414.66C260.88 431.79 258.72 436.47 256.05 441.66C251.19 450.96 230.73 485.28 228.42 493.08C228.09 494.31 228.06 494.79 229.35 497.07C225.484 501.134 221.896 505.454 218.61 510C216.96 513 224.04 540.96 229.05 550.86C230.19 553.08 232.05 556.5 234.54 556.41C242.04 556.14 242.01 529.2 241.8 521.67C241.799 521.438 241.714 521.214 241.56 521.04C242.919 519.011 244.402 517.067 246 515.22C246.954 515.877 247.957 516.458 249 516.96C250.02 517.41 251.16 516.63 252 515.94C261.99 508.08 315.87 440.94 327.42 409.26C332.67 394.8 339.66 374.82 341.64 360.66C342.85 351.707 342.961 342.64 341.97 333.66C341.97 333.533 342.021 333.411 342.111 333.321C342.201 333.231 342.323 333.18 342.45 333.18C342.577 333.18 342.699 333.231 342.789 333.321C342.879 333.411 342.93 333.533 342.93 333.66C344.432 342.691 344.725 351.882 343.8 360.99C341.58 380.64 326.07 421.59 317.79 436.65C324.93 435.33 339.45 432.45 346.47 430.35C369.87 423.24 391.47 402.03 393.36 378.21C393.972 366.988 393.972 355.742 393.36 344.52C393.158 329.028 391.144 313.614 387.36 298.59C393.72 295.14 399.54 291.09 401.43 287.37C405.48 279.42 394.77 233.67 392.43 220.83C405.24 222.24 427.05 224.79 437.22 216.84C448.86 207.48 474 181.14 488.43 160.89V160.89ZM240.18 520.02C234.78 516.75 227.22 508.98 226.08 502.89C227.31 501.33 228.6 499.89 229.8 498.27C233.866 504.474 238.935 509.959 244.8 514.5C243.152 516.247 241.61 518.09 240.18 520.02V520.02ZM478.68 139.68C478.835 139.581 478.946 139.426 478.991 139.248C479.036 139.069 479.01 138.88 478.92 138.72C477.87 136.77 474.72 129.9 476.91 129.12C478.17 128.64 479.28 129.42 480.21 130.47C481.63 132.272 482.736 134.3 483.48 136.47C483.536 136.646 483.638 136.804 483.777 136.927C483.915 137.05 484.084 137.132 484.266 137.166C484.448 137.2 484.635 137.184 484.809 137.12C484.982 137.055 485.135 136.945 485.25 136.8C488.25 133.47 495.27 125.88 499.23 123.84C502.23 122.28 502.95 125.16 495.6 131.88C493.912 133.167 492.29 134.539 490.74 135.99C490.655 136.108 490.609 136.25 490.609 136.395C490.609 136.54 490.655 136.682 490.74 136.8C490.74 137.58 491.37 138.45 492.45 137.64C495.058 135.351 497.814 133.236 500.7 131.31C502.173 130.263 503.886 129.603 505.68 129.39C504.78 132.15 496.41 139.65 495.69 140.49C495.462 140.695 495.323 140.981 495.303 141.287C495.284 141.593 495.385 141.894 495.586 142.126C495.786 142.358 496.07 142.502 496.376 142.527C496.681 142.552 496.984 142.456 497.22 142.26C500.55 140.1 506.37 135.06 508.38 135.81C510.39 136.56 504.42 142.14 502.92 143.46C494.31 150.93 496.53 146.13 486.57 156.27C482.234 151.521 477.256 147.401 471.78 144.03L478.68 139.68ZM348.33 283.17C347.82 279.03 347.19 274.56 346.41 269.91L347.7 268.2C353.7 260.49 355.5 248.22 354.93 238.59C358.14 252.66 360.69 266.49 362.64 280.23L348.33 283.17ZM303.72 180.45C295.83 174.45 283.14 164.1 275.76 157.02L287.76 151.02C298.779 161.313 308.212 173.181 315.75 186.24C327.276 207.415 335.827 230.078 341.16 253.59L298.38 193.08L303.96 181.5C304.034 181.322 304.05 181.125 304.007 180.937C303.964 180.749 303.864 180.579 303.72 180.45ZM324 146.43C324.18 146.76 326.25 151.17 329.4 158.88C329.4 159.21 328.83 166.71 328.56 169.35C324.731 167.832 321.12 165.815 317.82 163.35C318.48 160.74 321.45 148.89 321.66 146.22L324 146.43ZM313.35 178.65C313.56 178.11 313.77 177.39 314.01 176.55L316.02 177.6C317.16 178.35 316.71 176.07 317.73 182.67C317.73 183.78 318.03 185.01 318.09 186.36C316.71 183.87 315 181.2 313.38 178.65H313.35ZM311.67 176.13C306.002 168.091 299.551 160.635 292.41 153.87L315 163.68C314.13 165.75 312.87 172.08 311.7 176.13H311.67ZM334.74 193.71C331.74 185.52 329.43 176.37 328.29 173.97C328.358 173.222 328.358 172.468 328.29 171.72C328.724 171.882 329.178 171.983 329.64 172.02C329.929 172.023 330.21 171.922 330.431 171.734C330.651 171.547 330.797 171.286 330.84 171C331.08 170.01 331.47 165 331.53 163.89C340.257 185.924 347.542 208.501 353.34 231.48C336.39 195.42 339 205.86 334.77 193.71H334.74ZM359.55 250.98C352.71 218.19 340.68 177.3 327 147C332.024 147.003 337.04 147.404 342 148.2C344.55 171 342.42 170.22 344.13 171.12C345.84 172.02 356.13 176.16 357.66 176.79C357.51 179.1 359.67 245.16 359.58 250.98H359.55ZM325.02 93.57C326.584 96.9829 327.136 100.773 326.61 104.49C326.366 105.436 325.864 106.296 325.16 106.974C324.456 107.651 323.578 108.12 322.623 108.329C321.669 108.537 320.675 108.476 319.753 108.154C318.831 107.831 318.016 107.258 317.4 106.5C315.969 103.485 314.891 100.313 314.19 97.05C315 96 323.64 93.9 325.02 93.57V93.57ZM283.74 123.57C282.644 123.071 281.523 122.63 280.38 122.25C279.613 121.935 278.929 121.448 278.379 120.828C277.829 120.207 277.429 119.469 277.209 118.669C276.989 117.87 276.955 117.031 277.109 116.216C277.264 115.402 277.603 114.633 278.1 113.97C279.99 112.38 281.7 112.47 283.26 114.84C284.25 116.67 284.22 116.82 284.67 117C284.799 117.057 284.939 117.086 285.08 117.084C285.221 117.083 285.36 117.051 285.488 116.991C285.616 116.932 285.729 116.845 285.821 116.738C285.913 116.631 285.981 116.505 286.02 116.37C286.465 114.492 286.536 112.545 286.23 110.64C285.87 108.57 285.81 99.39 285.87 99.09C286.746 99.5519 287.731 99.7695 288.72 99.72C294.15 99.51 295.23 96.72 297.39 94.44C299.88 94.68 300.39 95.88 303.21 94.44C304.531 93.6889 305.742 92.7602 306.81 91.68C307.672 92.033 308.505 92.4544 309.3 92.94C311.098 93.8046 313.126 94.0702 315.086 93.6976C317.046 93.3251 318.835 92.334 320.19 90.87C320.52 91.5 320.82 92.13 321.09 92.79C318.333 93.6454 315.738 94.9533 313.41 96.66C312.9 97.29 313.65 100.71 313.83 101.52C311.317 101.836 308.885 102.62 306.66 103.83C306.21 102.27 305.22 99.36 303.66 98.55C303.191 98.4064 302.689 98.4064 302.22 98.55C299.52 98.97 289.83 101.88 288.66 103.47C287.64 104.58 290.55 113.16 291.45 114.57C294.9 119.91 305.01 118.35 306.9 112.11C307.368 110.016 307.368 107.844 306.9 105.75C307.77 105.75 310.38 104.82 310.68 104.73C312.75 109.38 313.35 109.65 315.75 114.66C315.42 114.93 314.88 115.38 314.43 115.68C312.3 117.09 311.85 116.85 311.97 117.45C312.005 117.569 312.082 117.671 312.187 117.738C312.292 117.804 312.417 117.83 312.54 117.81C313.799 117.63 315.029 117.287 316.2 116.79C316.901 116.529 317.478 116.015 317.82 115.35C318.66 113.46 314.01 106.35 312.18 104.22C312.54 104.22 313.38 103.62 314.01 103.29C314.85 106.65 315.42 109.29 318.66 110.61C319.596 110.964 320.594 111.124 321.594 111.083C322.595 111.042 323.576 110.799 324.48 110.37C324.96 115.65 324.87 124.23 322.35 128.91C321.06 131.34 317.88 132.27 315.84 134.28C315.24 134.85 315.63 135.66 315.84 136.53C319.17 145.8 319.23 145.77 319.05 146.97C318.167 151.951 316.934 156.863 315.36 161.67C314.61 161.34 306.18 156.87 289.68 150.45C289.17 147.06 286.44 128.97 285.57 125.64C285.63 124.47 285.48 124.2 283.74 123.42V123.57ZM304.74 111.33C303.78 114.6 299.25 116.01 296.01 115.11C292.77 114.21 292.56 112.56 291.03 108.66C290.313 107.17 289.818 105.583 289.56 103.95C290.55 102.87 301.38 100.65 302.73 100.44C304.624 103.679 305.334 107.475 304.74 111.18V111.33ZM187.35 291.45C186.21 292.56 187.74 296.19 187.98 299.34C187.98 299.61 187.98 300.78 187.8 300.87C186.15 301.41 184.62 298.92 183.69 297.42C182.76 295.92 181.83 293.88 180.36 294.42C177.36 295.83 170.4 305.07 167.67 306.03C166.29 303.39 174.18 295.86 174.45 295.44C174.566 295.247 174.626 295.026 174.625 294.801C174.624 294.576 174.562 294.356 174.444 294.164C174.327 293.973 174.159 293.817 173.959 293.714C173.759 293.611 173.534 293.564 173.31 293.58C172.77 293.58 172.41 294.06 171.57 294.81C169.015 297.304 166.091 299.388 162.9 300.99C165.793 297.671 168.889 294.535 172.17 291.6C172.332 291.433 172.446 291.226 172.5 291C172.5 291 171.87 289.41 170.64 290.04C168.9 291 160.44 295.89 157.77 297.15C157.41 296.91 157.62 296.55 157.77 296.19C162 291 171.3 284.7 177 280.71C177.669 280.021 178.226 279.232 178.65 278.37C182.598 282.043 186.809 285.422 191.25 288.48C189.882 289.377 188.579 290.37 187.35 291.45V291.45ZM257.16 318.72C256.5 318.3 256.02 317.91 255.93 317.37C254.28 305.13 263.46 235.77 263.31 233.04C263.31 232.88 263.278 232.721 263.216 232.574C263.154 232.426 263.063 232.293 262.948 232.181C262.833 232.069 262.698 231.981 262.548 231.923C262.399 231.864 262.24 231.836 262.08 231.84C260.55 231.84 263.25 231.84 225.03 268.44C222.51 270.81 203.25 289.23 200.04 290.46C195.63 290.13 179.04 276.9 176.34 272.73C181.56 262.17 244.86 175.29 266.76 162C268.44 160.98 271.32 159.39 274.47 157.71C275.559 158.737 276.733 159.671 277.98 160.5C284.94 167.1 294.63 175.32 301.98 181.5L296.25 192.87C296.163 193.021 296.117 193.191 296.117 193.365C296.117 193.539 296.163 193.71 296.25 193.86C342.78 260.61 342.09 259.86 342.39 259.86C345.373 275.285 347.228 290.906 347.94 306.6C347.94 310.83 347.94 310.47 348.12 310.17C348.3 309.87 348.12 310.38 348.12 310.38C340.86 318.3 269.01 325.68 257.16 318.72V318.72ZM423 219.33C409.41 221.22 394.05 218.4 391.08 218.28C389.43 210.282 386.141 202.713 381.42 196.05C381.348 195.953 381.242 195.887 381.123 195.864C381.004 195.842 380.881 195.865 380.779 195.93C380.677 195.994 380.602 196.095 380.571 196.212C380.54 196.329 380.554 196.453 380.61 196.56C382.35 200.1 388.17 215.37 389.61 219.09C389.16 220.53 403.17 278.46 399.21 286.26C395.67 293.31 375.06 302.19 367.62 304.74C366.149 288.039 363.745 271.433 360.42 255C361.44 246.36 360.12 195 359.73 176.01C359.719 175.789 359.645 175.576 359.517 175.396C359.39 175.215 359.214 175.075 359.01 174.99L345.54 169.32C345.479 162.191 345.028 155.07 344.19 147.99C377.82 153.81 417 173.04 420.27 173.07C425.01 173.07 460.23 146.07 467.52 144.99C470.76 144.48 484.68 156.63 486.3 159.99C472.08 179.85 447.09 205.95 435.51 214.98C431.78 217.474 427.473 218.972 423 219.33V219.33Z" fill="#E2E7E9"/>
<path d="M301.65 105.33C301.613 105.133 301.537 104.945 301.427 104.778C301.317 104.61 301.175 104.466 301.009 104.353C300.843 104.24 300.657 104.161 300.461 104.12C300.264 104.079 300.062 104.078 299.865 104.115C299.668 104.152 299.48 104.228 299.313 104.338C299.145 104.448 299.001 104.59 298.888 104.756C298.775 104.922 298.696 105.108 298.655 105.304C298.614 105.501 298.613 105.703 298.65 105.9C299.25 108.9 299.37 109.59 300.69 109.59C300.94 109.591 301.185 109.529 301.405 109.411C301.625 109.293 301.812 109.122 301.949 108.914C302.086 108.705 302.169 108.466 302.19 108.217C302.211 107.969 302.17 107.719 302.07 107.49C301.98 107.01 301.71 105.6 301.65 105.33ZM310.83 125.19C312.78 125.76 314.64 124.83 314.58 124.35C314.52 123.87 314.58 124.11 311.94 123.12C310.17 122.46 308.22 120.12 307.53 120.48C306.84 120.84 307.89 122.76 308.13 123.12C308.772 124.094 309.723 124.823 310.83 125.19ZM365.7 96.69C361.77 113.16 358.89 127.14 358.41 129.93C358.091 131.144 358.03 132.411 358.23 133.65C359.82 137.04 380.37 143.73 382.98 142.41C385.59 141.09 392.37 125.82 400.26 110.07C405.093 110.224 409.93 109.873 414.69 109.02C419.702 108.1 424.58 106.559 429.21 104.43C439.35 99.75 450.45 79.71 451.95 69.63C453.075 58.6861 450.757 47.664 445.32 38.1C420.15 -5.55 346.32 17.94 352.32 66.42C354.033 77.5131 358.649 87.956 365.7 96.69ZM384 132.42C384 132.9 383.46 132.84 381 132.42C375.968 131.788 371.097 130.232 366.63 127.83C364.53 126.69 363.96 126.45 364.17 125.94C364.38 125.43 364.83 125.61 368.07 126.51C368.37 126.51 377.67 129.51 380.34 130.44C383.79 132 384 132 384 132.42ZM383.46 83.61C386.664 83.7761 389.856 83.1149 392.73 81.69C395.401 82.9841 398.291 83.7676 401.25 84C396.21 93.39 385.98 112.53 382.68 122.73L369.96 119.22C372.96 111.84 379.59 94.56 383.4 83.61H383.46ZM382.41 81.12C380.171 80.7817 378.104 79.7181 376.527 78.0924C374.95 76.4667 373.95 74.3687 373.68 72.12C372.84 66.12 376.68 59.4 382.47 60.99C386.1 61.98 386.55 64.86 385.92 68.49C385.38 71.13 383.43 77.76 382.35 81L382.41 81.12ZM390.57 73.92C390.89 71.9569 391.627 70.0851 392.73 68.43C393.255 67.5278 394.022 66.7908 394.945 66.303C395.868 65.8151 396.909 65.5958 397.95 65.67C400.17 66.33 401.13 70.53 399.3 73.17C397.541 75.504 395.352 77.4795 392.85 78.99C391.989 78.4848 391.303 77.7282 390.885 76.8218C390.467 75.9155 390.336 74.9029 390.51 73.92H390.57ZM363 35.79C376.44 19.62 401.73 13.2 420 19.86C429.925 23.2669 438.273 30.1652 443.49 39.27C448.662 48.3707 450.875 58.8554 449.82 69.27C448.44 78.6 437.82 97.98 428.49 102.27C419.96 106.161 410.652 108.049 401.28 107.79C400.26 107.79 399.18 107.79 398.79 108.51C397.02 112.11 393.78 119.07 390.6 125.61C388.404 124.55 386.127 123.667 383.79 122.97C387.27 113.01 398.25 93.45 403.47 83.97C407.993 84.3575 412.539 83.5722 416.67 81.69C417.786 81.1025 418.711 80.2089 419.337 79.114C419.963 78.0191 420.264 76.7684 420.204 75.5086C420.144 74.2488 419.726 73.0322 419 72.0015C418.273 70.9709 417.267 70.169 416.1 69.69C411.45 67.41 407.28 72.87 404.85 77.46C404.19 78.66 403.44 80.07 402.6 81.66C400.173 81.5005 397.781 81.0058 395.49 80.19C397.772 78.5866 399.795 76.6442 401.49 74.43C402.44 72.9956 402.921 71.3018 402.867 69.5823C402.814 67.8627 402.228 66.2023 401.19 64.83C400.375 63.8835 399.243 63.2668 398.006 63.0956C396.768 62.9244 395.511 63.2104 394.47 63.9C392.369 65.191 390.685 67.0609 389.621 69.2853C388.557 71.5097 388.157 73.994 388.47 76.44C388.796 77.8207 389.54 79.0673 390.6 80.01C388.632 80.825 386.52 81.2332 384.39 81.21C385.59 77.67 387.54 71.28 388.05 68.67C388.37 67.182 388.441 65.6512 388.26 64.14C388.028 62.8427 387.426 61.64 386.526 60.6767C385.627 59.7134 384.468 59.0304 383.19 58.71C375.9 56.64 370.53 64.71 371.58 72.24C371.877 74.9385 373.035 77.4695 374.883 79.4581C376.731 81.4467 379.17 82.7868 381.84 83.28C378 94.08 372 111.51 369 118.95L362.4 117.24C366.63 96 367.14 96.51 366.54 96.24C359.724 87.549 355.362 77.1893 353.91 66.24C353.203 60.8108 353.647 55.2935 355.213 50.0472C356.779 44.8009 359.432 39.9431 363 35.79ZM404.64 81.84C406.74 78.03 410.94 69.69 415.02 71.73C415.836 72.0588 416.547 72.6042 417.075 73.3074C417.604 74.0106 417.931 74.8448 418.02 75.72C417.96 81 409.74 81.93 404.52 81.84H404.64ZM519.48 95.07C523.095 92.9439 527.365 92.218 531.48 93.03C536 93.1109 540.318 94.9181 543.547 98.081C546.777 101.244 548.674 105.523 548.85 110.04C546.132 108.463 542.954 107.87 539.85 108.36C532.32 109.02 522.48 113.1 523.8 120.36C524.88 126.36 532.8 125.55 538.8 123.93C544.8 122.31 549.57 119.37 550.8 113.58C558.09 118.89 559.8 128.19 560.1 137.28C560.1 137.407 560.151 137.529 560.241 137.619C560.331 137.709 560.453 137.76 560.58 137.76C560.707 137.76 560.829 137.709 560.919 137.619C561.009 137.529 561.06 137.407 561.06 137.28C561.27 127.11 559.44 117.15 551.13 111.36C551.216 108.755 550.772 106.16 549.825 103.732C548.878 101.304 547.449 99.0935 545.623 97.234C543.797 95.3745 541.613 93.9049 539.203 92.9141C536.792 91.9233 534.206 91.4321 531.6 91.47C527.435 90.8619 523.189 91.7323 519.6 93.93C518.49 94.47 519 95.28 519.48 95.07ZM546.84 116.58C543.45 121.02 533.85 123.33 529.41 122.58C527.76 122.31 526.41 121.62 526.05 119.91C524.97 113.91 535.32 110.64 541.5 110.43C544.017 110.237 546.526 110.88 548.64 112.26C548.413 113.828 547.794 115.314 546.84 116.58ZM505.74 60C508.95 56.04 506.79 49.14 497.82 49.11C494.34 49.11 492.66 52.65 492.9 56.04C493.44 64.11 502.53 63.87 505.74 60ZM495 55.89C495 53.91 495.93 51.33 498 51.36C502.83 51.36 505.05 53.61 505.05 56.1C504.93 61.77 494.61 64.71 495 55.89ZM493.77 396C467.4 385.47 455.16 436.44 433.62 480.24C433.484 482.081 433.544 483.932 433.8 485.76C433.8 490.35 434.31 520.74 436.98 524.19C437.7 525.57 440.73 524.19 442.14 523.32C454.115 515.906 465.401 507.432 475.86 498C475.949 497.898 476.016 497.779 476.058 497.65C476.099 497.521 476.113 497.385 476.1 497.25C481.68 489.3 502.59 447.9 507.66 427.14C511.2 412.44 507.69 401.49 493.77 396ZM503.19 434.1C489.072 432.291 475.423 427.833 462.96 420.96C469.98 407.67 478.65 392.52 492.96 398.22C508.89 404.55 508.56 417.66 503.19 434.01V434.1ZM453.27 512.1C452.349 511.328 451.342 510.663 450.27 510.12C446.216 508.059 441.532 507.609 437.16 508.86C436.86 505.29 435.15 482.07 435.15 481.86C457.62 490.08 450.69 486.51 472.95 497.58C470.61 499.8 461.82 505.95 453.27 512.04V512.1ZM468.75 425.28C471.676 426.878 474.68 428.33 477.75 429.63C470.874 440.431 464.797 451.721 459.57 463.41C454.53 473.94 454.71 473.88 449.58 485.37C446.58 484.41 443.58 483.51 440.58 482.61C443.82 476.16 466.86 429 468.75 425.22V425.28ZM450.75 485.67C460.5 468.18 470.43 446.43 478.95 430.02C481.95 431.28 484.95 432.3 487.95 433.2C486.36 436.2 481.71 444.18 480.48 446.49C479.25 448.8 466.92 473.1 466.05 474.96C464.67 477.96 460.89 486.33 459.72 489C456.66 487.65 453.72 486.63 450.63 485.61L450.75 485.67ZM460.8 489.39C462.63 486.06 470.16 472.08 471.09 470.28C472.5 467.49 488.22 435.36 489.09 433.5C491.85 434.28 494.76 434.94 496.62 435.3C491.13 450.3 475.32 479.19 469.62 493.44C464.43 491.01 463.26 490.41 460.68 489.33L460.8 489.39ZM462.63 421.83L468 424.83C457.178 443.259 447.752 462.473 439.8 482.31L435.3 480.93C452.73 443.79 453.54 438.93 462.51 421.77L462.63 421.83ZM474.99 496.05L470.46 493.89C475.35 484.29 490.65 459.66 497.64 435.51C499.32 435.81 500.97 436.08 502.56 436.29C494.851 456.861 485.594 476.818 474.87 495.99L474.99 496.05ZM381 515.52C382.196 514.53 383.05 513.19 383.443 511.688C383.836 510.186 383.748 508.599 383.19 507.15C382.935 505.06 381.977 503.118 380.472 501.645C378.967 500.173 377.006 499.256 374.91 499.046C372.815 498.837 370.711 499.347 368.944 500.493C367.177 501.638 365.853 503.351 365.19 505.35C361.35 502.86 357.18 500.22 353.19 497.7C356.19 493.71 365.01 495.48 365.91 498.75C365.93 498.877 366 498.991 366.104 499.067C366.208 499.143 366.338 499.175 366.465 499.155C366.592 499.135 366.706 499.065 366.782 498.961C366.858 498.857 366.89 498.727 366.87 498.6C366.42 493.38 355.56 490.32 351.18 496.47C347.31 494.1 342.51 491.22 338.49 489.03C341.94 486.03 349.65 487.71 350.49 490.83C350.529 490.937 350.606 491.026 350.705 491.082C350.804 491.138 350.92 491.156 351.031 491.135C351.143 491.113 351.244 491.052 351.315 490.964C351.386 490.875 351.423 490.764 351.42 490.65C351.03 485.79 340.98 482.52 336.42 487.86C334.509 486.789 332.5 485.905 330.42 485.22C330.04 485.062 329.622 485.018 329.218 485.093C328.813 485.167 328.439 485.357 328.14 485.64C320.55 495.09 294.96 519.63 283.14 522.48C282.843 522.525 282.563 522.647 282.328 522.834C282.093 523.022 281.912 523.268 281.802 523.548C281.693 523.828 281.659 524.131 281.704 524.428C281.749 524.725 281.872 525.005 282.06 525.24C284.656 527.874 287.628 530.109 290.88 531.87C287.88 534.87 285.54 537.57 283.8 539.52C282.9 540.48 282.42 558.84 283.2 562.89C283.316 563.286 283.572 563.627 283.92 563.85C287.7 566.43 336.39 587.49 341.37 584.67C344.7 582.78 384.45 541.41 385.08 540.15C386.04 538.17 385.71 524.97 385.65 519.69C385.41 518.1 382.44 516.39 381 515.52ZM285 555.15V548.46C297.45 554.46 325.95 566.7 336.75 570.12C339.51 571.02 339.75 570.9 341.19 570.12C349.44 564.84 378.57 532.02 383.91 527.01V533.34C367.71 549.57 340.2 578.01 339.69 576.39C336.72 576.21 287.58 556.35 285 555.15ZM380.25 505.41C381.329 507.227 381.908 509.297 381.93 511.41C381.92 512.082 381.755 512.743 381.448 513.341C381.141 513.94 380.7 514.459 380.16 514.86C377.64 513.18 372.87 510.06 367.23 506.4C370.32 500.31 377.19 500.22 380.13 505.41H380.25ZM284.25 524.61C297.03 520.83 321.3 497.43 329.46 487.29C331.424 487.837 333.317 488.612 335.1 489.6C332.1 495.18 335.31 501.3 336.45 500.43C337.08 499.95 335.94 499.77 335.76 496.83C335.683 494.682 336.169 492.552 337.17 490.65C341.31 492.81 346.17 495.63 350.28 498C347.76 503.61 350.79 509.16 351.84 508.35C352.89 507.54 351.36 507.72 351.18 504.78C351.107 502.852 351.476 500.933 352.26 499.17C356.49 501.66 360.81 504.24 364.77 506.67C364.16 508.165 363.918 509.784 364.064 511.392C364.21 513 364.74 514.55 365.61 515.91C365.649 515.961 365.698 516.004 365.754 516.036C365.81 516.069 365.872 516.089 365.936 516.098C366 516.106 366.066 516.102 366.128 516.085C366.19 516.068 366.249 516.039 366.3 516C366.351 515.961 366.394 515.911 366.426 515.855C366.459 515.799 366.48 515.738 366.488 515.674C366.496 515.61 366.492 515.544 366.475 515.482C366.458 515.42 366.429 515.361 366.39 515.31C365.851 514.118 365.585 512.821 365.611 511.513C365.636 510.205 365.954 508.92 366.54 507.75C373.53 512.01 379.17 515.58 380.91 516.75C380.58 517.05 349.29 544.89 338.64 553.17C331.65 551.34 294.96 533.13 284.25 524.61ZM285.39 541.32C298.98 547.32 329.85 561.24 336.96 562.59C338.19 562.83 338.67 562.92 341.01 561.06C351 553.05 383.49 519.06 383.79 519.42C383.805 519.509 383.805 519.601 383.79 519.69V525.69C377.1 531.06 339.9 570.12 339.3 568.26C336.3 568.26 287.55 548.37 285.06 547.26C285 546 285.27 542.64 285.39 541.32ZM340.02 582.66C337.02 584.37 291.33 565.8 285.21 562.02C284.98 560.109 284.87 558.185 284.88 556.26C298.02 562.74 336.24 578.88 339.75 578.73C344.88 578.46 381.15 537.63 383.73 534.78C383.76 536.312 383.609 537.843 383.28 539.34C382.77 540.33 342 581.55 340.02 582.66ZM91.47 413.55C91.68 416.76 91.83 419.55 91.83 422.16C91.83 422.558 91.988 422.939 92.2694 423.221C92.5507 423.502 92.9322 423.66 93.33 423.66C93.7278 423.66 94.1094 423.502 94.3907 423.221C94.672 422.939 94.83 422.558 94.83 422.16C94.83 419.37 94.68 416.61 94.47 413.34C94.4422 412.942 94.2574 412.572 93.9564 412.31C93.6554 412.048 93.2628 411.917 92.865 411.945C92.4672 411.973 92.0967 412.158 91.8351 412.459C91.5735 412.76 91.4422 413.152 91.47 413.55ZM548.58 353.4C548.384 353.411 548.192 353.462 548.016 353.548C547.84 353.635 547.683 353.756 547.555 353.904C547.426 354.052 547.328 354.225 547.268 354.411C547.207 354.598 547.184 354.794 547.2 354.99C547.38 357.75 547.56 360.72 547.56 363.6C547.56 363.998 547.718 364.379 547.999 364.661C548.281 364.942 548.662 365.1 549.06 365.1C549.458 365.1 549.839 364.942 550.121 364.661C550.402 364.379 550.56 363.998 550.56 363.6C550.56 360.6 550.38 357.6 550.17 354.78C550.159 354.584 550.108 354.392 550.022 354.216C549.935 354.04 549.814 353.883 549.666 353.755C549.518 353.626 549.345 353.528 549.159 353.468C548.972 353.407 548.775 353.384 548.58 353.4ZM83.7 406.08C84.0978 406.08 84.4794 405.922 84.7607 405.641C85.042 405.359 85.2 404.978 85.2 404.58C85.2 404.182 85.042 403.801 84.7607 403.519C84.4794 403.238 84.0978 403.08 83.7 403.08C80.07 403.08 77.04 403.35 74.04 403.29C73.6394 403.29 73.2547 403.447 72.9686 403.727C72.6825 404.008 72.5179 404.389 72.51 404.79C72.51 405.188 72.668 405.569 72.9494 405.851C73.2307 406.132 73.6122 406.29 74.01 406.29C77.1 406.35 80.49 406.23 83.7 406.08ZM539.28 344.52C535.68 344.52 532.65 344.73 529.62 344.76C529.222 344.76 528.841 344.918 528.559 345.199C528.278 345.481 528.12 345.862 528.12 346.26C528.12 346.658 528.278 347.039 528.559 347.321C528.841 347.602 529.222 347.76 529.62 347.76C532.86 347.76 536.22 347.76 539.46 347.52C539.858 347.496 540.23 347.315 540.494 347.017C540.759 346.719 540.894 346.328 540.87 345.93C540.846 345.532 540.665 345.16 540.367 344.896C540.069 344.631 539.678 344.496 539.28 344.52ZM90.66 387.54C90.84 390.3 91.02 393.27 91.02 396.15C91.0277 396.545 91.1882 396.923 91.4678 397.202C91.7475 397.482 92.1246 397.642 92.52 397.65C92.9178 397.65 93.2994 397.492 93.5807 397.211C93.862 396.929 94.02 396.548 94.02 396.15C94.02 393.15 93.84 390.15 93.66 387.33C93.6322 386.932 93.4474 386.562 93.1464 386.3C92.8454 386.038 92.4528 385.907 92.055 385.935C91.6572 385.963 91.2867 386.148 91.0251 386.449C90.7635 386.75 90.6322 387.142 90.66 387.54ZM549.75 337.59C549.75 334.59 549.57 331.59 549.36 328.77C549.332 328.372 549.147 328.002 548.846 327.74C548.545 327.478 548.153 327.347 547.755 327.375C547.357 327.403 546.987 327.588 546.725 327.889C546.463 328.19 546.332 328.582 546.36 328.98C546.54 331.74 546.72 334.71 546.72 337.59C546.72 337.988 546.878 338.369 547.159 338.651C547.441 338.932 547.822 339.09 548.22 339.09C548.621 339.09 549.005 338.933 549.291 338.653C549.577 338.372 549.742 337.991 549.75 337.59ZM112.8 405.69C112.997 405.682 113.191 405.636 113.37 405.553C113.549 405.471 113.71 405.353 113.843 405.209C113.977 405.064 114.081 404.894 114.149 404.709C114.217 404.524 114.248 404.327 114.24 404.13C114.21 403.737 114.032 403.371 113.743 403.104C113.453 402.837 113.074 402.689 112.68 402.69C109.05 402.84 106.02 402.96 102.99 402.9C102.592 402.9 102.211 403.058 101.929 403.339C101.648 403.621 101.49 404.002 101.49 404.4C101.49 404.798 101.648 405.179 101.929 405.461C102.211 405.742 102.592 405.9 102.99 405.9C106.2 405.96 109.56 405.84 112.8 405.69ZM568.38 344.13C565.38 344.28 562.05 344.37 558.72 344.37C558.522 344.362 558.324 344.394 558.139 344.464C557.954 344.534 557.784 344.641 557.641 344.779C557.499 344.916 557.385 345.081 557.307 345.263C557.23 345.446 557.19 345.642 557.19 345.84C557.19 346.241 557.347 346.625 557.627 346.911C557.908 347.197 558.289 347.362 558.69 347.37C562.11 347.37 564.87 347.37 568.5 347.13C568.697 347.122 568.891 347.076 569.07 346.993C569.249 346.911 569.41 346.793 569.543 346.649C569.677 346.504 569.781 346.334 569.849 346.149C569.917 345.964 569.948 345.767 569.94 345.57C569.903 345.18 569.723 344.817 569.435 344.551C569.148 344.286 568.772 344.136 568.38 344.13ZM43.86 316.8C44.25 317.1 128.85 304.56 132.48 302.34C132.681 302.193 132.842 301.998 132.946 301.772C133.051 301.547 133.097 301.298 133.08 301.05C133.08 297.18 128.01 260.85 125.58 251.79C125.28 250.68 124.98 249.57 124.29 249.18C119.7 246.42 38.82 261.66 33.99 264.78C33.8591 264.857 33.746 264.961 33.6581 265.086C33.5702 265.21 33.5096 265.351 33.48 265.5C32.46 269.13 41.25 315 43.86 316.8ZM35.31 266.22C41.07 263.61 114.48 250.17 122.88 251.22C124.92 256.47 130.38 294.93 130.74 300.57C126.57 301.8 45 315.81 44.7 315.87C44.4 315.93 44.37 316.29 43.74 314.4C41.1 306.48 35.16 273 35.31 266.22Z" fill="#E2E7E9"/>
<path d="M139.08 305.01C139.243 304.707 139.316 304.363 139.29 304.02C139.29 299.25 132.45 246.3 130.02 242.07C129.83 241.758 129.56 241.502 129.238 241.328C128.917 241.154 128.555 241.069 128.19 241.08C118.14 239.85 33.36 256.41 27.78 260.28C27 260.82 27.12 262.17 27.21 263.61C27.69 271.5 36.21 323.4 39.21 323.1C39.54 323.1 39.42 322.86 38.64 324.45C33.96 334.08 25.08 364.92 25.26 371.13C25.26 373.74 25.86 377.13 28.44 376.95C46.95 374.67 137.7 360.27 163.8 354.9C164.82 354.69 165.48 353.76 165.45 352.23C165.142 349.681 164.369 347.21 163.17 344.94C159.51 338.07 144.33 310.86 139.08 305.01ZM39.39 322.17C37.05 319.17 28.44 267.48 29.1 261.75C35.7 258.33 119.34 242.16 128.1 243.48C130.5 250.08 136.71 297.75 137.1 303.48C126.48 307.14 52.95 319.02 39.39 322.17ZM40.71 323.07C43.23 322.44 129.06 308.07 136.92 306C141.21 309.99 160.59 344.46 161.85 347.4C144.63 350.4 42.48 367.47 27.45 369.75C27.66 360.66 36.99 328.89 40.71 323.07V323.07Z" fill="#E2E7E9"/>
<path d="M51.9901 354.18C54.6001 353.79 109.98 347.13 129.99 341.7C130.113 341.668 130.219 341.589 130.284 341.479C130.348 341.369 130.367 341.238 130.335 341.115C130.303 340.992 130.224 340.886 130.114 340.821C130.004 340.757 129.873 340.738 129.75 340.77C125.82 341.58 77.8801 347.97 51.9301 353.25C51.8584 353.237 51.7847 353.241 51.7146 353.261C51.6445 353.28 51.5798 353.316 51.5255 353.364C51.4711 353.413 51.4285 353.473 51.4009 353.54C51.3733 353.608 51.3614 353.681 51.3661 353.753C51.3708 353.826 51.3919 353.897 51.428 353.96C51.464 354.023 51.514 354.078 51.5741 354.119C51.6343 354.16 51.703 354.187 51.775 354.197C51.8471 354.208 51.9206 354.202 51.9901 354.18ZM92.4601 145.44C91.3394 147.971 90.3971 150.577 89.6401 153.24C89.5954 153.667 89.7132 154.096 89.9701 154.44C93.0001 159 124.05 194.01 132.15 198.93C133.26 199.62 134.58 200.1 135.39 199.11C141.274 191.788 148.953 186.114 157.68 182.64C164.783 180.127 172.23 178.721 179.76 178.47C185.76 177.93 186.81 177.33 189.12 173.4C191.845 168.228 195.46 163.577 199.8 159.66C205.334 154.822 211.476 150.727 218.07 147.48C218.367 147.312 218.599 147.049 218.729 146.734C218.86 146.419 218.881 146.069 218.79 145.74C217.776 143.159 216.435 140.719 214.8 138.48C215.88 138.12 217.08 137.79 217.08 136.71C217.08 133.71 190.92 95.85 183.66 88.71C182.91 87.96 181.83 86.97 180.84 87.03C165.84 87.87 151.23 102.03 142.77 114.39C133.08 114.03 126.81 113.16 115.77 117.81C107.976 121.118 100.95 126 95.1301 132.15C94.2301 133.08 88.1101 139.56 88.0201 140.07C87.9301 140.58 88.1101 140.58 92.4601 145.44ZM212.46 144.6C199.95 146.73 191.97 157.14 186.09 168.45C183.48 173.49 183.72 173.73 180.96 173.67C176.134 173.397 171.293 173.577 166.5 174.21C162.985 174.735 159.529 175.599 156.18 176.79C148.56 179.49 139.83 188.13 135.18 194.55C135.081 194.682 134.956 194.792 134.812 194.872C134.667 194.952 134.508 195.001 134.344 195.015C134.179 195.029 134.014 195.008 133.858 194.954C133.702 194.9 133.56 194.813 133.44 194.7C123.69 184.65 106.44 167.01 97.7701 156.87C97.3501 156.42 98.0701 155.76 98.4901 156.24C104.1 162.24 118.59 176.61 134.13 192.24C139.38 185.55 147.48 177.45 155.49 174.63C159.858 173.072 164.403 172.064 169.02 171.63C173.344 171.302 177.686 171.302 182.01 171.63C183.78 169.59 192.54 146.43 212.4 143.85C212.458 143.893 212.506 143.948 212.54 144.012C212.574 144.075 212.593 144.146 212.596 144.218C212.599 144.29 212.585 144.362 212.556 144.428C212.528 144.494 212.485 144.553 212.43 144.6H212.46ZM180.81 89.46C186.81 93.66 211.23 129.81 214.41 136.14C208.892 137.888 203.565 140.19 198.51 143.01C193.723 145.41 189.532 148.847 186.242 153.071C182.951 157.296 180.645 162.201 179.49 167.43C168.72 149.91 153.69 130.62 143.7 116.43C144.3 116.04 161.16 90.63 180.81 89.46ZM116.43 119.46C127.38 115.05 133.44 116.07 142.5 116.46C151.5 131.82 167.67 153.48 178.32 167.67C168.49 165.344 158.147 166.767 149.31 171.66C144 174.66 137.52 181.86 133.53 186.33C127.77 181.71 94.5301 146.31 89.1901 140.31C97.4101 131.01 105 124.02 116.43 119.34V119.46ZM61.5301 195.75C60.7886 195.23 59.912 194.936 59.0068 194.904C58.1015 194.872 57.2064 195.103 56.4301 195.57C55.8647 195.822 55.3546 196.183 54.9288 196.632C54.5029 197.082 54.1698 197.611 53.9483 198.189C53.7269 198.767 53.6214 199.383 53.638 200.001C53.6546 200.62 53.7929 201.23 54.0451 201.795C54.2972 202.36 54.6582 202.87 55.1075 203.296C55.5568 203.722 56.0856 204.055 56.6636 204.277C57.2417 204.498 57.8577 204.604 58.4765 204.587C59.0953 204.57 59.7047 204.432 60.2701 204.18C61.1732 203.983 61.995 203.515 62.6264 202.84C63.2579 202.165 63.6692 201.314 63.8059 200.399C63.9426 199.485 63.7981 198.551 63.3916 197.72C62.9852 196.89 62.336 196.203 61.5301 195.75ZM59.5501 201.75C57.4501 202.41 56.1901 201.75 55.6801 200.73C54.7201 198.6 55.9201 195.33 59.0401 196.29C61.2301 197.1 63.0001 200.79 59.5501 201.9V201.75ZM214.08 58.47C214.95 60.24 219 59.58 220.77 59.01C221.7 58.71 222.3 58.38 222.39 57.48C222.66 55.23 222.96 35.73 221.94 33.84C221.835 33.6418 221.673 33.4792 221.476 33.3724C221.278 33.2657 221.054 33.2196 220.83 33.24C217.629 33.2311 214.445 33.6962 211.38 34.62C210.15 35.37 213 56.49 214.08 58.47ZM212.01 35.34C214.781 34.9435 217.584 34.813 220.38 34.95C220.56 37.17 220.08 56.4 220.05 56.7C218.783 57.1542 217.429 57.3182 216.09 57.18C215.88 56.49 215.52 54.63 215.07 52.29C213.748 46.6987 212.727 41.0406 212.01 35.34ZM58.6201 170.43C58.9079 170.577 59.2267 170.654 59.5501 170.654C59.8735 170.654 60.1922 170.577 60.4801 170.43C61.6391 169.715 62.5583 168.671 63.1201 167.43C63.1964 167.232 63.2199 167.017 63.1883 166.806C63.1568 166.596 63.0712 166.397 62.9401 166.23C61.5001 164.52 45.7801 146.31 43.8601 147.45C41.5027 148.976 39.2661 150.681 37.1701 152.55C37.0856 152.626 37.0179 152.718 36.9714 152.821C36.9249 152.925 36.9006 153.037 36.9001 153.15C36.8401 154.71 54.3001 168.69 58.6201 170.43ZM44.2201 148.23C46.4101 149.82 53.7901 158.94 60.6301 167.01C60.3358 167.473 59.9715 167.888 59.5501 168.24C52.3587 163.637 45.4924 158.545 39.0001 153C40.6276 151.291 42.3718 149.697 44.2201 148.23ZM91.3501 82.05C92.0101 70.41 98.7901 65.01 105.87 63.63C103.86 71.01 104.19 80.61 111.48 81.84C114.96 82.41 116.67 80.61 119.19 78.51C129.96 69.51 121.26 60.51 109.11 61.14C113.64 48.72 124.11 38.61 138 38.28C138.127 38.28 138.249 38.2294 138.339 38.1394C138.429 38.0494 138.48 37.9273 138.48 37.8C138.48 37.6727 138.429 37.5506 138.339 37.4606C138.249 37.3706 138.127 37.32 138 37.32C123 37.02 111.21 47.82 106.56 61.32C98.5501 62.7 90.6001 68.7 90.3901 81.87C90.3782 81.933 90.379 81.9978 90.3922 82.0605C90.4054 82.1233 90.4308 82.1828 90.467 82.2358C90.5032 82.2887 90.5495 82.334 90.6032 82.369C90.6569 82.4041 90.717 82.4282 90.7801 82.44C90.8431 82.4518 90.9078 82.4511 90.9706 82.4379C91.0334 82.4247 91.0929 82.3993 91.1458 82.3631C91.1988 82.3268 91.244 82.2806 91.2791 82.2268C91.3141 82.1731 91.3382 82.113 91.3501 82.05ZM108.42 63.27C112.89 62.97 119.55 64.35 121.38 68.4C122.43 70.71 121.38 73.56 117.66 76.68C116.65 77.6918 115.498 78.5508 114.24 79.23C109.74 81.15 104.76 75.6 108.42 63.27ZM117 487.56C114.102 486.784 111.077 486.595 108.105 487.005C105.132 487.415 102.272 488.415 99.6918 489.947C97.1117 491.479 94.864 493.511 93.0811 495.925C91.2982 498.338 90.016 501.084 89.3101 504C87.9773 510.059 89.1061 516.399 92.448 521.626C95.7899 526.852 101.071 530.537 107.13 531.87C113.189 533.203 119.529 532.074 124.756 528.732C129.982 525.39 133.667 520.109 135 514.05C135.569 511.128 135.555 508.122 134.957 505.205C134.359 502.289 133.189 499.519 131.516 497.057C129.843 494.594 127.699 492.487 125.207 490.858C122.716 489.228 119.927 488.107 117 487.56ZM126.27 512.01C125.066 516.811 122.185 521.023 118.146 523.884C114.107 526.745 109.178 528.067 104.25 527.61C99.726 525.842 95.9703 522.536 93.6437 518.272C91.3171 514.009 90.5687 509.061 91.5301 504.3C92.6526 499.383 95.5075 495.034 99.5728 492.048C103.638 489.062 108.642 487.64 113.67 488.04C118.239 489.928 121.995 493.366 124.278 497.751C126.561 502.135 127.224 507.185 126.15 512.01H126.27Z" fill="#E2E7E9"/>
<path d="M156.96 496.11C154.348 495.209 151.549 494.992 148.83 495.48C147.703 492.896 146.316 490.433 144.69 488.13C146.64 486.36 151.98 481.44 150.69 479.13C146.099 473.638 140.648 468.927 134.55 465.18C132.003 463.753 129.199 462.846 126.3 462.51C124.38 462.78 119.82 470.25 118.8 471.93C118.14 471.93 115.8 471.18 115.62 471.09C115.62 468.93 114.99 461.13 113.04 460.23C110.859 459.427 108.595 458.874 106.29 458.58C104.16 458.25 84.99 461.76 83.58 464.34C82.65 466.08 84.81 472.65 85.44 474.48C83.822 475.37 82.2683 476.373 80.79 477.48C77.79 479.61 78.6 479.52 78.06 479.28C77.4073 478.968 76.7081 478.766 75.99 478.68C73.5935 477.275 70.7837 476.745 68.04 477.18C65.28 478.08 58.77 492.9 57.72 496.71C57.3764 497.671 57.2834 498.703 57.45 499.71C58.17 501.69 62.97 503.28 64.98 503.91C64.4249 507.77 64.4249 511.69 64.98 515.55C62.34 516.27 56.85 517.89 57.15 520.59C57.45 523.29 64.47 541.11 67.38 542.52C68.9741 543.411 70.7369 543.96 72.5554 544.131C74.3739 544.301 76.208 544.09 77.94 543.51C78.9155 543.023 79.8576 542.472 80.76 541.86C81.96 542.76 83.22 543.57 84.51 544.35C83.58 546.66 81.51 551.82 82.17 554.16C82.5 555.39 83.49 555.78 84.87 556.29C88.68 557.67 109.2 562.59 112.32 562.05C113.49 561.87 114.12 560.64 114.48 559.47C115.147 556.807 115.539 554.083 115.65 551.34C117.191 551.188 118.723 550.958 120.24 550.65C121.167 552.281 122.352 553.75 123.75 555C125.28 556.08 126.57 555.54 128.31 554.43C129.15 555.51 130.41 557.01 131.76 557.16C135.15 557.55 149.16 544.35 150.6 541.65C151.8 539.4 147.42 535.38 145.47 533.61C147.579 530.436 149.235 526.982 150.39 523.35C152.554 523.676 154.744 523.797 156.93 523.71C157.92 523.71 159.06 523.35 159.48 522.42C161.31 518.25 160.77 502.44 159.48 498.42C159.3 497.25 157.95 496.47 156.96 496.11V496.11ZM157.68 498.87C158.7 502.77 159.03 517.5 157.53 521.31C154.936 521.566 152.319 521.444 149.76 520.95C149.487 520.903 149.206 520.961 148.973 521.11C148.74 521.26 148.571 521.492 148.5 521.76C147.305 525.816 145.45 529.647 143.01 533.1C142.836 533.329 142.758 533.616 142.791 533.901C142.825 534.187 142.968 534.448 143.19 534.63C145.295 536.298 147.083 538.33 148.47 540.63C146.97 543.09 135.24 553.83 132 554.73C131.52 554.73 130.2 552.93 129.87 552.45C128.762 550.785 127.76 549.051 126.87 547.26C126.74 546.999 126.517 546.796 126.245 546.69C125.973 546.585 125.672 546.585 125.4 546.69C116.7 549.96 113.4 548.04 113.4 550.2C113.404 553.434 112.877 556.647 111.84 559.71C104.79 558.943 97.847 557.394 91.14 555.09C91.4639 551.887 92.358 548.768 93.78 545.88C94.68 543.87 91.08 544.44 84.36 537.6C84.1437 537.4 83.8598 537.288 83.565 537.288C83.2702 537.288 82.9863 537.4 82.77 537.6C79.77 540.06 75.87 542.46 75.09 542.07C73.56 541.32 66.51 525.33 66.09 522.09C68.2238 520.603 70.6461 519.581 73.2 519.09C73.4724 519.013 73.7076 518.84 73.862 518.603C74.0165 518.365 74.0797 518.08 74.04 517.8C73.3048 513.552 73.3048 509.208 74.04 504.96C74.0858 504.698 74.0309 504.429 73.8861 504.206C73.7414 503.984 73.5177 503.824 73.26 503.76C70.9984 503.167 68.821 502.29 66.78 501.15C66.12 500.67 66.18 500.7 66.24 500.19C68.1818 493.187 71.2958 486.563 75.45 480.6C77.07 480.15 81.45 483.36 82.95 484.5C83.1067 484.652 83.3166 484.737 83.535 484.737C83.7534 484.737 83.9633 484.652 84.12 484.5C85.4984 483.07 86.9826 481.747 88.56 480.54C93.12 477.09 94.35 477.54 93.96 476.34C92.5809 473.33 91.8062 470.078 91.68 466.77C92.145 466.383 92.6725 466.079 93.24 465.87C96.0408 464.762 98.9183 463.86 101.85 463.17C105.403 462.18 109.056 461.586 112.74 461.4C113.37 461.67 113.94 464.4 114.09 465.24C115.2 471.24 114.45 472.47 115.32 472.56C123.87 473.4 125.61 475.77 126.21 474.72C127.874 471.811 129.812 469.068 132 466.53C132.63 465.9 132.6 465.6 134.49 466.68C140.136 470.37 145.193 474.891 149.49 480.09C149.94 480.87 146.04 485.01 143.19 487.44C142.2 488.31 143.61 488.7 146.19 493.62C148.77 498.54 148.17 499.92 149.55 499.62C152.21 498.983 154.948 498.731 157.68 498.87V498.87ZM574.05 248.19C567.761 245.621 561.166 243.877 554.43 243C549.51 242.22 543.72 241.44 538.83 240.81C543.54 234.15 557.49 217.29 559.83 213.18C560.49 212.07 559.23 210.51 558.3 209.58C553.08 204 543 201.9 535.26 200.7C530.82 199.98 512.28 197.7 509.13 199.2C505.35 201 477.39 243 476.55 249.39C476.55 250.47 476.91 250.89 477.96 251.28C482.37 252.9 502.26 255.42 506.7 256.47C500.7 266.97 474.03 302.46 471.42 307.47C470.79 308.73 471.18 309.48 471.93 309.72C474.63 310.792 477.408 311.654 480.24 312.3C481.32 312.63 483.69 311.16 487.14 309.06C502.62 299.76 569.04 255.9 574.14 250.23C574.281 250.097 574.391 249.935 574.464 249.756C574.537 249.576 574.57 249.383 574.561 249.189C574.553 248.996 574.503 248.806 574.414 248.634C574.326 248.462 574.202 248.31 574.05 248.19V248.19ZM509.58 284.19C484.08 301.02 475.47 305.94 475.17 306.15C479.28 299.88 504.81 264.9 509.19 256.53C509.266 256.368 509.305 256.192 509.305 256.013C509.304 255.834 509.263 255.658 509.186 255.497C509.108 255.336 508.995 255.194 508.856 255.082C508.717 254.97 508.554 254.891 508.38 254.85C505.38 253.77 483.54 251.43 478.38 249.6C479.04 244.02 506.28 201.84 509.58 200.16C512.88 198.48 544.89 202.29 550.89 206.58C547.74 212.73 530.34 234.27 527.52 239.28C526.95 240.3 526.77 241.29 527.88 241.56C528.99 241.83 557.19 245.13 563.34 247.14C555.84 253.41 517.98 278.55 509.58 284.07V284.19ZM317.13 100.77C317.13 101.04 317.31 101.37 317.76 103.11C317.878 103.487 318.138 103.805 318.484 103.995C318.831 104.185 319.238 104.233 319.62 104.13C320.002 104.019 320.324 103.76 320.515 103.411C320.706 103.062 320.751 102.652 320.64 102.27C320.34 101.1 320.07 100.11 319.89 99.63C319.715 99.3006 319.424 99.048 319.073 98.9217C318.722 98.7953 318.337 98.8042 317.992 98.9466C317.648 99.0889 317.368 99.3546 317.209 99.6917C317.049 100.029 317.021 100.413 317.13 100.77V100.77Z" fill="#E2E7E9"/>
</svg>
